<?xml version="1.0" encoding="UTF-8" standalone="no"?>
<svg
   version="1.1"
   viewBox="0.0 0.0 960.0 540.0"
   fill="none"
   stroke="none"
   stroke-linecap="square"
   stroke-miterlimit="10"
   id="svg81"
   sodipodi:docname="virtual_machine.svg"
   inkscape:version="1.2.1 (9c6d41e410, 2022-07-14)"
   xmlns:inkscape="http://www.inkscape.org/namespaces/inkscape"
   xmlns:sodipodi="http://sodipodi.sourceforge.net/DTD/sodipodi-0.dtd"
   xmlns="http://www.w3.org/2000/svg"
   xmlns:svg="http://www.w3.org/2000/svg">
  <defs
     id="defs85" />
  <sodipodi:namedview
     id="namedview83"
     pagecolor="#ffffff"
     bordercolor="#000000"
     borderopacity="0.25"
     inkscape:showpageshadow="2"
     inkscape:pageopacity="0.0"
     inkscape:pagecheckerboard="0"
     inkscape:deskcolor="#d1d1d1"
     showgrid="false"
     inkscape:zoom="1.325"
     inkscape:cx="480.37736"
     inkscape:cy="270.18868"
     inkscape:window-width="1858"
     inkscape:window-height="1057"
     inkscape:window-x="-8"
     inkscape:window-y="-8"
     inkscape:window-maximized="1"
     inkscape:current-layer="svg81" />
  <clipPath
     id="g1487a7f6388_0_0.0">
    <path
       d="m0 0l960.0 0l0 540.0l-960.0 0l0 -540.0z"
       clip-rule="nonzero"
       id="path2" />
  </clipPath>
  <g
     clip-path="url(#g1487a7f6388_0_0.0)"
     id="g79"
     transform="matrix(1.1988672,0,0,1.1988672,-95.456245,-53.69414)"
     inkscape:export-filename="g79.svg"
     inkscape:export-xdpi="96"
     inkscape:export-ydpi="96">
    <path
       fill="#9fc5e8"
       d="m 97.19685,340.16666 h 765.6063 V 394.3714 H 97.19685 Z"
       fill-rule="evenodd"
       id="path7" />
    <path
       stroke="#595959"
       stroke-width="1"
       stroke-linejoin="round"
       stroke-linecap="butt"
       d="m 97.19685,340.16666 h 765.6063 V 394.3714 H 97.19685 Z"
       fill-rule="evenodd"
       id="path9" />
    <path
       fill="#000000"
       d="m 439.8086,374.41965 q -2.32812,-7.35938 -6.125,-11.82813 l 2.60938,-2 q 4.76562,6.01563 6.78125,12.73438 z M 429.71485,362.8884 q 1.51563,0.9375 -0.0156,1.54687 -1.5625,5.4375 -5.40625,10.45313 l -2.84375,-1.84375 q 4.15625,-5.01563 5.59375,-11.40625 z m 14.53125,5.39062 v -2.89062 h 20.67188 v 2.89062 z m 33.77124,2.1875 q -5.0625,-2.57812 -7.4375,-3.20312 v 9.0625 h -2.96875 v -18.64063 h 2.25 q 2.29687,0.20313 0.71875,1.40625 v 4.98438 q 4.04687,1.17187 8.9375,3.51562 z m -0.45313,-7.76562 q -1.76562,-2.17188 -3.70312,-3.65625 l 1.92187,-1.48438 q 1.82813,1.40625 3.67188,3.6875 z m 2.125,-1.67188 q -1.42187,-1.84375 -3.59375,-3.57812 l 1.875,-1.46875 q 1.85938,1.29687 3.59375,3.57812 z m 21.15931,1.35938 q 0,10.14062 -9.85938,15 l -2.39062,-2.375 q 8.92187,-4.0625 9.01562,-11.07813 h -11.34375 l 0.17188,5.21875 h -2.96875 l -0.29688,-8.10937 h 7 v -4.42188 h 2.25 q 2.26563,0.20313 0.71875,1.42188 v 3 h 6.35938 z m 11.42248,3.57812 v 6.0625 h 6.45313 v 2.60938 h -15.35938 v -2.60938 h 6.1875 v -6.0625 h -4.95312 v -2.60937 h 12.625 v 2.60937 z m 18.61206,1.1875 q 0.14063,5.85938 -6.34375,9.9375 l -2.15625,-2.42187 q 5.5,-2.98438 5.5,-7.84375 v -4.26563 h 2.34375 q 1.92188,0.1875 0.625,1.29688 v 1.15625 q 2.375,-1.78125 3.45313,-3.26563 l -13.90625,0.51563 -0.26563,-2.96875 16.54688,-0.45313 0.84375,-0.26562 1.54687,1.84375 q 0.92188,1.26562 -0.60937,1.0625 -2.51563,3.28125 -6.60938,6.59375 z"
       fill-rule="nonzero"
       id="path11" />
    <path
       fill="#b6d7a8"
       d="m 97.19685,275.32153 h 765.6063 v 54.20471 H 97.19685 Z"
       fill-rule="evenodd"
       id="path13" />
    <path
       stroke="#595959"
       stroke-width="1"
       stroke-linejoin="round"
       stroke-linecap="butt"
       d="m 97.19685,275.32153 h 765.6063 v 54.20471 H 97.19685 Z"
       fill-rule="evenodd"
       id="path15" />
    <path
       fill="#000000"
       d="m 424.40942,309.57452 q -2.32813,-7.35938 -6.125,-11.82813 l 2.60937,-2 q 4.76563,6.01563 6.78125,12.73438 z m -10.09375,-11.53125 q 1.51562,0.9375 -0.0156,1.54687 -1.5625,5.4375 -5.40625,10.45313 l -2.84375,-1.84375 q 4.15625,-5.01563 5.59375,-11.40625 z m 14.5,5.53125 q 9.75,-4.09375 14.75,-11.5 l 2.0625,1.76562 q 1.51562,1.14063 -0.64063,1.57813 -1.60937,2.10937 -4.14062,4.3125 v 12.28125 h -2.96875 v -9.875 q -2.39063,1.84375 -6.92188,3.96875 z m 36.87683,-6.25 q -1.26563,0 -2.09375,-0.85938 -0.85938,-0.82812 -0.85938,-2.09375 0,-1.26562 0.85938,-2.09375 0.84375,-0.84375 2.09375,-0.84375 1.25,0 2.09375,0.84375 0.84375,0.84375 0.84375,2.09375 0,1.25 -0.84375,2.09375 -0.82813,0.85938 -2.09375,0.85938 z m 0,-1.82813 q 0.51562,0 0.8125,-0.29687 0.3125,-0.3125 0.3125,-0.82813 0,-0.51562 -0.3125,-0.82812 -0.29688,-0.29688 -0.8125,-0.29688 -0.53125,0 -0.82813,0.29688 -0.29687,0.3125 -0.29687,0.82812 0,0.51563 0.29687,0.82813 0.29688,0.29687 0.82813,0.29687 z m -3.46875,0.25 q 4.76562,6.01563 6.78125,12.73438 l -3.26563,1.09375 q -2.32812,-7.35938 -6.125,-11.82813 z m -6.57813,2.29688 q 1.51563,0.9375 -0.0156,1.54687 -1.5625,5.4375 -5.40625,10.45313 L 447.38,308.19952 q 4.15625,-5.01563 5.59375,-11.40625 z m 14.53125,5.39062 v -2.89062 h 20.67188 v 2.89062 z m 36.47437,-7.6875 q 4.76562,6.01563 6.78125,12.73438 l -3.26563,1.09375 q -2.32812,-7.35938 -6.125,-11.82813 z m -6.57813,2.29688 q 1.51563,0.9375 -0.0156,1.54687 -1.5625,5.4375 -5.40625,10.45313 l -2.84375,-1.84375 q 4.15625,-5.01563 5.59375,-11.40625 z m 10.39063,-7.10938 q 1.48437,1.23438 3.51562,3.35938 l -1.85937,1.71875 q -1.89063,-2.09375 -3.51563,-3.5 z m -2.07813,1.32813 q 1.625,1.51562 3.48438,3.6875 l -2.10938,1.5625 q -1.57812,-2.10938 -3.39062,-3.6875 z m 6.1875,11.3125 q 9.75,-4.09375 14.75,-11.5 l 2.0625,1.76562 q 1.51563,1.14063 -0.64062,1.57813 -1.60938,2.10937 -4.14063,4.3125 v 12.28125 h -2.96875 v -9.875 q -2.39062,1.84375 -6.92187,3.96875 z m 34.59558,-5.59375 h 5.21875 v 2.875 h -5.125 v 1.21875 q 0,6.95312 -7.59375,10.03125 l -2.09375,-2.375 q 6.71875,-2.25 6.71875,-7.48438 v -1.39062 h -4.89062 l 0.0781,4.51562 h -2.875 l -0.0937,-4.51562 h -4.96875 v -2.875 h 4.9375 l -0.0937,-4.70313 h 2.375 q 1.89063,0.20313 0.53125,1.54688 l 0.0781,3.15625 h 4.82812 v -5.40625 h 2.45313 q 1.875,0.20312 0.51562,1.54687 z m 1.09375,-6.03125 q 1.78125,1.5625 3.51563,3.64062 l -1.85938,1.57813 q -1.70312,-2.10938 -3.26562,-3.45313 z m 1.67188,-1.48438 q 1.89062,1.54688 3.53125,3.60938 l -1.89063,1.60937 q -1.59375,-2.14062 -3.26562,-3.46875 z"
       fill-rule="nonzero"
       id="path17" />
    <path
       fill="#ea9999"
       d="m 97.19685,210.47462 h 236.47243 v 54.20473 H 97.19685 Z"
       fill-rule="evenodd"
       id="path19" />
    <path
       stroke="#595959"
       stroke-width="1"
       stroke-linejoin="round"
       stroke-linecap="butt"
       d="m 97.19685,210.47462 h 236.47243 v 54.20473 H 97.19685 Z"
       fill-rule="evenodd"
       id="path21" />
    <path
       fill="#000000"
       d="m 191.37848,232.60262 v 2.875 h -5.1875 q -0.78125,6.67187 -7,12.0625 l -2.92188,-1.67188 q 6.48438,-5.15625 6.79688,-10.39062 h -5.9375 q -1.04688,2.125 -3.14063,4.1875 l -2.60937,-1.4375 q 4.21875,-4.3125 5.34375,-10.78125 l 2.70312,0.65625 q 1.8125,0.4375 0.10938,1.46875 -0.5,1.79687 -1.03125,3.03125 z m -4.42188,-5.57813 q 1.71875,1.75 3.45313,3.89063 l -1.875,1.5625 q -1.85938,-2.20313 -3.45313,-3.89063 z m 2.4375,-0.96875 q 1.85938,1.73438 3.60938,3.8125 l -2.10938,1.54688 q -1.67187,-2.20313 -3.25,-3.76563 z m 15.97437,11.17188 q 3.46875,2.64062 7.54687,6.84375 l -2.48437,2.10937 q -4,-4.1875 -7.09375,-6.5625 -3.1875,3.45313 -7.96875,6.60938 l -2.39063,-2.15625 q 9.76563,-6.35938 12.0625,-11.64063 l -9.3125,0.60938 -0.39062,-3.07813 10.73437,-0.46875 1.26563,-0.3125 1.59375,1.60938 q 1.26562,1.25 -0.375,1.54687 -1.59375,2.76563 -3.1875,4.89063 z m 13.27185,-2.84375 q 4.03125,1.17187 8.92189,3.51562 l -1.5,2.875 q -5.06251,-2.57812 -7.42189,-3.20312 v 9.0625 h -2.98437 v -18.64063 h 2.26562 q 2.29688,0.20313 0.71875,1.40625 z"
       fill-rule="nonzero"
       id="path23" />
    <path
       fill="#000000"
       d="m 228.50337,237.82137 q 0,-2.46875 0.73437,-4.15625 0.5625,-1.23438 1.51563,-2.21875 0.95312,-0.98438 2.09375,-1.46875 1.51562,-0.64063 3.5,-0.64063 3.57812,0 5.73437,2.23438 2.15625,2.21875 2.15625,6.17187 0,3.9375 -2.14062,6.15625 -2.125,2.21875 -5.70313,2.21875 -3.625,0 -5.76562,-2.20312 -2.125,-2.21875 -2.125,-6.09375 z m 3.375,-0.10938 q 0,2.76563 1.26562,4.1875 1.28125,1.42188 3.23438,1.42188 1.95312,0 3.20312,-1.40625 1.26563,-1.42188 1.26563,-4.25 0,-2.78125 -1.21875,-4.15625 -1.21875,-1.375 -3.25,-1.375 -2.01563,0 -3.26563,1.39062 -1.23437,1.39063 -1.23437,4.1875 z m 14.07588,2.84375 3.1875,-0.3125 q 0.29688,1.60938 1.17188,2.35938 0.875,0.75 2.375,0.75 1.57812,0 2.375,-0.65625 0.8125,-0.67188 0.8125,-1.57813 0,-0.5625 -0.34375,-0.96875 -0.32813,-0.40625 -1.17188,-0.70312 -0.57812,-0.20313 -2.625,-0.71875 -2.64062,-0.64063 -3.70312,-1.59375 -1.48438,-1.34375 -1.48438,-3.26563 0,-1.23437 0.70313,-2.3125 0.70312,-1.07812 2.01562,-1.64062 1.32813,-0.57813 3.20313,-0.57813 3.04687,0 4.59375,1.34375 1.54687,1.34375 1.625,3.57813 l -3.28125,0.14062 q -0.20313,-1.25 -0.90625,-1.79687 -0.6875,-0.54688 -2.0625,-0.54688 -1.4375,0 -2.23438,0.57813 -0.53125,0.375 -0.53125,1.01562 0,0.57813 0.48438,0.98438 0.625,0.51562 3.01562,1.07812 2.39063,0.5625 3.53125,1.17188 1.15625,0.59375 1.79688,1.64062 0.64062,1.04688 0.64062,2.59375 0,1.39063 -0.78125,2.60938 -0.76562,1.21875 -2.1875,1.8125 -1.40625,0.57812 -3.51562,0.57812 -3.07813,0 -4.73438,-1.42187 -1.64062,-1.42188 -1.96875,-4.14063 z"
       fill-rule="nonzero"
       id="path25" />
    <path
       fill="#ffe599"
       d="m 97.19685,145.62862 h 106.58267 v 54.20471 H 97.19685 Z"
       fill-rule="evenodd"
       id="path27" />
    <path
       stroke="#595959"
       stroke-width="1"
       stroke-linejoin="round"
       stroke-linecap="butt"
       d="m 97.19685,145.62862 h 106.58267 v 54.20471 H 97.19685 Z"
       fill-rule="evenodd"
       id="path29" />
    <path
       fill="#000000"
       d="m 123.44132,163.1691 q 0.10937,4.14062 -4.46875,7.01562 l -1.51563,-1.70312 q 3.875,-2.10938 3.875,-5.53125 v -3.01563 h 1.65625 q 1.32813,0.14063 0.4375,0.92188 v 0.8125 q 1.6875,-1.26563 2.4375,-2.29688 l -9.8125,0.35938 -0.1875,-2.09375 11.6875,-0.32813 0.59375,-0.17187 1.07812,1.29687 q 0.65625,0.875 -0.42187,0.73438 -1.78125,2.32812 -4.65625,4.65625 z m 18.40624,-5.48438 q 0.35938,0 0.57813,-0.21875 0.21875,-0.21875 0.21875,-0.57812 0,-0.35938 -0.21875,-0.57813 -0.21875,-0.21875 -0.57813,-0.21875 -0.35937,0 -0.57812,0.21875 -0.21875,0.21875 -0.21875,0.57813 0,0.35937 0.21875,0.57812 0.21875,0.21875 0.57812,0.21875 z m 0,1.28125 q -0.89062,0 -1.48437,-0.59375 -0.59375,-0.59375 -0.59375,-1.48437 0,-0.89063 0.59375,-1.48438 0.59375,-0.59375 1.48437,-0.59375 0.89063,0 1.48438,0.59375 0.59375,0.59375 0.59375,1.48438 0,0.89062 -0.59375,1.48437 -0.59375,0.59375 -1.48438,0.59375 z m -11.51562,0.8125 v -2.03125 h 9.6875 l 1.84375,1.35938 q -0.32813,7.96875 -9.01563,10.40625 l -1.59375,-1.95313 q 8.09375,-1.875 8.4375,-7.78125 z m 23.65625,3.48438 q 0,4.89062 -4.75,7.14062 l -1.8125,-1.53125 q 4.40625,-2.01562 4.46875,-5.67187 v -6.57813 h 1.67187 q 1.375,0.28125 0.42188,1 z m -6.4375,1.70312 h -2.09375 v -7.71875 h 1.71875 q 1.45312,0.14063 0.375,0.98438 z m 8.57812,-1.25 q 2.96875,-3.04687 3.76563,-7.60937 l 1.90625,0.46875 q 1.26562,0.3125 0.0781,1.03125 -0.34375,1.26562 -0.71875,2.14062 h 9.07813 v 2.03125 h -3.65625 q -0.54688,4.71875 -4.9375,8.51563 l -2.0625,-1.17188 q 4.57812,-3.65625 4.79687,-7.34375 h -4.20312 q -0.75,1.48438 -2.20313,2.95313 z m 15.07813,0.25 v -2.03125 h 14.59375 v 2.03125 z"
       fill-rule="nonzero"
       id="path31" />
    <path
       fill="#000000"
       d="m 133.28506,186.5441 q 7.14062,-1.57813 10.71875,-7.375 l 1.60937,1.60937 q -3.39062,5.45313 -10.01562,7.54688 -0.32813,1.32812 -1.1875,-0.0156 z m 0,-7.76563 q 1.82812,0.95313 3.75,2.35938 l -1.40625,1.82812 q -2.10938,-1.54687 -3.67188,-2.32812 z m 1.73437,-3.70312 q 1.96875,1.09375 3.75,2.35937 l -1.23437,1.85938 q -1.95313,-1.375 -3.67188,-2.34375 z m 11.46875,13.01562 v -1.84375 h 6.375 v -1.96875 h -6 v -1.84375 h 6 v -1.84375 h -6.375 v -1.84375 h 8.28125 v 10.03125 h -1.90625 v -0.6875 z m 23.0625,-7.6875 q -3.53125,7.29688 -11.3125,7.67188 -0.51562,1.34375 -1.17187,-0.0781 l -0.625,-2.04687 q 8.34375,-0.20313 11.23437,-6.875 z m -9.21875,0.5625 q -1.90625,-1.75 -3.6875,-2.9375 l 1.46875,-1.82812 q 1.59375,0.98437 3.85938,3.125 z"
       fill-rule="nonzero"
       id="path33" />
    <path
       fill="#ffe599"
       d="m 227.08661,145.62862 h 106.58267 v 54.20471 H 227.08661 Z"
       fill-rule="evenodd"
       id="path35" />
    <path
       stroke="#595959"
       stroke-width="1"
       stroke-linejoin="round"
       stroke-linecap="butt"
       d="m 227.08661,145.62862 h 106.58267 v 54.20471 H 227.08661 Z"
       fill-rule="evenodd"
       id="path37" />
    <path
       fill="#000000"
       d="m 253.33109,163.1691 q 0.10937,4.14062 -4.46875,7.01562 l -1.51563,-1.70312 q 3.875,-2.10938 3.875,-5.53125 v -3.01563 h 1.65625 q 1.32813,0.14063 0.4375,0.92188 v 0.8125 q 1.6875,-1.26563 2.4375,-2.29688 l -9.8125,0.35938 -0.1875,-2.09375 11.68751,-0.32813 0.59375,-0.17187 1.07812,1.29687 q 0.65625,0.875 -0.42187,0.73438 -1.78125,2.32812 -4.65625,4.65625 z m 18.40625,-5.48438 q 0.35938,0 0.57813,-0.21875 0.21875,-0.21875 0.21875,-0.57812 0,-0.35938 -0.21875,-0.57813 -0.21875,-0.21875 -0.57813,-0.21875 -0.35937,0 -0.57812,0.21875 -0.21875,0.21875 -0.21875,0.57813 0,0.35937 0.21875,0.57812 0.21875,0.21875 0.57812,0.21875 z m 0,1.28125 q -0.89062,0 -1.48437,-0.59375 -0.59375,-0.59375 -0.59375,-1.48437 0,-0.89063 0.59375,-1.48438 0.59375,-0.59375 1.48437,-0.59375 0.89063,0 1.48438,0.59375 0.59375,0.59375 0.59375,1.48438 0,0.89062 -0.59375,1.48437 -0.59375,0.59375 -1.48438,0.59375 z m -11.51562,0.8125 v -2.03125 h 9.6875 l 1.84375,1.35938 q -0.32813,7.96875 -9.01563,10.40625 l -1.59375,-1.95313 q 8.09375,-1.875 8.4375,-7.78125 z m 23.65625,3.48438 q 0,4.89062 -4.75,7.14062 l -1.8125,-1.53125 q 4.40625,-2.01562 4.46875,-5.67187 v -6.57813 h 1.67187 q 1.375,0.28125 0.42188,1 z m -6.4375,1.70312 h -2.09375 v -7.71875 h 1.71875 q 1.45312,0.14063 0.375,0.98438 z m 8.57812,-1.25 q 2.96875,-3.04687 3.76563,-7.60937 l 1.90625,0.46875 q 1.26562,0.3125 0.0781,1.03125 -0.34375,1.26562 -0.71875,2.14062 h 9.07813 v 2.03125 h -3.65625 q -0.54688,4.71875 -4.9375,8.51563 l -2.0625,-1.17188 q 4.57812,-3.65625 4.79687,-7.34375 h -4.20312 q -0.75,1.48438 -2.20313,2.95313 z m 15.07813,0.25 v -2.03125 h 14.59375 v 2.03125 z"
       fill-rule="nonzero"
       id="path39" />
    <path
       fill="#000000"
       d="m 263.17484,186.5441 q 7.14063,-1.57813 10.71875,-7.375 l 1.60938,1.60937 q -3.39063,5.45313 -10.01563,7.54688 -0.32812,1.32812 -1.1875,-0.0156 z m 0,-7.76563 q 1.82813,0.95313 3.75,2.35938 l -1.40625,1.82812 q -2.10937,-1.54687 -3.67187,-2.32812 z m 1.73438,-3.70312 q 1.96875,1.09375 3.75,2.35937 l -1.23438,1.85938 q -1.95312,-1.375 -3.67187,-2.34375 z m 11.46875,13.01562 v -1.84375 h 6.375 v -1.96875 h -6 v -1.84375 h 6 v -1.84375 h -6.375 v -1.84375 h 8.28125 v 10.03125 h -1.90625 v -0.6875 z m 23.0625,-7.6875 q -3.53125,7.29688 -11.3125,7.67188 -0.51563,1.34375 -1.17188,-0.0781 l -0.625,-2.04687 q 8.34375,-0.20313 11.23438,-6.875 z m -9.21875,0.5625 q -1.90625,-1.75 -3.6875,-2.9375 l 1.46875,-1.82812 q 1.59375,0.98437 3.85937,3.125 z"
       fill-rule="nonzero"
       id="path41" />
    <path
       fill="#ea9999"
       d="m 373.52493,210.47725 h 236.47244 v 54.20473 H 373.52493 Z"
       fill-rule="evenodd"
       id="path43" />
    <path
       stroke="#595959"
       stroke-width="1"
       stroke-linejoin="round"
       stroke-linecap="butt"
       d="m 373.52493,210.47725 h 236.47244 v 54.20473 H 373.52493 Z"
       fill-rule="evenodd"
       id="path45" />
    <path
       fill="#000000"
       d="m 467.70657,232.60524 v 2.875 h -5.1875 q -0.78125,6.67187 -7,12.0625 l -2.92188,-1.67188 q 6.48438,-5.15625 6.79688,-10.39062 h -5.9375 q -1.04688,2.125 -3.14063,4.1875 l -2.60937,-1.4375 q 4.21875,-4.3125 5.34375,-10.78125 l 2.70312,0.65625 q 1.8125,0.4375 0.10938,1.46875 -0.5,1.79687 -1.03125,3.03125 z m -4.42188,-5.57813 q 1.71875,1.75 3.45313,3.89063 l -1.875,1.5625 q -1.85938,-2.20313 -3.45313,-3.89063 z m 2.4375,-0.96875 q 1.85938,1.73438 3.60938,3.8125 l -2.10938,1.54688 q -1.67187,-2.20313 -3.25,-3.76563 z m 15.97437,11.17188 q 3.46875,2.64062 7.54687,6.84375 l -2.48437,2.10937 q -4,-4.1875 -7.09375,-6.5625 -3.1875,3.45313 -7.96875,6.60938 l -2.39063,-2.15625 q 9.76563,-6.35938 12.0625,-11.64063 l -9.3125,0.60938 -0.39062,-3.07813 10.73437,-0.46875 1.26563,-0.3125 1.59375,1.60938 q 1.26562,1.25 -0.375,1.54687 -1.59375,2.76563 -3.1875,4.89063 z m 13.27185,-2.84375 q 4.03125,1.17187 8.92188,3.51562 l -1.5,2.875 q -5.0625,-2.57812 -7.42188,-3.20312 v 9.0625 h -2.98437 v -18.64063 h 2.26562 q 2.29688,0.20313 0.71875,1.40625 z"
       fill-rule="nonzero"
       id="path47" />
    <path
       fill="#000000"
       d="m 504.83145,237.82399 q 0,-2.46875 0.73438,-4.15625 0.5625,-1.23438 1.51562,-2.21875 0.95313,-0.98438 2.09375,-1.46875 1.51563,-0.64063 3.50003,-0.64063 3.57813,0 5.73438,2.23438 2.15625,2.21875 2.15625,6.17187 0,3.9375 -2.14063,6.15625 -2.125,2.21875 -5.70312,2.21875 -3.62503,0 -5.76566,-2.20312 -2.125,-2.21875 -2.125,-6.09375 z m 3.375,-0.10938 q 0,2.76563 1.26563,4.1875 1.28125,1.42188 3.2344,1.42188 1.95313,0 3.20313,-1.40625 1.26562,-1.42188 1.26562,-4.25 0,-2.78125 -1.21875,-4.15625 -1.21875,-1.375 -3.25,-1.375 -2.01565,0 -3.26565,1.39062 -1.23438,1.39063 -1.23438,4.1875 z m 14.0759,2.84375 3.1875,-0.3125 q 0.29687,1.60938 1.17187,2.35938 0.875,0.75 2.375,0.75 1.57813,0 2.375,-0.65625 0.8125,-0.67188 0.8125,-1.57813 0,-0.5625 -0.34375,-0.96875 -0.32812,-0.40625 -1.17187,-0.70312 -0.57813,-0.20313 -2.625,-0.71875 -2.64063,-0.64063 -3.70313,-1.59375 -1.48437,-1.34375 -1.48437,-3.26563 0,-1.23437 0.70312,-2.3125 0.70313,-1.07812 2.01563,-1.64062 1.32812,-0.57813 3.20312,-0.57813 3.04688,0 4.59375,1.34375 1.54688,1.34375 1.625,3.57813 l -3.28125,0.14062 q -0.20312,-1.25 -0.90625,-1.79687 -0.6875,-0.54688 -2.0625,-0.54688 -1.4375,0 -2.23437,0.57813 -0.53125,0.375 -0.53125,1.01562 0,0.57813 0.48437,0.98438 0.625,0.51562 3.01563,1.07812 2.39062,0.5625 3.53125,1.17188 1.15625,0.59375 1.79687,1.64062 0.64063,1.04688 0.64063,2.59375 0,1.39063 -0.78125,2.60938 -0.76563,1.21875 -2.1875,1.8125 -1.40625,0.57812 -3.51563,0.57812 -3.07812,0 -4.73437,-1.42187 -1.64063,-1.42188 -1.96875,-4.14063 z"
       fill-rule="nonzero"
       id="path49" />
    <path
       fill="#ffe599"
       d="M 373.52493,145.63124 H 480.1076 v 54.20471 H 373.52493 Z"
       fill-rule="evenodd"
       id="path51" />
    <path
       stroke="#595959"
       stroke-width="1"
       stroke-linejoin="round"
       stroke-linecap="butt"
       d="M 373.52493,145.63124 H 480.1076 v 54.20471 H 373.52493 Z"
       fill-rule="evenodd"
       id="path53" />
    <path
       fill="#000000"
       d="m 399.7694,163.17172 q 0.10938,4.14062 -4.46875,7.01562 l -1.51562,-1.70312 q 3.875,-2.10938 3.875,-5.53125 v -3.01563 h 1.65625 q 1.32812,0.14063 0.4375,0.92188 v 0.8125 q 1.6875,-1.26563 2.4375,-2.29688 l -9.8125,0.35938 -0.1875,-2.09375 11.6875,-0.32813 0.59375,-0.17187 1.07812,1.29687 q 0.65625,0.875 -0.42187,0.73438 -1.78125,2.32812 -4.65625,4.65625 z m 18.40625,-5.48438 q 0.35938,0 0.57813,-0.21875 0.21875,-0.21875 0.21875,-0.57812 0,-0.35938 -0.21875,-0.57813 -0.21875,-0.21875 -0.57813,-0.21875 -0.35937,0 -0.57812,0.21875 -0.21875,0.21875 -0.21875,0.57813 0,0.35937 0.21875,0.57812 0.21875,0.21875 0.57812,0.21875 z m 0,1.28125 q -0.89062,0 -1.48437,-0.59375 -0.59375,-0.59375 -0.59375,-1.48437 0,-0.89063 0.59375,-1.48438 0.59375,-0.59375 1.48437,-0.59375 0.89063,0 1.48438,0.59375 0.59375,0.59375 0.59375,1.48438 0,0.89062 -0.59375,1.48437 -0.59375,0.59375 -1.48438,0.59375 z m -11.51562,0.8125 v -2.03125 h 9.6875 l 1.84375,1.35938 q -0.32813,7.96875 -9.01563,10.40625 l -1.59375,-1.95313 q 8.09375,-1.875 8.4375,-7.78125 z m 23.65625,3.48438 q 0,4.89062 -4.75,7.14062 l -1.8125,-1.53125 q 4.40625,-2.01562 4.46875,-5.67187 v -6.57813 h 1.67187 q 1.375,0.28125 0.42188,1 z m -6.4375,1.70312 h -2.09375 v -7.71875 h 1.71875 q 1.45312,0.14063 0.375,0.98438 z m 8.57812,-1.25 q 2.96875,-3.04687 3.76563,-7.60937 l 1.90625,0.46875 q 1.26562,0.3125 0.0781,1.03125 -0.34375,1.26562 -0.71875,2.14062 h 9.07813 v 2.03125 h -3.65625 q -0.54688,4.71875 -4.9375,8.51563 l -2.0625,-1.17188 q 4.57812,-3.65625 4.79687,-7.34375 h -4.20312 q -0.75,1.48438 -2.20313,2.95313 z m 15.07813,0.25 v -2.03125 h 14.59375 v 2.03125 z"
       fill-rule="nonzero"
       id="path55" />
    <path
       fill="#000000"
       d="m 409.61316,186.54672 q 7.14062,-1.57813 10.71875,-7.375 l 1.60937,1.60937 q -3.39062,5.45313 -10.01562,7.54688 -0.32813,1.32812 -1.1875,-0.0156 z m 0,-7.76563 q 1.82812,0.95313 3.75,2.35938 l -1.40625,1.82812 q -2.10938,-1.54687 -3.67188,-2.32812 z m 1.73437,-3.70312 q 1.96875,1.09375 3.75,2.35937 l -1.23437,1.85938 q -1.95313,-1.375 -3.67188,-2.34375 z m 11.46875,13.01562 v -1.84375 h 6.375 v -1.96875 h -6 v -1.84375 h 6 v -1.84375 h -6.375 v -1.84375 h 8.28125 v 10.03125 h -1.90625 v -0.6875 z m 23.0625,-7.6875 q -3.53125,7.29688 -11.3125,7.67188 -0.51562,1.34375 -1.17187,-0.0781 l -0.625,-2.04687 q 8.34375,-0.20313 11.23437,-6.875 z m -9.21875,0.5625 q -1.90625,-1.75 -3.6875,-2.9375 l 1.46875,-1.82812 q 1.59375,0.98437 3.85938,3.125 z"
       fill-rule="nonzero"
       id="path57" />
    <path
       fill="#ffe599"
       d="m 503.4147,145.63124 h 106.58267 v 54.20471 H 503.4147 Z"
       fill-rule="evenodd"
       id="path59" />
    <path
       stroke="#595959"
       stroke-width="1"
       stroke-linejoin="round"
       stroke-linecap="butt"
       d="m 503.4147,145.63124 h 106.58267 v 54.20471 H 503.4147 Z"
       fill-rule="evenodd"
       id="path61" />
    <path
       fill="#000000"
       d="m 529.6592,163.17172 q 0.10938,4.14062 -4.46875,7.01562 l -1.51562,-1.70312 q 3.875,-2.10938 3.875,-5.53125 v -3.01563 h 1.65625 q 1.32812,0.14063 0.4375,0.92188 v 0.8125 q 1.6875,-1.26563 2.4375,-2.29688 l -9.8125,0.35938 -0.1875,-2.09375 11.6875,-0.32813 0.59375,-0.17187 1.07812,1.29687 q 0.65625,0.875 -0.42187,0.73438 -1.78125,2.32812 -4.65625,4.65625 z m 18.40625,-5.48438 q 0.35938,0 0.57813,-0.21875 0.21875,-0.21875 0.21875,-0.57812 0,-0.35938 -0.21875,-0.57813 -0.21875,-0.21875 -0.57813,-0.21875 -0.35937,0 -0.57812,0.21875 -0.21875,0.21875 -0.21875,0.57813 0,0.35937 0.21875,0.57812 0.21875,0.21875 0.57812,0.21875 z m 0,1.28125 q -0.89062,0 -1.48437,-0.59375 -0.59375,-0.59375 -0.59375,-1.48437 0,-0.89063 0.59375,-1.48438 0.59375,-0.59375 1.48437,-0.59375 0.89063,0 1.48438,0.59375 0.59375,0.59375 0.59375,1.48438 0,0.89062 -0.59375,1.48437 -0.59375,0.59375 -1.48438,0.59375 z m -11.51562,0.8125 v -2.03125 h 9.6875 l 1.84375,1.35938 q -0.32813,7.96875 -9.01563,10.40625 l -1.59375,-1.95313 q 8.09375,-1.875 8.4375,-7.78125 z m 23.65625,3.48438 q 0,4.89062 -4.75,7.14062 l -1.8125,-1.53125 q 4.40625,-2.01562 4.46875,-5.67187 v -6.57813 h 1.67187 q 1.375,0.28125 0.42188,1 z m -6.4375,1.70312 h -2.09375 v -7.71875 h 1.71875 q 1.45312,0.14063 0.375,0.98438 z m 8.57812,-1.25 q 2.96875,-3.04687 3.76563,-7.60937 l 1.90625,0.46875 q 1.26562,0.3125 0.0781,1.03125 -0.34375,1.26562 -0.71875,2.14062 h 9.07813 v 2.03125 h -3.65625 q -0.54688,4.71875 -4.9375,8.51563 l -2.0625,-1.17188 q 4.57812,-3.65625 4.79687,-7.34375 h -4.20312 q -0.75,1.48438 -2.20313,2.95313 z m 15.07813,0.25 v -2.03125 h 14.59375 v 2.03125 z"
       fill-rule="nonzero"
       id="path63" />
    <path
       fill="#000000"
       d="m 539.5029,186.54672 q 7.14062,-1.57813 10.71875,-7.375 l 1.60937,1.60937 q -3.39062,5.45313 -10.01562,7.54688 -0.32813,1.32812 -1.1875,-0.0156 z m 0,-7.76563 q 1.82812,0.95313 3.75,2.35938 l -1.40625,1.82812 q -2.10938,-1.54687 -3.67188,-2.32812 z m 1.73437,-3.70312 q 1.96875,1.09375 3.75,2.35937 l -1.23437,1.85938 q -1.95313,-1.375 -3.67188,-2.34375 z m 11.46875,13.01562 v -1.84375 h 6.375 v -1.96875 h -6 v -1.84375 h 6 v -1.84375 h -6.375 v -1.84375 h 8.28125 v 10.03125 h -1.90625 v -0.6875 z m 23.0625,-7.6875 q -3.53125,7.29688 -11.3125,7.67188 -0.51562,1.34375 -1.17187,-0.0781 l -0.625,-2.04687 q 8.34375,-0.20313 11.23437,-6.875 z m -9.21875,0.5625 q -1.90625,-1.75 -3.6875,-2.9375 l 1.46875,-1.82812 q 1.59375,0.98437 3.85938,3.125 z"
       fill-rule="nonzero"
       id="path65" />
    <path
       fill="#000000"
       fill-opacity="0"
       d="m 633.53546,177.40552 h 206.67712 v 87.27557 H 633.53546 Z"
       fill-rule="evenodd"
       id="path67" />
    <path
       fill="#000000"
       d="m 658.5667,203.27864 q -1.85938,-5.85938 -4.82813,-9.34375 l 1.5625,-1.1875 q 3.71875,4.67187 5.26563,9.875 z m -8.90625,-8.82813 q 0.59375,0.375 -0.14063,0.67188 -1.34375,4.67187 -4.3125,8.53125 l -1.70312,-1.10938 q 3.26562,-3.9375 4.375,-8.90625 z m 12.98437,4.45313 q 7.79688,-3.26563 11.8125,-9.20313 l 1.40625,1.1875 q 0.59375,0.45313 -0.51562,0.67188 -1.42188,1.85937 -3.64063,3.78125 v 10.09375 h -1.70312 v -8.6875 q -2.60938,2.01562 -6.09375,3.64062 z m 30.28516,-5.78125 q -0.89062,0 -1.48437,-0.59375 -0.59375,-0.59375 -0.59375,-1.48438 0,-0.89062 0.59375,-1.48437 0.59375,-0.59375 1.48437,-0.59375 0.89063,0 1.48438,0.59375 0.59375,0.59375 0.59375,1.48437 0,0.89063 -0.59375,1.48438 -0.59375,0.59375 -1.48438,0.59375 z m 0,-0.75 q 0.59375,0 0.96875,-0.375 0.375,-0.35938 0.375,-0.95313 0,-0.59375 -0.375,-0.96875 -0.375,-0.375 -0.96875,-0.375 -0.59375,0 -0.96875,0.375 -0.35937,0.375 -0.35937,0.96875 0,0.59375 0.35937,0.95313 0.375,0.375 0.96875,0.375 z m -2.96875,0.375 q 3.71875,4.67187 5.26563,9.875 l -2,0.65625 q -1.85938,-5.85938 -4.82813,-9.34375 z m -5.64062,1.70312 q 0.59375,0.375 -0.14063,0.67188 -1.34375,4.67187 -4.3125,8.53125 l -1.70312,-1.10938 q 3.26562,-3.9375 4.375,-8.90625 z m 12.76562,3.78125 v -1.625 h 16.54688 v 1.625 z m 30.13281,-5.48437 q 3.71875,4.67187 5.26563,9.875 l -2,0.65625 q -1.85938,-5.85938 -4.82813,-9.34375 z m -5.64062,1.70312 q 0.59375,0.375 -0.14063,0.67188 -1.34375,4.67187 -4.3125,8.53125 l -1.70312,-1.10938 q 3.26562,-3.9375 4.375,-8.90625 z m 8.90625,-5.78125 q 0.96875,0.8125 2.375,2.29688 l -0.96875,0.89062 q -1.32813,-1.48437 -2.375,-2.375 z m -1.78125,1.10938 q 1.10937,1.03125 2.375,2.51562 l -1.10938,0.82813 q -1.10937,-1.48438 -2.29687,-2.53125 z m 5.85937,9.125 q 7.79688,-3.26563 11.8125,-9.20313 l 1.40625,1.1875 q 0.59375,0.45313 -0.51562,0.67188 -1.42188,1.85937 -3.64063,3.78125 v 10.09375 h -1.70312 v -8.6875 q -2.60938,2.01562 -6.09375,3.64062 z m 27.98828,-4.45313 h 4.375 v 1.64063 h -4.29687 v 1.40625 q 0,5.5625 -5.875,7.9375 l -1.1875,-1.32813 q 5.34375,-1.78125 5.34375,-6.46875 v -1.54687 h -4.89063 l 0.0781,3.78125 h -1.64063 l -0.0781,-3.78125 h -4.15625 v -1.64063 h 4.15625 l -0.0625,-3.9375 h 1.54687 q 0.75,0.0781 0.0781,0.75 l 0.0781,3.1875 h 4.82813 v -4.53125 h 1.625 q 0.75,0.0781 0.0781,0.75 z m 1.32813,-4.89062 q 1.1875,1.03125 2.375,2.4375 l -0.95313,0.82812 q -1.1875,-1.48437 -2.23437,-2.375 z m 1.42187,-1.26563 q 1.25,1.03125 2.375,2.45313 l -0.96875,0.8125 q -1.10937,-1.48438 -2.23437,-2.375 z m 13.0625,5.5625 q -1.26562,7.42188 -3.04687,9.20313 -0.96875,0.96875 -2,0.96875 -1.1875,0 -1.85938,-0.67188 -1.78125,-1.78125 -1.78125,-4.45312 0,-3.26563 2.29688,-5.5625 2.53125,-2.53125 6.15625,-2.53125 3.26562,0 5.125,1.85937 2.07812,2.07813 2.07812,4.90625 0,3.03125 -1.92187,4.96875 -1.26563,1.26563 -3.85938,2.45313 l -1.5625,-1.5625 q 2.59375,-0.8125 4.07813,-2.29688 1.40625,-1.42187 1.40625,-3.42187 0,-2.375 -1.54688,-3.9375 -1.5625,-1.54688 -4.90625,-1.40625 l 1.34375,0.67187 q 0.89063,0.375 0,0.8125 z m -1.71875,-1.40625 q -1.92187,0.4375 -3.32812,1.85938 -1.9375,1.92187 -1.9375,4.75 0,1.70312 1.10937,2.8125 0.23438,0.21875 0.67188,0.21875 0.45312,0 0.96875,-0.51563 1.70312,-1.70312 2.51562,-9.125 z m 10.98438,4.45313 q 2.67187,-2.67188 3.64062,-7.9375 l 1.5625,0.4375 q 0.29688,0.29687 -0.21875,0.375 -0.89062,3.10937 -1.1875,3.9375 l 0.29688,0.0625 q 0.21875,0.23437 -0.15625,0.45312 v 11.57813 h -1.48438 v -9.42188 q -0.8125,1.1875 -1.625,1.92188 z m 4.23437,3.10937 q 2.29688,-2.375 2.75,-8.23437 h -1.5625 v -1.40625 h 6.60938 v 1.40625 h -3.64063 l -0.29687,2.375 h 3.125 v 1.78125 q 0,6.39062 -5.125,9.79687 l -0.89063,-1.32812 q 2.59375,-1.64063 3.78125,-4.53125 -1.10937,-0.96875 -2,-1.34375 -0.67187,1.42187 -1.70312,2.75 z m 3.1875,-2.8125 q 1.125,0.375 2.01563,1.10938 0.35937,-1.32813 0.35937,-2.75 h -1.92187 q -0.0781,0.67187 -0.45313,1.64062 z m 7.5,6.96875 q 0.29688,0 0.29688,-0.29687 v -14.17188 h 1.40625 q 0.59375,0.0781 0.0781,0.45313 v 14.39062 q 0,1.04688 -0.96875,1.04688 h -2 l -0.14062,-1.42188 z m -1.10937,-2.59375 h -1.48438 v -9.875 h 1.40625 q 0.59375,0.0781 0.0781,0.45313 z"
       fill-rule="nonzero"
       id="path69" />
    <path
       fill="#000000"
       d="m 660.9076,217.44426 q 1,0 1.96875,0.53125 0.96875,0.51563 1.5,1.48438 0.53125,0.96875 0.53125,2 0,1.67187 -1.17188,2.84375 -1.17187,1.17187 -2.82812,1.17187 -1.67188,0 -2.84375,-1.17187 -1.17188,-1.17188 -1.17188,-2.84375 0,-1.04688 0.53125,-2 0.54688,-0.96875 1.5,-1.48438 0.96875,-0.53125 1.98438,-0.53125 z"
       fill-rule="nonzero"
       id="path71" />
    <path
       fill="#000000"
       d="m 695.78546,226.72551 -5.17188,-13.35937 h 1.92188 l 3.46875,9.70312 q 0.42187,1.17188 0.70312,2.1875 0.3125,-1.09375 0.71875,-2.1875 l 3.60938,-9.70312 h 1.79687 l -5.23437,13.35937 z m 8.58417,0 v -13.35937 h 2.65625 l 3.15625,9.45312 q 0.4375,1.32813 0.64062,1.98438 0.23438,-0.73438 0.70313,-2.14063 l 3.20312,-9.29687 h 2.375 v 13.35937 h -1.70312 v -11.17187 l -3.875,11.17187 h -1.59375 l -3.85938,-11.375 v 11.375 z m 17.91583,0 -3.53125,-13.35937 h 1.8125 l 2.03125,8.76562 q 0.32813,1.375 0.5625,2.71875 0.5,-2.14062 0.59375,-2.46875 l 2.54688,-9.01562 h 2.125 l 1.92187,6.76562 q 0.71875,2.51563 1.03125,4.71875 0.26563,-1.26562 0.67188,-2.89062 l 2.09375,-8.59375 h 1.78125 l -3.67188,13.35937 h -1.70312 l -2.8125,-10.17187 q -0.35938,-1.28125 -0.42188,-1.5625 -0.20312,0.90625 -0.39062,1.5625 l -2.82813,10.17187 z m 20.69721,-1.1875 q -0.92188,0.76563 -1.76563,1.09375 -0.82812,0.3125 -1.79687,0.3125 -1.59375,0 -2.45313,-0.78125 -0.85937,-0.78125 -0.85937,-1.98437 0,-0.71875 0.32812,-1.29688 0.32813,-0.59375 0.84375,-0.9375 0.53125,-0.35937 1.1875,-0.54687 0.46875,-0.125 1.45313,-0.25 1.98437,-0.23438 2.92187,-0.5625 0.0156,-0.34375 0.0156,-0.42188 0,-1 -0.46875,-1.42187 -0.625,-0.54688 -1.875,-0.54688 -1.15625,0 -1.70313,0.40625 -0.54687,0.40625 -0.8125,1.42188 l -1.60937,-0.21875 q 0.21875,-1.01563 0.71875,-1.64063 0.5,-0.64062 1.45312,-0.98437 0.95313,-0.34375 2.1875,-0.34375 1.25,0 2.01563,0.29687 0.78125,0.28125 1.14062,0.73438 0.375,0.4375 0.51563,1.10937 0.0781,0.42188 0.0781,1.51563 v 2.1875 q 0,2.28125 0.10938,2.89062 0.10937,0.59375 0.40625,1.15625 h -1.70313 q -0.26562,-0.51562 -0.32812,-1.1875 z m -0.14063,-3.67187 q -0.89062,0.375 -2.67187,0.625 -1.01563,0.14062 -1.4375,0.32812 -0.42188,0.1875 -0.65625,0.53125 -0.21875,0.34375 -0.21875,0.78125 0,0.65625 0.5,1.09375 0.5,0.4375 1.45312,0.4375 0.9375,0 1.67188,-0.40625 0.75,-0.42187 1.09375,-1.14062 0.26562,-0.5625 0.26562,-1.64063 z m 4.18817,4.85937 v -9.67187 h 1.46875 v 1.46875 q 0.5625,-1.03125 1.03125,-1.35938 0.48438,-0.32812 1.0625,-0.32812 0.82813,0 1.6875,0.53125 l -0.5625,1.51562 q -0.60937,-0.35937 -1.20312,-0.35937 -0.54688,0 -0.96875,0.32812 -0.42188,0.32813 -0.60938,0.89063 -0.28125,0.875 -0.28125,1.92187 v 5.0625 z m 12.85333,-3.10937 1.6875,0.20312 q -0.40625,1.48438 -1.48437,2.3125 -1.07813,0.8125 -2.76563,0.8125 -2.125,0 -3.375,-1.29687 -1.23437,-1.3125 -1.23437,-3.67188 0,-2.45312 1.25,-3.79687 1.26562,-1.34375 3.26562,-1.34375 1.9375,0 3.15625,1.32812 1.23438,1.3125 1.23438,3.70313 0,0.15625 0,0.4375 h -7.21875 q 0.0937,1.59375 0.90625,2.45312 0.8125,0.84375 2.01562,0.84375 0.90625,0 1.54688,-0.46875 0.64062,-0.48437 1.01562,-1.51562 z m -5.39062,-2.65625 h 5.40625 q -0.10938,-1.21875 -0.625,-1.82813 -0.78125,-0.95312 -2.03125,-0.95312 -1.125,0 -1.90625,0.76562 -0.76563,0.75 -0.84375,2.01563 z m 14.55902,5.76562 v -13.35937 h 9.65625 v 1.57812 h -7.875 v 4.09375 h 7.375 v 1.5625 h -7.375 v 4.54688 h 8.1875 v 1.57812 z m 11.81854,-4.29687 1.65625,-0.14063 q 0.125,1 0.54688,1.64063 0.4375,0.64062 1.34375,1.04687 0.92187,0.39063 2.0625,0.39063 1,0 1.78125,-0.29688 0.78125,-0.29687 1.15625,-0.8125 0.375,-0.53125 0.375,-1.15625 0,-0.625 -0.375,-1.09375 -0.35938,-0.46875 -1.1875,-0.79687 -0.54688,-0.20313 -2.39063,-0.64063 -1.82812,-0.45312 -2.5625,-0.84375 -0.96875,-0.5 -1.4375,-1.23437 -0.46875,-0.75 -0.46875,-1.67188 0,-1 0.57813,-1.875 0.57812,-0.89062 1.67187,-1.34375 1.10938,-0.45312 2.45313,-0.45312 1.48437,0 2.60937,0.48437 1.14063,0.46875 1.75,1.40625 0.60938,0.92188 0.65625,2.09375 l -1.6875,0.125 q -0.14062,-1.26562 -0.9375,-1.90625 -0.78125,-0.65625 -2.3125,-0.65625 -1.60937,0 -2.34375,0.59375 -0.73437,0.59375 -0.73437,1.42188 0,0.71875 0.53125,1.17187 0.5,0.46875 2.65625,0.96875 2.15625,0.48438 2.95312,0.84375 1.17188,0.53125 1.71875,1.35938 0.5625,0.82812 0.5625,1.90625 0,1.0625 -0.60937,2.01562 -0.60938,0.9375 -1.75,1.46875 -1.14063,0.51563 -2.57813,0.51563 -1.8125,0 -3.04687,-0.53125 -1.21875,-0.53125 -1.92188,-1.59375 -0.6875,-1.0625 -0.71875,-2.40625 z m 11.67798,4.29687 5.17188,-6.95312 -4.5625,-6.40625 h 2.10937 l 2.42188,3.4375 q 0.75,1.0625 1.07812,1.625 0.4375,-0.71875 1.04688,-1.51563 l 2.6875,-3.54687 h 1.92187 l -4.6875,6.29687 5.0625,7.0625 h -2.1875 l -3.35937,-4.76562 q -0.28125,-0.40625 -0.59375,-0.89063 -0.4375,0.73438 -0.625,1 l -3.35938,4.65625 z m 13.59979,-11.46875 v -1.89062 h 1.64063 v 1.89062 z m 0,11.46875 v -9.67187 h 1.64063 v 9.67187 z"
       fill-rule="nonzero"
       id="path73" />
    <path
       fill="#000000"
       d="m 660.9076,239.84425 q 1,0 1.96875,0.53125 0.96875,0.51562 1.5,1.48437 0.53125,0.96875 0.53125,2 0,1.67188 -1.17188,2.84375 -1.17187,1.17188 -2.82812,1.17188 -1.67188,0 -2.84375,-1.17188 -1.17188,-1.17187 -1.17188,-2.84375 0,-1.04687 0.53125,-2 0.54688,-0.96875 1.5,-1.48437 0.96875,-0.53125 1.98438,-0.53125 z"
       fill-rule="nonzero"
       id="path75" />
    <path
       fill="#000000"
       d="m 691.97296,249.1255 v -13.35938 h 5.04687 q 1.32813,0 2.03125,0.125 0.96875,0.17188 1.64063,0.64063 0.67187,0.45312 1.07812,1.28125 0.40625,0.82812 0.40625,1.82812 0,1.70313 -1.09375,2.89063 -1.07812,1.17187 -3.92187,1.17187 h -3.42188 v 5.42188 z m 1.76562,-7 h 3.45313 q 1.71875,0 2.4375,-0.64063 0.71875,-0.64062 0.71875,-1.79687 0,-0.84375 -0.42188,-1.4375 -0.42187,-0.59375 -1.125,-0.78125 -0.4375,-0.125 -1.64062,-0.125 h -3.42188 z m 10.45917,7 v -9.67188 h 1.46875 v 1.46875 q 0.5625,-1.03125 1.03125,-1.35937 0.48438,-0.32813 1.0625,-0.32813 0.82813,0 1.6875,0.53125 l -0.5625,1.51563 q -0.60937,-0.35938 -1.20312,-0.35938 -0.54688,0 -0.96875,0.32813 -0.42188,0.32812 -0.60938,0.89062 -0.28125,0.875 -0.28125,1.92188 v 5.0625 z m 5.61896,-4.84375 q 0,-2.6875 1.48437,-3.96875 1.25,-1.07813 3.04688,-1.07813 2,0 3.26562,1.3125 1.26563,1.29688 1.26563,3.60938 0,1.85937 -0.5625,2.9375 -0.5625,1.0625 -1.64063,1.65625 -1.0625,0.59375 -2.32812,0.59375 -2.03125,0 -3.28125,-1.29688 -1.25,-1.3125 -1.25,-3.76562 z m 1.6875,0 q 0,1.85937 0.79687,2.79687 0.8125,0.92188 2.04688,0.92188 1.21875,0 2.03125,-0.92188 0.8125,-0.9375 0.8125,-2.84375 0,-1.79687 -0.8125,-2.71875 -0.8125,-0.92187 -2.03125,-0.92187 -1.23438,0 -2.04688,0.92187 -0.79687,0.90625 -0.79687,2.76563 z m 8.2038,4.84375 3.53125,-5.03125 -3.26563,-4.64063 h 2.04688 l 1.48437,2.26563 q 0.42188,0.64062 0.67188,1.07812 0.40625,-0.59375 0.73437,-1.0625 l 1.64063,-2.28125 h 1.95312 l -3.34375,4.54688 3.59375,5.125 h -2.01562 l -1.98438,-3 -0.51562,-0.8125 -2.54688,3.8125 z m 10.42187,0 v -9.67188 h 1.46875 v 1.35938 q 0.45313,-0.71875 1.20313,-1.14063 0.76562,-0.4375 1.71875,-0.4375 1.07812,0 1.76562,0.45313 0.6875,0.4375 0.96875,1.23437 1.15625,-1.6875 2.98438,-1.6875 1.45312,0 2.21875,0.79688 0.78125,0.79687 0.78125,2.45312 v 6.64063 h -1.64063 v -6.09375 q 0,-0.98438 -0.15625,-1.40625 -0.15625,-0.4375 -0.57812,-0.70313 -0.42188,-0.26562 -0.98438,-0.26562 -1.01562,0 -1.6875,0.6875 -0.67187,0.67187 -0.67187,2.15625 v 5.625 h -1.64063 v -6.28125 q 0,-1.09375 -0.40625,-1.64063 -0.40625,-0.54687 -1.3125,-0.54687 -0.6875,0 -1.28125,0.35937 -0.59375,0.35938 -0.85937,1.0625 -0.25,0.70313 -0.25,2.03125 v 5.01563 z m 14.93146,-4.84375 q 0,-2.6875 1.48437,-3.96875 1.25,-1.07813 3.04688,-1.07813 2,0 3.26562,1.3125 1.26563,1.29688 1.26563,3.60938 0,1.85937 -0.5625,2.9375 -0.5625,1.0625 -1.64063,1.65625 -1.0625,0.59375 -2.32812,0.59375 -2.03125,0 -3.28125,-1.29688 -1.25,-1.3125 -1.25,-3.76562 z m 1.6875,0 q 0,1.85937 0.79687,2.79687 0.8125,0.92188 2.04688,0.92188 1.21875,0 2.03125,-0.92188 0.8125,-0.9375 0.8125,-2.84375 0,-1.79687 -0.8125,-2.71875 -0.8125,-0.92187 -2.03125,-0.92187 -1.23438,0 -2.04688,0.92187 -0.79687,0.90625 -0.79687,2.76563 z m 8.20386,4.84375 3.53125,-5.03125 -3.26563,-4.64063 h 2.04688 l 1.48437,2.26563 q 0.42188,0.64062 0.67188,1.07812 0.40625,-0.59375 0.73437,-1.0625 l 1.64063,-2.28125 h 1.95312 l -3.34375,4.54688 3.59375,5.125 h -2.01562 l -1.98438,-3 -0.51562,-0.8125 -2.54688,3.8125 z"
       fill-rule="nonzero"
       id="path77" />
  </g>
</svg>
