<?xml version="1.0" encoding="UTF-8" standalone="no"?>
<svg
   version="1.1"
   viewBox="0.0 0.0 960.0 540.0"
   fill="none"
   stroke="none"
   stroke-linecap="square"
   stroke-miterlimit="10"
   id="svg123"
   sodipodi:docname="config_ver0.svg"
   inkscape:version="1.2.1 (9c6d41e410, 2022-07-14)"
   xmlns:inkscape="http://www.inkscape.org/namespaces/inkscape"
   xmlns:sodipodi="http://sodipodi.sourceforge.net/DTD/sodipodi-0.dtd"
   xmlns="http://www.w3.org/2000/svg"
   xmlns:svg="http://www.w3.org/2000/svg">
  <defs
     id="defs127" />
  <sodipodi:namedview
     id="namedview125"
     pagecolor="#ffffff"
     bordercolor="#000000"
     borderopacity="0.25"
     inkscape:showpageshadow="2"
     inkscape:pageopacity="0.0"
     inkscape:pagecheckerboard="0"
     inkscape:deskcolor="#d1d1d1"
     showgrid="false"
     inkscape:zoom="1.325"
     inkscape:cx="480.37736"
     inkscape:cy="270.18868"
     inkscape:window-width="1858"
     inkscape:window-height="1057"
     inkscape:window-x="-8"
     inkscape:window-y="-8"
     inkscape:window-maximized="1"
     inkscape:current-layer="svg123" />
  <clipPath
     id="g1463da1a842_0_22.0">
    <path
       d="m0 0l960.0 0l0 540.0l-960.0 0l0 -540.0z"
       clip-rule="nonzero"
       id="path2" />
  </clipPath>
  <g
     clip-path="url(#g1463da1a842_0_22.0)"
     id="g121"
     transform="matrix(1.3143316,0,0,1.3143316,-150.7874,-84.86952)">
    <path
       fill="#ffffff"
       d="M 308.9009,244.38058 H 464.208 v 31.05511 H 308.9009 Z"
       fill-rule="evenodd"
       id="path7" />
    <path
       stroke="#595959"
       stroke-width="1"
       stroke-linejoin="round"
       stroke-linecap="butt"
       d="M 308.9009,244.38058 H 464.208 v 31.05511 H 308.9009 Z"
       fill-rule="evenodd"
       id="path9" />
    <path
       fill="#000000"
       d="m 367.6951,263.285 q 2.57813,-1 4.73438,-3.98437 l 0.82812,1.10937 q -2.23437,3.04688 -5.625,4.40625 l -0.46875,0.23438 -0.9375,-0.70313 0.10938,-0.29687 v -9.43749 h 1.23437 q 0.53125,0.125 0.125,0.46875 z m -7.85937,1.57813 q 2.9375,-2.8125 2.9375,-6.96875 v -2.64061 h 1.21875 q 0.53125,0.125 0.125,0.46875 v 2.10936 q 0,4.92187 -3.10938,7.79687 z m 14.76562,-4.6875 v -1.28125 h 13.0625 v 1.28125 z m 19.46094,-6.09374 q -0.23438,0.70313 -0.59375,1.35938 h 3.92187 l 0.65625,-0.23438 0.75,0.75 q 0.23438,0.29686 -0.23437,0.46874 -0.46875,2.34375 -1.40625,4.28125 l 1.40625,0.9375 -0.875,1.29687 -1.28125,-0.9375 q -1.70313,2.45313 -4.875,4.04688 l -1.34375,-1 q 3.51562,-1.46875 5.04687,-3.875 -1.46875,-0.9375 -2.875,-1.70313 l 0.70313,-1.04687 q 1.8125,0.8125 2.98437,1.51562 0.875,-1.8125 1.0625,-3.21875 h -4.28125 q -1.10937,2 -2.75,3.64063 l -1.125,-0.76563 q 3,-3.10937 3.9375,-6.56248 l 1.40625,0.57812 q 0.46875,0.23438 -0.23437,0.46875 z m 6.4375,6.09374 v -1.28125 h 13.0625 v 1.28125 z"
       fill-rule="nonzero"
       id="path11" />
    <path
       fill="#ffffff"
       d="m 302.6962,255.95538 h 6.20471 v 7.90552 h -6.20471 z"
       fill-rule="evenodd"
       id="path13" />
    <path
       stroke="#595959"
       stroke-width="1"
       stroke-linejoin="round"
       stroke-linecap="butt"
       d="m 302.6962,255.95538 h 6.20471 v 7.90552 h -6.20471 z"
       fill-rule="evenodd"
       id="path15" />
    <path
       fill="#ffffff"
       d="m 464.208,255.95538 h 6.20474 v 7.90552 H 464.208 Z"
       fill-rule="evenodd"
       id="path17" />
    <path
       stroke="#595959"
       stroke-width="1"
       stroke-linejoin="round"
       stroke-linecap="butt"
       d="m 464.208,255.95538 h 6.20474 v 7.90552 H 464.208 Z"
       fill-rule="evenodd"
       id="path19" />
    <path
       fill="#000000"
       fill-opacity="0"
       d="M 562.4547,131.07086 V 444.48819"
       fill-rule="evenodd"
       id="path21" />
    <path
       stroke="#595959"
       stroke-width="3"
       stroke-linejoin="round"
       stroke-linecap="butt"
       d="M 562.4547,131.07086 V 444.48819"
       fill-rule="evenodd"
       id="path23" />
    <path
       fill="#000000"
       fill-opacity="0"
       d="m 508.25,95.51181 h 108.40949 v 35.55905 H 508.25 Z"
       fill-rule="evenodd"
       id="path25" />
    <path
       fill="#000000"
       d="m 530.3676,117.31181 h -1.17187 v -7.46875 q -0.42188,0.40625 -1.10938,0.8125 -0.6875,0.40625 -1.23437,0.60937 v -1.14062 q 0.98437,-0.45313 1.71875,-1.10938 0.73437,-0.67187 1.03125,-1.28125 h 0.76562 z m 2.9906,-4.70313 q 0,-1.6875 0.34375,-2.71875 0.35938,-1.03125 1.04688,-1.59375 0.6875,-0.5625 1.71875,-0.5625 0.78125,0 1.35937,0.3125 0.57813,0.29688 0.95313,0.89063 0.375,0.57812 0.59375,1.42187 0.21875,0.82813 0.21875,2.25 0,1.67188 -0.35938,2.70313 -0.34375,1.03125 -1.03125,1.59375 -0.67187,0.5625 -1.73437,0.5625 -1.375,0 -2.15625,-0.98438 -0.95313,-1.1875 -0.95313,-3.875 z m 1.20313,0 q 0,2.34375 0.54687,3.125 0.5625,0.78125 1.35938,0.78125 0.8125,0 1.35937,-0.78125 0.5625,-0.78125 0.5625,-3.125 0,-2.35937 -0.5625,-3.125 -0.54687,-0.78125 -1.35937,-0.78125 -0.8125,0 -1.29688,0.6875 -0.60937,0.875 -0.60937,3.21875 z m 6.8656,4.70313 v -1.32813 h 1.34375 v 1.32813 z m 7.46862,0 h -1.17187 v -7.46875 q -0.42188,0.40625 -1.10938,0.8125 -0.6875,0.40625 -1.23437,0.60937 v -1.14062 q 0.98437,-0.45313 1.71875,-1.10938 0.73437,-0.67187 1.03125,-1.28125 h 0.76562 z m 3.64685,0 v -1.32813 h 1.34375 v 1.32813 z m 9.20295,-1.125 v 1.125 h -6.29688 q -0.0156,-0.42188 0.14063,-0.8125 0.23437,-0.64063 0.76562,-1.26563 0.53125,-0.625 1.53125,-1.45312 1.5625,-1.26563 2.10938,-2.01563 0.54687,-0.75 0.54687,-1.40625 0,-0.70312 -0.5,-1.17187 -0.5,-0.48438 -1.29687,-0.48438 -0.85938,0 -1.375,0.51563 -0.5,0.5 -0.5,1.39062 l -1.20313,-0.10937 q 0.125,-1.35938 0.92188,-2.0625 0.8125,-0.70313 2.17187,-0.70313 1.375,0 2.17188,0.76563 0.8125,0.75 0.8125,1.875 0,0.57812 -0.23438,1.14062 -0.23437,0.54688 -0.78125,1.15625 -0.54687,0.60938 -1.8125,1.67188 -1.04687,0.89062 -1.35937,1.21875 -0.29688,0.3125 -0.48438,0.625 z m 1.25622,-3.57813 q 0,-1.6875 0.34375,-2.71875 0.35938,-1.03125 1.04688,-1.59375 0.6875,-0.5625 1.71875,-0.5625 0.78125,0 1.35937,0.3125 0.57813,0.29688 0.95313,0.89063 0.375,0.57812 0.59375,1.42187 0.21875,0.82813 0.21875,2.25 0,1.67188 -0.35938,2.70313 -0.34375,1.03125 -1.03125,1.59375 -0.67187,0.5625 -1.73437,0.5625 -1.375,0 -2.15625,-0.98438 -0.95313,-1.1875 -0.95313,-3.875 z m 1.20313,0 q 0,2.34375 0.54687,3.125 0.5625,0.78125 1.35938,0.78125 0.8125,0 1.35937,-0.78125 0.5625,-0.78125 0.5625,-3.125 0,-2.35937 -0.5625,-3.125 -0.54687,-0.78125 -1.35937,-0.78125 -0.8125,0 -1.29688,0.6875 -0.60937,0.875 -0.60937,3.21875 z m 6.8656,4.70313 v -1.32813 h 1.34375 v 1.32813 z m 3.04675,-4.70313 q 0,-1.6875 0.34375,-2.71875 0.35938,-1.03125 1.04688,-1.59375 0.6875,-0.5625 1.71875,-0.5625 0.78125,0 1.35937,0.3125 0.57813,0.29688 0.95313,0.89063 0.375,0.57812 0.59375,1.42187 0.21875,0.82813 0.21875,2.25 0,1.67188 -0.35938,2.70313 -0.34375,1.03125 -1.03125,1.59375 -0.67187,0.5625 -1.73437,0.5625 -1.375,0 -2.15625,-0.98438 -0.95313,-1.1875 -0.95313,-3.875 z m 1.20313,0 q 0,2.34375 0.54687,3.125 0.5625,0.78125 1.35938,0.78125 0.8125,0 1.35937,-0.78125 0.5625,-0.78125 0.5625,-3.125 0,-2.35937 -0.5625,-3.125 -0.54687,-0.78125 -1.35937,-0.78125 -0.8125,0 -1.29688,0.6875 -0.60937,0.875 -0.60937,3.21875 z m 5.66247,4.85938 2.76563,-9.85938 h 0.9375 l -2.76563,9.85938 z m 10.40613,-1.28125 v 1.125 h -6.29688 q -0.0156,-0.42188 0.14063,-0.8125 0.23437,-0.64063 0.76562,-1.26563 0.53125,-0.625 1.53125,-1.45312 1.5625,-1.26563 2.10938,-2.01563 0.54687,-0.75 0.54687,-1.40625 0,-0.70312 -0.5,-1.17187 -0.5,-0.48438 -1.29687,-0.48438 -0.85938,0 -1.375,0.51563 -0.5,0.5 -0.5,1.39062 l -1.20313,-0.10937 q 0.125,-1.35938 0.92188,-2.0625 0.8125,-0.70313 2.17187,-0.70313 1.375,0 2.17188,0.76563 0.8125,0.75 0.8125,1.875 0,0.57812 -0.23438,1.14062 -0.23437,0.54688 -0.78125,1.15625 -0.54687,0.60938 -1.8125,1.67188 -1.04687,0.89062 -1.35937,1.21875 -0.29688,0.3125 -0.48438,0.625 z m 5.02185,1.125 v -2.28125 h -4.14062 v -1.07813 l 4.34375,-6.1875 h 0.96875 v 6.1875 h 1.28125 v 1.07813 h -1.28125 v 2.28125 z m 0,-3.35938 v -4.29687 l -2.98437,4.29687 z"
       fill-rule="nonzero"
       id="path27" />
    <path
       fill="#000000"
       fill-opacity="0"
       d="m 235.4836,259.90814 h 67.2126"
       fill-rule="evenodd"
       id="path29" />
    <path
       stroke="#595959"
       stroke-width="1"
       stroke-linejoin="round"
       stroke-linecap="butt"
       d="m 235.4836,259.90814 h 67.2126"
       fill-rule="evenodd"
       id="path31" />
    <path
       fill="#000000"
       fill-opacity="0"
       d="m 470.41275,259.90814 h 90.92911"
       fill-rule="evenodd"
       id="path33" />
    <path
       stroke="#595959"
       stroke-width="1"
       stroke-linejoin="round"
       stroke-linecap="butt"
       d="m 470.41275,259.90814 h 90.92911"
       fill-rule="evenodd"
       id="path35" />
    <path
       fill="#000000"
       fill-opacity="0"
       d="m 410.74606,275.4357 h 108.40945 v 35.55905 H 410.74606 Z"
       fill-rule="evenodd"
       id="path37" />
    <path
       fill="#000000"
       d="m 442.12762,297.2357 h -1.17188 v -7.46875 q -0.42187,0.40625 -1.10937,0.8125 -0.6875,0.40625 -1.23438,0.60937 v -1.14062 q 0.98438,-0.45313 1.71875,-1.10938 0.73438,-0.67187 1.03125,-1.28125 h 0.76563 z m 2.9906,-4.70313 q 0,-1.6875 0.34375,-2.71875 0.35938,-1.03125 1.04688,-1.59375 0.6875,-0.5625 1.71875,-0.5625 0.78125,0 1.35937,0.3125 0.57813,0.29688 0.95313,0.89063 0.375,0.57812 0.59375,1.42187 0.21875,0.82813 0.21875,2.25 0,1.67188 -0.35938,2.70313 -0.34375,1.03125 -1.03125,1.59375 -0.67187,0.5625 -1.73437,0.5625 -1.375,0 -2.15625,-0.98438 -0.95313,-1.1875 -0.95313,-3.875 z m 1.20313,0 q 0,2.34375 0.54687,3.125 0.5625,0.78125 1.35938,0.78125 0.8125,0 1.35937,-0.78125 0.5625,-0.78125 0.5625,-3.125 0,-2.35937 -0.5625,-3.125 -0.54687,-0.78125 -1.35937,-0.78125 -0.8125,0 -1.29688,0.6875 -0.60937,0.875 -0.60937,3.21875 z m 6.8656,4.70313 v -1.32813 h 1.34375 v 1.32813 z m 7.46862,0 h -1.17187 v -7.46875 q -0.42188,0.40625 -1.10938,0.8125 -0.6875,0.40625 -1.23437,0.60937 v -1.14062 q 0.98437,-0.45313 1.71875,-1.10938 0.73437,-0.67187 1.03125,-1.28125 h 0.76562 z m 3.64685,0 v -1.32813 h 1.34375 v 1.32813 z m 9.20298,-1.125 v 1.125 h -6.29688 q -0.0156,-0.42188 0.14063,-0.8125 0.23437,-0.64063 0.76562,-1.26563 0.53125,-0.625 1.53125,-1.45312 1.5625,-1.26563 2.10938,-2.01563 0.54687,-0.75 0.54687,-1.40625 0,-0.70312 -0.5,-1.17187 -0.5,-0.48438 -1.29687,-0.48438 -0.85938,0 -1.375,0.51563 -0.5,0.5 -0.5,1.39062 l -1.20313,-0.10937 q 0.125,-1.35938 0.92188,-2.0625 0.8125,-0.70313 2.17187,-0.70313 1.375,0 2.17188,0.76563 0.8125,0.75 0.8125,1.875 0,0.57812 -0.23438,1.14062 -0.23437,0.54688 -0.78125,1.15625 -0.54687,0.60938 -1.8125,1.67188 -1.04687,0.89062 -1.35937,1.21875 -0.29688,0.3125 -0.48438,0.625 z m 1.25622,-3.57813 q 0,-1.6875 0.34375,-2.71875 0.35938,-1.03125 1.04688,-1.59375 0.6875,-0.5625 1.71875,-0.5625 0.78125,0 1.35937,0.3125 0.57813,0.29688 0.95313,0.89063 0.375,0.57812 0.59375,1.42187 0.21875,0.82813 0.21875,2.25 0,1.67188 -0.35938,2.70313 -0.34375,1.03125 -1.03125,1.59375 -0.67187,0.5625 -1.73437,0.5625 -1.375,0 -2.15625,-0.98438 -0.95313,-1.1875 -0.95313,-3.875 z m 1.20313,0 q 0,2.34375 0.54687,3.125 0.5625,0.78125 1.35938,0.78125 0.8125,0 1.35937,-0.78125 0.5625,-0.78125 0.5625,-3.125 0,-2.35937 -0.5625,-3.125 -0.54687,-0.78125 -1.35937,-0.78125 -0.8125,0 -1.29688,0.6875 -0.60937,0.875 -0.60937,3.21875 z m 6.8656,4.70313 v -1.32813 h 1.34375 v 1.32813 z m 7.46863,0 h -1.17188 v -7.46875 q -0.42187,0.40625 -1.10937,0.8125 -0.6875,0.40625 -1.23438,0.60937 v -1.14062 q 0.98438,-0.45313 1.71875,-1.10938 0.73438,-0.67187 1.03125,-1.28125 h 0.76563 z"
       fill-rule="nonzero"
       id="path39" />
    <path
       fill="#000000"
       fill-opacity="0"
       d="m 256.76706,275.4357 h 108.40945 v 35.55905 H 256.76706 Z"
       fill-rule="evenodd"
       id="path41" />
    <path
       fill="#000000"
       d="m 283.15198,290.28256 q -0.96875,5.53125 -6.35938,7.92187 l -0.90625,-0.96875 q 4.96875,-2.03125 5.98438,-7.01562 h -4.0625 q -1.15625,1.9375 -2.4375,3.10937 l -1.01563,-0.67187 q 2.64063,-2.375 3.40625,-5.57813 l 1.17188,0.40625 q 0.29687,0.15625 -0.10938,0.29688 -0.20312,0.67187 -0.54687,1.32812 h 3.65625 l 0.45312,-0.25 0.90625,0.90625 q 0.35938,0.35938 -0.14062,0.51563 z m 0.29687,-1.21875 q -0.8125,-1.17188 -1.57812,-1.78125 l 0.67187,-0.5625 q 0.85938,0.76562 1.625,1.78125 z m 1.46875,-0.60938 q -0.8125,-1.01562 -1.46875,-1.625 l 0.60938,-0.60937 q 0.76562,0.70312 1.46875,1.625 z m 10.56641,7.92188 h -1.17187 v -0.5625 h -5.625 v 0.8125 h -1.17188 v -7.92188 h 7.96875 z m -6.79687,-6.5625 v 4.875 h 5.625 v -4.875 z m 9.08203,3.25 v -1.10938 h 11.32812 v 1.10938 z m 20.61719,-3.75 q 2.54687,3.20312 3.60937,6.75 l -1.375,0.45312 q -1.26562,-4 -3.29687,-6.39062 z m -3.85938,1.17187 q 0.40625,0.25 -0.0937,0.45313 -0.92187,3.20312 -2.95312,5.84375 l -1.17188,-0.76563 q 2.23438,-2.6875 3,-6.09375 z m 6.09375,-3.96875 q 0.65625,0.5625 1.625,1.57813 l -0.65625,0.60937 q -0.92187,-1.01562 -1.625,-1.625 z m -1.21875,0.76563 q 0.76563,0.70312 1.625,1.71875 l -0.76562,0.5625 q -0.75,-1.01563 -1.5625,-1.71875 z m 10.875,8.48437 q 2.23438,-0.875 4.10938,-3.45312 l 0.70312,0.95312 q -1.92187,2.64063 -4.875,3.8125 l -0.40625,0.20313 -0.8125,-0.60938 0.10938,-0.25 v -8.17187 h 1.0625 q 0.45312,0.0937 0.10937,0.40625 z m -6.8125,1.35938 q 2.54688,-2.4375 2.54688,-6.03125 v -2.29688 h 1.0625 q 0.45312,0.10938 0.0937,0.40625 v 1.82813 q 0,4.26562 -2.6875,6.76562 z"
       fill-rule="nonzero"
       id="path43" />
    <path
       fill="#000000"
       d="m 336.90198,297.2357 v -9.54688 h 1.25 v 9.54688 z m 3.48425,0 v -9.54688 h 3.59375 q 0.95313,0 1.45313,0.0937 0.70312,0.125 1.17187,0.45313 0.48438,0.32812 0.76563,0.92187 0.29687,0.59375 0.29687,1.29688 0,1.21875 -0.78125,2.0625 -0.76562,0.84375 -2.79687,0.84375 h -2.4375 v 3.875 z m 1.26563,-5 h 2.45312 q 1.23438,0 1.75,-0.45313 0.51563,-0.46875 0.51563,-1.28125 0,-0.60937 -0.3125,-1.03125 -0.29688,-0.42187 -0.79688,-0.5625 -0.3125,-0.0937 -1.17187,-0.0937 h -2.4375 z"
       fill-rule="nonzero"
       id="path45" />
    <path
       fill="#ffffff"
       d="m 141.47299,251.11859 v 0 c -0.83321,-4.23656 1.90239,-8.43048 7.04594,-10.80215 5.14357,-2.37166 11.79305,-2.50513 17.1268,-0.34377 v 0 c 1.88939,-2.4633 5.34752,-4.16405 9.32836,-4.58778 3.98085,-0.42374 8.01686,0.47929 10.8872,2.43595 v 0 c 1.60952,-2.23339 4.76983,-3.73394 8.35949,-3.96919 3.58966,-0.23524 7.10063,0.82813 9.28708,2.81276 v 0 c 2.9078,-2.36738 7.53422,-3.36416 11.87735,-2.559 4.34314,0.80516 7.62292,3.26764 8.42018,6.3219 v 0 c 3.56256,0.67234 6.5301,2.38154 8.13591,4.68598 1.6058,2.30446 1.69235,4.97809 0.23726,7.33014 v 0 c 3.50808,3.15905 4.32872,7.36843 2.15564,11.0573 -2.17308,3.68887 -7.01339,6.30301 -12.71459,6.86685 -0.0402,3.46213 -2.78445,6.63895 -7.17505,8.30597 -4.39058,1.66699 -9.7419,1.56391 -13.99128,-0.26959 v 0 c -1.81002,4.14651 -6.90462,7.19748 -13.08274,7.83478 -6.17811,0.63727 -12.3322,-1.25336 -15.80348,-4.85511 v 0 c -4.25505,1.77533 -9.36075,2.28672 -14.16537,1.41889 -4.80463,-0.86786 -8.90345,-3.04187 -11.37185,-6.03162 v 0 c -4.34812,0.35205 -8.55217,-1.20663 -10.52566,-3.90246 -1.9735,-2.69586 -1.29636,-5.95499 1.69539,-8.15991 v 0 c -3.87865,-1.5795 -5.85777,-4.71375 -4.90534,-7.76838 0.95246,-3.05461 4.62062,-5.3374 9.09172,-5.65797 z"
       fill-rule="evenodd"
       id="path47" />
    <path
       fill="#000000"
       fill-opacity="0"
       d="m 137.20067,264.70822 v 0 c 1.83034,0.74536 3.94481,1.0835 6.05952,0.96896 m 2.76981,11.09369 c 0.90939,-0.0736 1.80078,-0.22955 2.65117,-0.46374 m 22.88478,5.07629 c -0.63962,-0.66363 -1.17514,-1.37283 -1.59743,-2.11542 m 30.48474,-0.86438 v 0 c 0.32999,-0.75598 0.5438,-1.53402 0.63785,-2.32119 m 20.52768,-5.71491 c 0.0428,-3.68597 -2.98305,-7.06088 -7.7778,-8.67511 m 18.33664,-9.24866 c -0.77649,1.25515 -1.9619,2.36858 -3.46327,3.25296 m -4.90917,-15.2694 v 0 c 0.13231,0.50685 0.19355,1.02133 0.18285,1.53628 M 203.508,236.66456 v 0 c -0.72536,0.59055 -1.32296,1.25048 -1.77419,1.95923 m -15.87253,-0.80305 v 0 c -0.38655,0.53639 -0.6752,1.10399 -0.85929,1.6897 m -19.35656,0.46217 v 0 c 1.12862,0.45735 2.17275,1.00781 3.10945,1.6393 m -27.28189,9.50668 v 0 c 0.11484,0.58391 0.2963,1.16061 0.54265,1.72473"
       fill-rule="evenodd"
       id="path49" />
    <path
       stroke="#595959"
       stroke-width="1"
       stroke-linejoin="round"
       stroke-linecap="butt"
       d="m 141.47299,251.11859 v 0 c -0.83321,-4.23656 1.90239,-8.43048 7.04594,-10.80215 5.14357,-2.37166 11.79305,-2.50513 17.1268,-0.34377 v 0 c 1.88939,-2.4633 5.34752,-4.16405 9.32836,-4.58778 3.98085,-0.42374 8.01686,0.47929 10.8872,2.43595 v 0 c 1.60952,-2.23339 4.76983,-3.73394 8.35949,-3.96919 3.58966,-0.23524 7.10063,0.82813 9.28708,2.81276 v 0 c 2.9078,-2.36738 7.53422,-3.36416 11.87735,-2.559 4.34314,0.80516 7.62292,3.26764 8.42018,6.3219 v 0 c 3.56256,0.67234 6.5301,2.38154 8.13591,4.68598 1.6058,2.30446 1.69235,4.97809 0.23726,7.33014 v 0 c 3.50808,3.15905 4.32872,7.36843 2.15564,11.0573 -2.17308,3.68887 -7.01339,6.30301 -12.71459,6.86685 -0.0402,3.46213 -2.78445,6.63895 -7.17505,8.30597 -4.39058,1.66699 -9.7419,1.56391 -13.99128,-0.26959 v 0 c -1.81002,4.14651 -6.90462,7.19748 -13.08274,7.83478 -6.17811,0.63727 -12.3322,-1.25336 -15.80348,-4.85511 v 0 c -4.25505,1.77533 -9.36075,2.28672 -14.16537,1.41889 -4.80463,-0.86786 -8.90345,-3.04187 -11.37185,-6.03162 v 0 c -4.34812,0.35205 -8.55217,-1.20663 -10.52566,-3.90246 -1.9735,-2.69586 -1.29636,-5.95499 1.69539,-8.15991 v 0 c -3.87865,-1.5795 -5.85777,-4.71375 -4.90534,-7.76838 0.95246,-3.05461 4.62062,-5.3374 9.09172,-5.65797 z"
       fill-rule="evenodd"
       id="path51" />
    <path
       stroke="#595959"
       stroke-width="1"
       stroke-linejoin="round"
       stroke-linecap="butt"
       d="m 137.20067,264.70822 v 0 c 1.83034,0.74536 3.94481,1.0835 6.05952,0.96896 m 2.76981,11.09369 c 0.90939,-0.0736 1.80078,-0.22955 2.65117,-0.46374 m 22.88478,5.07629 c -0.63962,-0.66363 -1.17514,-1.37283 -1.59743,-2.11542 m 30.48474,-0.86438 v 0 c 0.32999,-0.75598 0.5438,-1.53402 0.63785,-2.32119 m 20.52768,-5.71491 c 0.0428,-3.68597 -2.98305,-7.06088 -7.7778,-8.67511 m 18.33664,-9.24866 c -0.77649,1.25515 -1.9619,2.36858 -3.46327,3.25296 m -4.90917,-15.2694 v 0 c 0.13231,0.50685 0.19355,1.02133 0.18285,1.53628 M 203.508,236.66456 v 0 c -0.72536,0.59055 -1.32296,1.25048 -1.77419,1.95923 m -15.87253,-0.80305 v 0 c -0.38655,0.53639 -0.6752,1.10399 -0.85929,1.6897 m -19.35656,0.46217 v 0 c 1.12862,0.45735 2.17275,1.00781 3.10945,1.6393 m -27.28189,9.50668 v 0 c 0.11484,0.58391 0.2963,1.16061 0.54265,1.72473"
       fill-rule="evenodd"
       id="path53" />
    <path
       fill="#000000"
       d="m 156.63643,263.4915 v -9.54688 h 1.25 v 9.54688 z m 3.32799,0 v -6.90625 h 1.0625 v 0.98437 q 0.75,-1.14062 2.1875,-1.14062 0.625,0 1.15625,0.21875 0.53125,0.21875 0.78125,0.59375 0.26562,0.35937 0.375,0.85937 0.0625,0.32813 0.0625,1.14063 v 4.25 h -1.17188 v -4.20313 q 0,-0.71875 -0.14062,-1.0625 -0.14063,-0.35937 -0.48438,-0.5625 -0.34375,-0.21875 -0.8125,-0.21875 -0.75,0 -1.29687,0.46875 -0.54688,0.46875 -0.54688,1.79688 v 3.78125 z m 9.97497,-1.04688 0.17188,1.03125 q -0.5,0.10938 -0.89063,0.10938 -0.64062,0 -1,-0.20313 -0.34375,-0.20312 -0.48437,-0.53125 -0.14063,-0.32812 -0.14063,-1.39062 v -3.96875 h -0.85937 v -0.90625 h 0.85937 v -1.71875 l 1.17188,-0.70313 v 2.42188 h 1.17187 v 0.90625 h -1.17187 v 4.04687 q 0,0.5 0.0469,0.64063 0.0625,0.14062 0.20313,0.23437 0.14062,0.0781 0.40625,0.0781 0.20312,0 0.51562,-0.0469 z m 5.87487,-1.17187 1.20312,0.14062 q -0.28125,1.0625 -1.0625,1.65625 -0.76562,0.57813 -1.96875,0.57813 -1.51562,0 -2.40625,-0.9375 -0.89062,-0.9375 -0.89062,-2.60938 0,-1.75 0.89062,-2.70312 0.90625,-0.96875 2.34375,-0.96875 1.39063,0 2.26563,0.9375 0.875,0.9375 0.875,2.65625 0,0.10937 0,0.3125 h -5.15625 q 0.0625,1.14062 0.64062,1.75 0.57813,0.59375 1.4375,0.59375 0.65625,0 1.10938,-0.32813 0.45312,-0.34375 0.71875,-1.07812 z m -3.84375,-1.90625 h 3.85937 q -0.0781,-0.85938 -0.4375,-1.29688 -0.5625,-0.6875 -1.45312,-0.6875 -0.8125,0 -1.35938,0.54688 -0.54687,0.53125 -0.60937,1.4375 z m 6.50622,4.125 v -6.90625 h 1.0625 v 1.04687 q 0.40625,-0.73437 0.73438,-0.96875 0.34375,-0.23437 0.76562,-0.23437 0.59375,0 1.20313,0.375 l -0.40625,1.07812 q -0.4375,-0.25 -0.85938,-0.25 -0.39062,0 -0.70312,0.23438 -0.29688,0.23437 -0.42188,0.64062 -0.20312,0.625 -0.20312,1.35938 v 3.625 z m 4.454,0 v -6.90625 h 1.0625 v 0.98437 q 0.75,-1.14062 2.1875,-1.14062 0.625,0 1.15625,0.21875 0.53125,0.21875 0.78125,0.59375 0.26562,0.35937 0.375,0.85937 0.0625,0.32813 0.0625,1.14063 v 4.25 h -1.17188 v -4.20313 q 0,-0.71875 -0.14062,-1.0625 -0.14063,-0.35937 -0.48438,-0.5625 -0.34375,-0.21875 -0.8125,-0.21875 -0.75,0 -1.29687,0.46875 -0.54688,0.46875 -0.54688,1.79688 v 3.78125 z m 12.14685,-2.21875 1.20312,0.14062 q -0.28125,1.0625 -1.0625,1.65625 -0.76562,0.57813 -1.96875,0.57813 -1.51562,0 -2.40625,-0.9375 -0.89062,-0.9375 -0.89062,-2.60938 0,-1.75 0.89062,-2.70312 0.90625,-0.96875 2.34375,-0.96875 1.39063,0 2.26563,0.9375 0.875,0.9375 0.875,2.65625 0,0.10937 0,0.3125 h -5.15625 q 0.0625,1.14062 0.64062,1.75 0.57813,0.59375 1.4375,0.59375 0.65625,0 1.10938,-0.32813 0.45312,-0.34375 0.71875,-1.07812 z m -3.84375,-1.90625 h 3.85937 q -0.0781,-0.85938 -0.4375,-1.29688 -0.5625,-0.6875 -1.45312,-0.6875 -0.8125,0 -1.35938,0.54688 -0.54687,0.53125 -0.60937,1.4375 z m 9.08435,3.07812 0.17187,1.03125 q -0.5,0.10938 -0.89062,0.10938 -0.64063,0 -1,-0.20313 -0.34375,-0.20312 -0.48438,-0.53125 -0.14062,-0.32812 -0.14062,-1.39062 v -3.96875 h -0.85938 v -0.90625 h 0.85938 v -1.71875 l 1.17187,-0.70313 v 2.42188 h 1.17188 v 0.90625 h -1.17188 v 4.04687 q 0,0.5 0.0469,0.64063 0.0625,0.14062 0.20312,0.23437 0.14063,0.0781 0.40625,0.0781 0.20313,0 0.51563,-0.0469 z"
       fill-rule="nonzero"
       id="path55" />
    <path
       fill="#ffffff"
       d="m 638.2185,181.88452 h 155.30707 v 31.05511 H 638.2185 Z"
       fill-rule="evenodd"
       id="path57" />
    <path
       stroke="#595959"
       stroke-width="1"
       stroke-linejoin="round"
       stroke-linecap="butt"
       d="m 638.2185,181.88452 h 155.30707 v 31.05511 H 638.2185 Z"
       fill-rule="evenodd"
       id="path59" />
    <path
       fill="#000000"
       d="m 676.53784,194.99208 q -2.04688,-1.10938 -3.32813,-3.34375 -1.29687,2.10937 -3,3.34375 z m 2.76562,1.23437 q -1,-0.23437 -2.64062,-1.17187 v 1.21875 h -6.625 v -1.17188 q -1.57813,1.125 -2.98438,1.53125 l -0.53125,-1.40625 q 4.10938,-1.10937 6.09375,-4.8125 l 1.23438,0.1875 q 0.46875,0.0469 0.0625,0.34375 1.875,2.8125 5.96875,3.875 z m -1.29687,7.4375 q -0.46875,-0.64062 -1.10938,-1.23437 l -8.5,0.9375 q -0.29687,0.29687 -0.53125,0.125 l -0.40625,-1.46875 2.40625,-0.125 1.64063,-2.98438 h -4.21875 v -1.28125 h 12.01562 v 1.28125 h -6.32812 l -1.76563,2.9375 4.8125,-0.35937 q -0.76562,-0.70313 -1.70312,-1.40625 l 1.04687,-0.70313 q 2.8125,2.10938 3.875,3.51563 z m 7.20312,-10.67187 h 1.23438 l 0.23437,-0.23438 0.875,0.89063 -0.40625,0.28125 q -0.70312,1.35937 -1.9375,2.875 1.46875,0.46875 2.57813,1.23437 l -0.64063,1.28125 q -1,-0.8125 -1.9375,-1.34375 v 5.8125 h -1.17187 v -5.8125 q -1.04688,0.9375 -2.15625,1.57813 l -0.53125,-1.17188 q 2.8125,-1.51562 4.39062,-4.26562 h -3.85937 v -1.125 h 2.15625 v -2.51563 h 1.125 q 0.46875,0.0625 0.0469,0.35938 z m 6.39063,-2.15625 q 0.59375,0.10937 0.0625,0.46875 v 3.09375 h 2.6875 v 1.29687 h -2.6875 v 6.09375 h 3.21875 v 1.29688 h -8.03125 v -1.29688 h 3.46875 v -6.09375 h -2.53125 v -1.29687 h 2.53125 v -3.5625 z m 16.34375,8.01562 h -3.79688 v 4.46875 h -1.17187 v -4.46875 h -3.51563 q -0.125,3.04688 -1.82812,4.875 l -0.9375,-0.9375 q 1.59375,-1.76562 1.59375,-4.10937 v -7.5 h 10.82812 v 11.1875 q 0,0.95312 -0.9375,0.95312 h -1.64062 l -0.28125,-1.29687 h 1.45312 q 0.23438,0 0.23438,-0.23438 z m -8.48438,-3.28125 v 2.17188 h 3.51563 v -2.17188 z m 0,-3.28125 v 2.17188 h 3.51563 v -2.17188 z m 4.6875,3.28125 v 2.17188 h 3.79688 v -2.17188 z m 0,-3.28125 v 2.17188 h 3.79688 v -2.17188 z m 16.17188,0.59375 q -1.23438,3.39063 -2.76563,5.39063 -1.92187,2.51562 -4.625,4.21875 l -1.40625,-1.10938 q 2.64063,-1.35937 4.45313,-3.51562 1.875,-2.23438 2.9375,-6.15625 l 1.57812,0.70312 q 0.40625,0.23438 -0.17187,0.46875 z m 1.80859,4.79688 v -1.28125 h 13.0625 v 1.28125 z m 16.92969,-2.21875 q 2.875,0.8125 5.8125,2.21875 l -0.70312,1.35937 q -3.10938,-1.59375 -5.10938,-2.10937 v 6.09375 h -1.34375 v -11.71875 h 1.17188 q 0.70312,0.0469 0.17187,0.46875 z"
       fill-rule="nonzero"
       id="path61" />
    <path
       fill="#000000"
       d="M 746.6902,202.49208 V 192.0077 h 3.96875 q 1.04687,0 1.59375,0.0937 0.76562,0.125 1.28125,0.48438 0.53125,0.35937 0.84375,1.01562 0.32812,0.65625 0.32812,1.4375 0,1.32813 -0.85937,2.26563 -0.84375,0.92187 -3.07813,0.92187 h -2.6875 v 4.26563 z m 1.39062,-5.5 h 2.71875 q 1.34375,0 1.90625,-0.5 0.5625,-0.5 0.5625,-1.40625 0,-0.67188 -0.32812,-1.14063 -0.32813,-0.46875 -0.875,-0.60937 -0.35938,-0.0937 -1.29688,-0.0937 h -2.6875 z m 15.86933,1.82812 1.39062,0.34375 q -0.4375,1.70313 -1.57812,2.60938 -1.125,0.89062 -2.76563,0.89062 -1.6875,0 -2.75,-0.6875 -1.0625,-0.6875 -1.625,-2 -0.54687,-1.3125 -0.54687,-2.8125 0,-1.64062 0.625,-2.85937 0.625,-1.21875 1.78125,-1.84375 1.15625,-0.64063 2.54687,-0.64063 1.5625,0 2.64063,0.8125 1.07812,0.79688 1.5,2.25 l -1.375,0.3125 q -0.35938,-1.14062 -1.0625,-1.65625 -0.6875,-0.53125 -1.73438,-0.53125 -1.21875,0 -2.03125,0.57813 -0.8125,0.57812 -1.14062,1.5625 -0.32813,0.96875 -0.32813,2.01562 0,1.32813 0.39063,2.32813 0.39062,1 1.21875,1.5 0.82812,0.48437 1.78125,0.48437 1.17187,0 1.96875,-0.67187 0.8125,-0.67188 1.09375,-1.98438 z"
       fill-rule="nonzero"
       id="path63" />
    <path
       fill="#ffffff"
       d="m 632.0138,193.45932 h 6.20471 v 7.9055 h -6.20471 z"
       fill-rule="evenodd"
       id="path65" />
    <path
       stroke="#595959"
       stroke-width="1"
       stroke-linejoin="round"
       stroke-linecap="butt"
       d="m 632.0138,193.45932 h 6.20471 v 7.9055 h -6.20471 z"
       fill-rule="evenodd"
       id="path67" />
    <path
       fill="#ffffff"
       d="m 638.2185,264.521 h 155.30707 v 31.05512 H 638.2185 Z"
       fill-rule="evenodd"
       id="path69" />
    <path
       stroke="#595959"
       stroke-width="1"
       stroke-linejoin="round"
       stroke-linecap="butt"
       d="m 638.2185,264.521 h 155.30707 v 31.05512 H 638.2185 Z"
       fill-rule="evenodd"
       id="path71" />
    <path
       fill="#000000"
       d="m 675.42456,279.2692 h -5.85937 v -1.29688 h 12.01562 v 1.29688 h -4.79687 v 0.76562 q 0,3.6875 -2.64063,6.09375 l -1.17187,-0.875 q 2.45312,-1.9375 2.45312,-5.21875 z m -3.75,-3.57813 v -1.28125 h 7.21875 v 1.28125 z m 7.96875,-2.40625 q 0.76563,0.76563 1.64063,2.0625 l -0.8125,0.57813 q -0.82813,-1.17188 -1.64063,-2.10938 z m 1.40625,-0.75 q 0.76563,0.8125 1.64063,1.98438 l -0.8125,0.59375 q -0.9375,-1.29688 -1.64063,-2 z m 9.91406,7.26563 q 2.51563,1.92187 4.96875,4.45312 l -1.17187,1 q -2.45313,-2.59375 -4.73438,-4.34375 -2.29687,2.45313 -5.21875,4.39063 l -1.10937,-1 q 6.20312,-4.03125 7.96875,-8.07813 l -6.39063,0.40625 -0.17187,-1.40625 6.79687,-0.29687 0.70313,-0.17188 0.9375,0.9375 q 0.40625,0.40625 -0.23438,0.53125 -1.125,1.9375 -2.34375,3.57813 z m 16.58203,-2.70313 q -1.125,6.39063 -7.32812,9.14063 l -1.0625,-1.10938 q 5.75,-2.34375 6.92187,-8.09375 h -4.6875 q -1.34375,2.23438 -2.8125,3.57813 l -1.17187,-0.76563 q 3.04687,-2.75 3.92187,-6.4375 l 1.34375,0.46875 q 0.35938,0.17188 -0.10937,0.34375 -0.23438,0.76563 -0.64063,1.53125 h 4.21875 l 0.51563,-0.29687 1.0625,1.0625 q 0.40625,0.40625 -0.17188,0.57812 z m 4.38282,1 q 2.875,0.8125 5.8125,2.21875 l -0.70313,1.35938 q -3.10937,-1.59375 -5.10937,-2.10938 v 6.09375 h -1.34375 v -11.71875 h 1.17187 q 0.70313,0.0469 0.17188,0.46875 z m 16.58593,-0.125 q -0.40625,3.8125 -2.10937,5.51563 -1.70313,1.70312 -4.45313,2.70312 l -0.76562,-1.125 q 2.70312,-0.875 4.21875,-2.40625 1.64062,-1.64062 1.875,-5.5625 l 1.23437,0.40625 q 0.53125,0.1875 0,0.46875 z m -4.98437,2.10938 q -0.70313,-1.57813 -1.40625,-2.625 l 1.125,-0.59375 q 0.875,1.10937 1.51562,2.64062 z m -2.98438,0.89062 q -0.70312,-1.64062 -1.46875,-2.76562 l 1.17188,-0.57813 q 0.82812,1.10938 1.46875,2.6875 z m 20.15625,-5.92187 q 0.46875,0 0.76563,-0.29688 0.29687,-0.29687 0.29687,-0.76562 0,-0.46875 -0.29687,-0.75 -0.29688,-0.29688 -0.76563,-0.29688 -0.46875,0 -0.76562,0.29688 -0.28125,0.28125 -0.28125,0.75 0,0.46875 0.28125,0.76562 0.29687,0.29688 0.76562,0.29688 z m 0,0.57812 q -0.70312,0 -1.17187,-0.46875 -0.46875,-0.46875 -0.46875,-1.17187 0,-0.70313 0.46875,-1.17188 0.46875,-0.46875 1.17187,-0.46875 0.70313,0 1.17188,0.46875 0.46875,0.46875 0.46875,1.17188 0,0.70312 -0.46875,1.17187 -0.46875,0.46875 -1.17188,0.46875 z m -10.48437,0.76563 v -1.28125 h 8.67187 l 1.51563,1.10937 q -0.28125,7.09375 -8.01563,9.26563 l -1.0625,-1.29688 q 7.32813,-1.70312 7.67188,-7.79687 z"
       fill-rule="nonzero"
       id="path73" />
    <path
       fill="#000000"
       d="M 743.8191,285.12857 V 274.6442 h 3.96875 q 1.04688,0 1.59375,0.0937 0.76563,0.125 1.28125,0.48437 0.53125,0.35938 0.84375,1.01563 0.32813,0.65625 0.32813,1.4375 0,1.32812 -0.85938,2.26562 -0.84375,0.92188 -3.07812,0.92188 h -2.6875 v 4.26562 z m 1.39063,-5.5 h 2.71875 q 1.34375,0 1.90625,-0.5 0.5625,-0.5 0.5625,-1.40625 0,-0.67187 -0.32813,-1.14062 -0.32812,-0.46875 -0.875,-0.60938 -0.35937,-0.0937 -1.29687,-0.0937 h -2.6875 z m 15.86932,1.82813 1.39062,0.34375 q -0.4375,1.70312 -1.57812,2.60937 -1.125,0.89063 -2.76563,0.89063 -1.6875,0 -2.75,-0.6875 -1.0625,-0.6875 -1.625,-2 -0.54687,-1.3125 -0.54687,-2.8125 0,-1.64063 0.625,-2.85938 0.625,-1.21875 1.78125,-1.84375 1.15625,-0.64062 2.54687,-0.64062 1.5625,0 2.64063,0.8125 1.07812,0.79687 1.5,2.25 l -1.375,0.3125 q -0.35938,-1.14063 -1.0625,-1.65625 -0.6875,-0.53125 -1.73438,-0.53125 -1.21875,0 -2.03125,0.57812 -0.8125,0.57813 -1.14062,1.5625 -0.32813,0.96875 -0.32813,2.01563 0,1.32812 0.39063,2.32812 0.39062,1 1.21875,1.5 0.82812,0.48438 1.78125,0.48438 1.17187,0 1.96875,-0.67188 0.8125,-0.67187 1.09375,-1.98437 z"
       fill-rule="nonzero"
       id="path75" />
    <path
       fill="#ffffff"
       d="m 632.0138,276.0958 h 6.20471 v 7.90552 h -6.20471 z"
       fill-rule="evenodd"
       id="path77" />
    <path
       stroke="#595959"
       stroke-width="1"
       stroke-linejoin="round"
       stroke-linecap="butt"
       d="m 632.0138,276.0958 h 6.20471 v 7.90552 h -6.20471 z"
       fill-rule="evenodd"
       id="path79" />
    <path
       fill="#ffffff"
       d="m 638.2185,347.15747 h 155.30707 v 31.05511 H 638.2185 Z"
       fill-rule="evenodd"
       id="path81" />
    <path
       stroke="#595959"
       stroke-width="1"
       stroke-linejoin="round"
       stroke-linecap="butt"
       d="m 638.2185,347.15747 h 155.30707 v 31.05511 H 638.2185 Z"
       fill-rule="evenodd"
       id="path83" />
    <path
       fill="#000000"
       d="m 678.2002,368.64005 v -0.40625 h -6.73438 v 0.64062 h -1 v -12.53125 h 8.73438 v 12.29688 z m -8.90625,0.29687 h -1.17188 v -7.20312 q -0.46875,0.8125 -1.10937,1.51562 l -0.76563,-1 q 1.98438,-2.34375 2.6875,-6.67187 l 1.23438,0.46875 q 0.23437,0.23437 -0.17188,0.29687 -0.23437,1.34375 -0.875,3.28125 0.70313,0.0469 0.17188,0.40625 z m 4.28125,-6.21875 v 1.875 h 2.625 v -1.875 z m -2.10938,-5.26562 v 9.67187 h 6.73438 v -9.67187 z m 3.92188,1.9375 h 2.21875 v 1.10937 h -2.21875 v 1.28125 h 1.8125 v 4.21875 h -1 v -0.46875 h -2.625 v 0.70313 h -1 v -4.45313 h 1.64062 v -1.28125 h -2.17187 v -1.10937 h 2.17187 v -1.53125 h 1.10938 q 0.46875,0.0625 0.0625,0.35937 z m 12.01562,-3.17188 h 1.28125 q 0.59375,0.125 0.0625,0.46875 v 2.40625 q 0.40625,5.625 5.96875,8.03125 l -0.70312,1.46875 q -4.03125,-1.76562 -5.73438,-6.39062 -1.23437,4.39062 -5.5625,6.39062 l -0.89062,-1.29687 q 5.57812,-2.17188 5.57812,-8.03125 z m 20.4375,7.90625 h -3.79687 v 4.46875 h -1.17188 v -4.46875 h -3.51562 q -0.125,3.04688 -1.82813,4.875 l -0.9375,-0.9375 q 1.59375,-1.76562 1.59375,-4.10937 v -7.5 h 10.82813 v 11.1875 q 0,0.95312 -0.9375,0.95312 h -1.64063 l -0.28125,-1.29687 h 1.45313 q 0.23437,0 0.23437,-0.23438 z m -8.48437,-3.28125 v 2.17188 h 3.51562 v -2.17188 z m 0,-3.28125 v 2.17188 h 3.51562 v -2.17188 z m 4.6875,3.28125 v 2.17188 h 3.79687 v -2.17188 z m 0,-3.28125 v 2.17188 h 3.79687 v -2.17188 z m 13.40625,4.34375 h -5.85938 v -1.29687 h 12.01563 v 1.29687 h -4.79688 v 0.76563 q 0,3.6875 -2.64062,6.09375 l -1.17188,-0.875 q 2.45313,-1.9375 2.45313,-5.21875 z m -3.75,-3.57812 v -1.28125 h 7.21875 v 1.28125 z m 7.96875,-2.40625 q 0.76562,0.76562 1.64062,2.0625 l -0.8125,0.57812 q -0.82812,-1.17187 -1.64062,-2.10937 z m 1.40625,-0.75 q 0.76562,0.8125 1.64062,1.98437 l -0.8125,0.59375 q -0.9375,-1.29687 -1.64062,-2 z m 12.13281,3.45312 q 2.9375,3.6875 4.15625,7.79688 l -1.57812,0.51562 q -1.46875,-4.625 -3.8125,-7.375 z m -4.45312,1.34375 q 0.46875,0.29688 -0.10938,0.53125 -1.0625,3.6875 -3.40625,6.73438 l -1.34375,-0.875 q 2.57813,-3.10938 3.45313,-7.03125 z m 7.03125,-4.5625 q 0.76562,0.64063 1.875,1.8125 l -0.76563,0.70313 q -1.04687,-1.17188 -1.875,-1.875 z m -1.40625,0.875 q 0.875,0.8125 1.875,1.98438 l -0.875,0.65625 q -0.875,-1.17188 -1.8125,-2 z m 4.625,7.20313 q 6.15625,-2.57813 9.32812,-7.26563 l 1.10938,0.9375 q 0.46875,0.35938 -0.40625,0.53125 -1.125,1.46875 -2.875,2.98438 v 7.96875 h -1.34375 v -6.85938 q -2.0625,1.59375 -4.8125,2.875 z m 19.34765,-1.04688 q 2.51563,1.92188 4.96875,4.45313 l -1.17187,1 q -2.45313,-2.59375 -4.73438,-4.34375 -2.29687,2.45312 -5.21875,4.39062 l -1.10937,-1 q 6.20312,-4.03125 7.96875,-8.07812 l -6.39063,0.40625 -0.17187,-1.40625 6.79687,-0.29688 0.70313,-0.17187 0.9375,0.9375 q 0.40625,0.40625 -0.23438,0.53125 -1.125,1.9375 -2.34375,3.57812 z"
       fill-rule="nonzero"
       id="path85" />
    <path
       fill="#ffffff"
       d="m 632.0138,358.73227 h 6.20471 v 7.90552 h -6.20471 z"
       fill-rule="evenodd"
       id="path87" />
    <path
       stroke="#595959"
       stroke-width="1"
       stroke-linejoin="round"
       stroke-linecap="butt"
       d="m 632.0138,358.73227 h 6.20471 v 7.90552 h -6.20471 z"
       fill-rule="evenodd"
       id="path89" />
    <path
       fill="#000000"
       fill-opacity="0"
       d="M 632.0138,197.41208 H 563.00593"
       fill-rule="evenodd"
       id="path91" />
    <path
       stroke="#595959"
       stroke-width="1"
       stroke-linejoin="round"
       stroke-linecap="butt"
       d="M 632.0138,197.41208 H 563.00593"
       fill-rule="evenodd"
       id="path93" />
    <path
       fill="#000000"
       fill-opacity="0"
       d="M 632.0138,280.04855 H 562.47046"
       fill-rule="evenodd"
       id="path95" />
    <path
       stroke="#595959"
       stroke-width="1"
       stroke-linejoin="round"
       stroke-linecap="butt"
       d="M 632.0138,280.04855 H 562.47046"
       fill-rule="evenodd"
       id="path97" />
    <path
       fill="#000000"
       fill-opacity="0"
       d="M 632.0138,362.68503 H 563.00593"
       fill-rule="evenodd"
       id="path99" />
    <path
       stroke="#595959"
       stroke-width="1"
       stroke-linejoin="round"
       stroke-linecap="butt"
       d="M 632.0138,362.68503 H 563.00593"
       fill-rule="evenodd"
       id="path101" />
    <path
       fill="#000000"
       fill-opacity="0"
       d="m 632.0138,147.96326 h 195.84253 v 33.92126 H 632.0138 Z"
       fill-rule="evenodd"
       id="path103" />
    <path
       fill="#000000"
       d="m 644.3888,168.48326 -3.32813,-8.59375 h 1.23438 l 2.23437,6.25 q 0.26563,0.75 0.45313,1.40625 0.20312,-0.70313 0.46875,-1.40625 l 2.3125,-6.25 h 1.15625 l -3.35938,8.59375 z m 5.55078,0 v -8.59375 h 3.25 q 0.84375,0 1.29688,0.0781 0.64062,0.10938 1.0625,0.40625 0.4375,0.29688 0.6875,0.82813 0.26562,0.53125 0.26562,1.17187 0,1.09375 -0.70312,1.85938 -0.6875,0.75 -2.51563,0.75 h -2.20312 v 3.5 z m 1.14063,-4.5 h 2.21875 q 1.10937,0 1.5625,-0.40625 0.46875,-0.42188 0.46875,-1.17188 0,-0.53125 -0.28125,-0.90625 -0.26563,-0.39062 -0.70313,-0.51562 -0.29687,-0.0781 -1.0625,-0.0781 h -2.20312 z m 6.86328,4.5 v -8.59375 h 1.15625 l 4.51562,6.75 v -6.75 h 1.09375 v 8.59375 h -1.17187 l -4.51563,-6.75 v 6.75 z"
       fill-rule="nonzero"
       id="path105" />
    <path
       fill="#000000"
       d="m 675.8126,161.12389 q -1.64063,0 -2.57813,0.32812 -1.03125,0.375 -1.92187,1.26563 -0.89063,0.89062 -0.89063,2.29687 0,1.125 0.70313,1.82813 0.9375,0.9375 3.60937,1.03125 l -0.375,1.03125 q -2.76562,-0.14063 -3.84375,-1.21875 -1.07812,-1.07813 -1.07812,-2.625 0,-2.20313 1.73437,-3.46875 -2.20312,0.32812 -4.5,0.65625 l -0.28125,-1.07813 q 4.59375,-0.32812 9.23438,-1.125 z m -1.03125,3.65625 q -1.03125,-0.75 -1.78125,-1.17188 l 0.46875,-0.5625 q 0.70312,0.42188 1.78125,1.17188 z m 0.9375,-1.125 q -1.125,-0.79688 -1.78125,-1.17188 l 0.46875,-0.5625 q 0.65625,0.375 1.78125,1.17188 z m 4.3125,-2.76563 h 0.98437 l 0.1875,-0.1875 0.70313,0.70313 -0.32813,0.23437 q -0.5625,1.07813 -1.54687,2.29688 1.17187,0.375 2.0625,0.98437 l -0.51563,1.03125 q -0.79687,-0.65625 -1.54687,-1.07812 v 4.64062 h -0.9375 v -4.64062 q -0.84375,0.75 -1.73438,1.26562 l -0.42187,-0.9375 q 2.25,-1.21875 3.51562,-3.42187 h -3.09375 v -0.89063 h 1.73438 v -2.01562 h 0.89062 q 0.375,0.0469 0.0469,0.28125 z m 5.10937,-1.73437 q 0.46875,0.0937 0.0469,0.375 v 2.48437 h 2.15625 v 1.03125 h -2.15625 v 4.875 h 2.57812 v 1.03125 h -6.42187 v -1.03125 h 2.76562 v -4.875 h -2.01562 v -1.03125 h 2.01562 v -2.85937 z m 12.09375,7.54687 q -1.5,-1.64062 -2.71875,-2.71875 -0.60937,1.92188 -2.625,3.23438 l -0.65625,-0.9375 q 2.625,-1.54688 2.625,-4.64063 h -2.90625 v 7.54688 h -1.07812 v -8.4375 h 4.03125 v -1.64063 h 1.03125 q 0.46875,0.0937 0.0469,0.375 v 1.26563 h 4.21875 v 7.40625 q 0,0.9375 -0.89062,0.9375 h -1.125 l -0.1875,-1.03125 h 0.9375 q 0.1875,0 0.1875,-0.1875 v -6.23438 h -3.1875 q 0,0.70313 -0.14063,1.40625 1.82813,1.21875 3.14063,2.625 z m 11.15625,-5.71875 0.28125,-0.0937 0.51563,0.70313 q 0.1875,0.32812 -0.1875,0.32812 -0.98438,1.03125 -2.57813,2.29688 v 4.92187 h -1.07812 v -4.17187 q -1.54688,1.03125 -3.46875,1.875 l -0.79688,-0.84375 q 3.89063,-1.45313 6.375,-3.98438 l -5.29687,0.23438 -0.14063,-1.03125 3.32813,-0.0937 v -2.10938 h 0.9375 q 0.42187,0.0937 0.14062,0.375 v 1.6875 z m 1.875,5.85938 q -1.59375,-1.35938 -2.85937,-2.0625 l 0.70312,-0.89063 q 1.6875,0.89063 2.95313,2.01563 z m 9.46875,-4.07813 q -0.32812,3.04688 -1.6875,4.40625 -1.35937,1.35938 -3.5625,2.15625 l -0.60937,-0.89062 q 2.15625,-0.70313 3.375,-1.92188 1.3125,-1.3125 1.5,-4.45312 l 0.98437,0.32812 q 0.42188,0.14063 0,0.375 z m -3.98437,1.6875 q -0.5625,-1.26562 -1.125,-2.10937 l 0.89062,-0.46875 q 0.70313,0.89062 1.21875,2.10937 z m -2.39063,0.70313 q -0.5625,-1.3125 -1.17187,-2.20313 l 0.9375,-0.46875 q 0.65625,0.89063 1.17187,2.15625 z m 9.70313,-2.29688 q 2.29687,0.65625 4.64062,1.78125 l -0.5625,1.07813 q -2.48437,-1.26563 -4.07812,-1.6875 v 4.875 h -1.07813 v -9.375 h 0.9375 q 0.5625,0.0469 0.14063,0.375 z m 13.82812,3 q -1.03125,1.875 -3.89062,3.14063 l -0.89063,-0.9375 q 2.76563,-1.03125 3.70313,-2.67188 0.89062,-1.54687 0.89062,-4.17187 h -5.95312 v 3.09375 h -1.07813 v -4.125 h 8.25 q 0,3.79687 -1.03125,5.67187 z m 3.23438,-1.21875 v -1.03125 h 10.45312 v 1.03125 z m 19.6875,-2.57812 q -0.89063,5.10937 -5.85938,7.3125 l -0.84375,-0.89063 q 4.59375,-1.875 5.53125,-6.46875 h -3.75 q -1.07812,1.78125 -2.25,2.85938 l -0.9375,-0.60938 q 2.4375,-2.20312 3.14063,-5.15625 l 1.07812,0.375 q 0.28125,0.14063 -0.0937,0.28125 -0.1875,0.60938 -0.51562,1.21875 h 3.375 l 0.42187,-0.23437 0.84375,0.84375 q 0.32813,0.32812 -0.14062,0.46875 z m 8.95312,5.85937 q -2.20312,0 -3.65625,-1.40625 l 0.60938,-0.79687 q 1.26562,1.21875 3.04687,1.17187 h 2.57813 v 1.03125 z m -6.70312,0.89063 q -0.14063,-2.4375 -0.14063,-4.17188 0,-2.10937 0.51563,-5.01562 l 0.9375,0.23437 q 0.51562,0.0937 0.0469,0.42188 -0.46875,2.71875 -0.46875,4.35937 0,1.82813 0.1875,4.07813 z m 8.67187,-6.9375 q -2.01562,-0.0469 -5.25,0.28125 v -0.98438 q 3.375,-0.32812 5.25,-0.28125 z m 8.95313,1.73437 0.375,0.14063 q 0.1875,0.1875 -0.14063,0.23437 l -0.42187,0.84375 h 3.5625 v 0.89063 h -1.21875 q -0.375,1.21875 -0.89063,1.82812 1.17188,0.42188 2.20313,1.03125 l -0.5625,0.84375 q -1.54688,-0.84375 -2.29688,-1.17187 -1.54687,1.03125 -3.60937,1.35937 l -0.32813,-0.84375 q 1.96875,-0.23437 3,-0.9375 l -1.21875,-0.51562 -0.28125,0.42187 -0.75,-0.375 0.9375,-1.64062 h -1.40625 v -0.89063 h 1.875 l 0.5625,-1.21875 h -2.85937 v -0.89062 h 1.92187 l -0.51562,-1.6875 h -0.70313 v -0.89063 h 2.29688 v -1.3125 h 0.89062 q 0.375,0.0469 0.0469,0.28125 v 1.03125 h 2.625 v 0.89063 h -0.98438 l -0.51562,1.6875 h 2.15625 v 0.89062 z m 0.42187,3.60938 q 0.46875,-0.51563 0.75,-1.5 h -1.78125 l -0.5625,0.9375 z m -0.98437,-4.5 h 1.21875 l 0.46875,-1.6875 h -2.20313 z m -5.01563,-3.89063 h 0.89063 q 0.375,0.0469 0.0469,0.28125 v 1.82813 h 1.3125 v 0.89062 h -1.3125 v 2.4375 l 0.98438,-0.32812 0.32812,0.79687 -1.3125,0.51563 v 3.70312 q 0,0.65625 -0.65625,0.65625 h -0.89062 l -0.14063,-0.89062 h 0.5625 q 0.1875,0 0.1875,-0.1875 v -2.95313 l -0.79687,0.23438 q -0.0469,0.32812 -0.23438,0.14062 l -0.375,-1.03125 1.40625,-0.375 v -2.71875 h -1.26562 v -0.89062 h 1.26562 z m 11.01563,2.0625 0.23437,0.1875 q 0.70313,-1.07812 1.26563,-2.39062 l 0.84375,0.42187 q 0.1875,0.1875 -0.14063,0.23438 -0.5625,1.125 -1.3125,2.20312 0.28125,0.23438 0.5625,0.51563 0.65625,-0.89063 1.3125,-2.0625 l 0.79688,0.51562 q 0.1875,0.1875 -0.14063,0.23438 -0.98437,1.45312 -2.0625,2.90625 l 1.40625,-0.0469 -0.46875,-0.84375 0.70313,-0.32812 q 0.75,1.125 1.03125,2.15625 l -0.79688,0.32812 -0.23437,-0.65625 -0.75,0.0937 v 5.20313 h -0.9375 v -5.10938 l -1.54688,0.14063 q -0.0469,0.32812 -0.23437,0.14062 l -0.14063,-1.07812 h 1.03125 l 0.5625,-0.79688 q -0.5625,-0.5625 -1.5,-1.26562 z m 6.60937,5.25 q 0,2.71875 -2.8125,3.46875 l -0.46875,-0.9375 q 2.34375,-0.42187 2.34375,-2.71875 v -1.21875 h 0.89063 q 0.375,0.0469 0.0469,0.28125 z m -0.14062,-4.35937 v -0.9375 h -2.25 v -0.89063 h 2.25 v -1.26562 h 0.89062 q 0.375,0.0469 0.0469,0.28125 v 0.98437 h 2.67187 v 0.89063 h -2.67187 v 0.9375 h 2.25 v 0.89062 h -5.0625 v -0.89062 z m 3.65625,3.65625 h -0.9375 v -1.125 h -3.98438 v 1.21875 h -0.9375 v -2.10938 h 5.85938 z m -1.78125,-0.75 q 0.375,0.0469 0.0469,0.28125 v 3.32812 q 0,0.1875 0.1875,0.1875 h 0.51563 q 0.23437,0 0.28125,-0.28125 l 0.14062,-0.89062 0.89063,0.28125 -0.1875,0.98437 q -0.14063,0.79688 -0.9375,0.79688 h -1.07813 q -0.75,0 -0.75,-0.75 v -3.9375 z m -5.0625,0.51562 q 0.70312,1.07813 0.9375,2.10938 l -0.84375,0.375 q -0.32813,-1.21875 -0.84375,-2.20313 z m -2.4375,0.60938 q -0.0937,1.26562 -0.46875,2.67187 l -0.89063,-0.375 q 0.375,-1.3125 0.51563,-2.76562 l 0.9375,0.1875 q 0.28125,0.14062 -0.0937,0.28125 z"
       fill-rule="nonzero"
       id="path107" />
    <path
       fill="#000000"
       fill-opacity="0"
       d="m 589.5702,378.45932 h 108.40949 v 35.55905 H 589.5702 Z"
       fill-rule="evenodd"
       id="path109" />
    <path
       fill="#000000"
       d="m 625.9236,400.2593 v -9.54688 h 3.28125 q 1.10937,0 1.70312,0.14063 0.8125,0.1875 1.39063,0.6875 0.76562,0.64062 1.14062,1.64062 0.375,0.98438 0.375,2.25 0,1.09375 -0.26562,1.9375 -0.25,0.82813 -0.65625,1.39063 -0.39063,0.54687 -0.85938,0.85937 -0.46875,0.3125 -1.14062,0.48438 -0.65625,0.15625 -1.53125,0.15625 z m 1.26562,-1.125 h 2.03125 q 0.9375,0 1.46875,-0.17188 0.54688,-0.1875 0.875,-0.5 0.4375,-0.45312 0.6875,-1.20312 0.25,-0.76563 0.25,-1.84375 0,-1.5 -0.5,-2.29688 -0.48437,-0.8125 -1.1875,-1.07812 -0.5,-0.20313 -1.625,-0.20313 h -2 z m 8.39075,1.125 v -9.54688 h 1.26563 v 3.92188 h 4.95312 v -3.92188 h 1.26563 v 9.54688 h -1.26563 v -4.5 h -4.95312 v 4.5 z m 16.39081,-3.34375 1.26562,0.3125 q -0.39062,1.5625 -1.42187,2.375 -1.03125,0.8125 -2.53125,0.8125 -1.53125,0 -2.5,-0.625 -0.96875,-0.625 -1.48438,-1.8125 -0.5,-1.1875 -0.5,-2.5625 0,-1.48438 0.5625,-2.59375 0.57813,-1.10938 1.625,-1.6875 1.0625,-0.57813 2.32813,-0.57813 1.42187,0 2.39062,0.73438 0.98438,0.71875 1.375,2.04687 l -1.25,0.29688 q -0.32812,-1.04688 -0.96875,-1.51563 -0.625,-0.48437 -1.57812,-0.48437 -1.09375,0 -1.84375,0.53125 -0.73438,0.53125 -1.03125,1.42187 -0.29688,0.875 -0.29688,1.82813 0,1.21875 0.34375,2.125 0.35938,0.90625 1.10938,1.35937 0.75,0.4375 1.625,0.4375 1.0625,0 1.79687,-0.60937 0.73438,-0.60938 0.98438,-1.8125 z m 2.82825,3.34375 v -9.54688 h 3.59375 q 0.95312,0 1.45312,0.0937 0.70313,0.125 1.17188,0.45313 0.48437,0.32812 0.76562,0.92187 0.29688,0.59375 0.29688,1.29688 0,1.21875 -0.78125,2.0625 -0.76563,0.84375 -2.79688,0.84375 h -2.4375 v 3.875 z m 1.26562,-5 h 2.45313 q 1.23437,0 1.75,-0.45313 0.51562,-0.46875 0.51562,-1.28125 0,-0.60937 -0.3125,-1.03125 -0.29687,-0.42187 -0.79687,-0.5625 -0.3125,-0.0937 -1.17188,-0.0937 h -2.4375 z"
       fill-rule="nonzero"
       id="path111" />
    <path
       fill="#000000"
       fill-opacity="0"
       d="m 589.5702,295.82416 h 108.40949 v 35.55905 H 589.5702 Z"
       fill-rule="evenodd"
       id="path113" />
    <path
       fill="#000000"
       d="m 625.9236,317.62415 v -9.54688 h 3.28125 q 1.10937,0 1.70312,0.14063 0.8125,0.1875 1.39063,0.6875 0.76562,0.64062 1.14062,1.64062 0.375,0.98438 0.375,2.25 0,1.09375 -0.26562,1.9375 -0.25,0.82813 -0.65625,1.39063 -0.39063,0.54687 -0.85938,0.85937 -0.46875,0.3125 -1.14062,0.48438 -0.65625,0.15625 -1.53125,0.15625 z m 1.26562,-1.125 h 2.03125 q 0.9375,0 1.46875,-0.17188 0.54688,-0.1875 0.875,-0.5 0.4375,-0.45312 0.6875,-1.20312 0.25,-0.76563 0.25,-1.84375 0,-1.5 -0.5,-2.29688 -0.48437,-0.8125 -1.1875,-1.07812 -0.5,-0.20313 -1.625,-0.20313 h -2 z m 8.39075,1.125 v -9.54688 h 1.26563 v 3.92188 h 4.95312 v -3.92188 h 1.26563 v 9.54688 h -1.26563 v -4.5 h -4.95312 v 4.5 z m 16.39081,-3.34375 1.26562,0.3125 q -0.39062,1.5625 -1.42187,2.375 -1.03125,0.8125 -2.53125,0.8125 -1.53125,0 -2.5,-0.625 -0.96875,-0.625 -1.48438,-1.8125 -0.5,-1.1875 -0.5,-2.5625 0,-1.48438 0.5625,-2.59375 0.57813,-1.10938 1.625,-1.6875 1.0625,-0.57813 2.32813,-0.57813 1.42187,0 2.39062,0.73438 0.98438,0.71875 1.375,2.04687 l -1.25,0.29688 q -0.32812,-1.04688 -0.96875,-1.51563 -0.625,-0.48437 -1.57812,-0.48437 -1.09375,0 -1.84375,0.53125 -0.73438,0.53125 -1.03125,1.42187 -0.29688,0.875 -0.29688,1.82813 0,1.21875 0.34375,2.125 0.35938,0.90625 1.10938,1.35937 0.75,0.4375 1.625,0.4375 1.0625,0 1.79687,-0.60937 0.73438,-0.60938 0.98438,-1.8125 z m 2.82825,3.34375 v -9.54688 h 3.59375 q 0.95312,0 1.45312,0.0937 0.70313,0.125 1.17188,0.45313 0.48437,0.32812 0.76562,0.92187 0.29688,0.59375 0.29688,1.29688 0,1.21875 -0.78125,2.0625 -0.76563,0.84375 -2.79688,0.84375 h -2.4375 v 3.875 z m 1.26562,-5 h 2.45313 q 1.23437,0 1.75,-0.45313 0.51562,-0.46875 0.51562,-1.28125 0,-0.60937 -0.3125,-1.03125 -0.29687,-0.42187 -0.79687,-0.5625 -0.3125,-0.0937 -1.17188,-0.0937 h -2.4375 z"
       fill-rule="nonzero"
       id="path115" />
    <path
       fill="#000000"
       fill-opacity="0"
       d="m 589.5702,213.18767 h 108.40949 v 35.55905 H 589.5702 Z"
       fill-rule="evenodd"
       id="path117" />
    <path
       fill="#000000"
       d="m 625.9236,234.98767 v -9.54688 h 3.28125 q 1.10937,0 1.70312,0.14063 0.8125,0.1875 1.39063,0.6875 0.76562,0.64062 1.14062,1.64062 0.375,0.98438 0.375,2.25 0,1.09375 -0.26562,1.9375 -0.25,0.82813 -0.65625,1.39063 -0.39063,0.54687 -0.85938,0.85937 -0.46875,0.3125 -1.14062,0.48438 -0.65625,0.15625 -1.53125,0.15625 z m 1.26562,-1.125 h 2.03125 q 0.9375,0 1.46875,-0.17188 0.54688,-0.1875 0.875,-0.5 0.4375,-0.45312 0.6875,-1.20312 0.25,-0.76563 0.25,-1.84375 0,-1.5 -0.5,-2.29688 -0.48437,-0.8125 -1.1875,-1.07812 -0.5,-0.20313 -1.625,-0.20313 h -2 z m 8.39075,1.125 v -9.54688 h 1.26563 v 3.92188 h 4.95312 v -3.92188 h 1.26563 v 9.54688 h -1.26563 v -4.5 h -4.95312 v 4.5 z m 16.39081,-3.34375 1.26562,0.3125 q -0.39062,1.5625 -1.42187,2.375 -1.03125,0.8125 -2.53125,0.8125 -1.53125,0 -2.5,-0.625 -0.96875,-0.625 -1.48438,-1.8125 -0.5,-1.1875 -0.5,-2.5625 0,-1.48438 0.5625,-2.59375 0.57813,-1.10938 1.625,-1.6875 1.0625,-0.57813 2.32813,-0.57813 1.42187,0 2.39062,0.73438 0.98438,0.71875 1.375,2.04687 l -1.25,0.29688 q -0.32812,-1.04688 -0.96875,-1.51563 -0.625,-0.48437 -1.57812,-0.48437 -1.09375,0 -1.84375,0.53125 -0.73438,0.53125 -1.03125,1.42187 -0.29688,0.875 -0.29688,1.82813 0,1.21875 0.34375,2.125 0.35938,0.90625 1.10938,1.35937 0.75,0.4375 1.625,0.4375 1.0625,0 1.79687,-0.60937 0.73438,-0.60938 0.98438,-1.8125 z m 2.82825,3.34375 v -9.54688 h 3.59375 q 0.95312,0 1.45312,0.0937 0.70313,0.125 1.17188,0.45313 0.48437,0.32812 0.76562,0.92187 0.29688,0.59375 0.29688,1.29688 0,1.21875 -0.78125,2.0625 -0.76563,0.84375 -2.79688,0.84375 h -2.4375 v 3.875 z m 1.26562,-5 h 2.45313 q 1.23437,0 1.75,-0.45313 0.51562,-0.46875 0.51562,-1.28125 0,-0.60937 -0.3125,-1.03125 -0.29687,-0.42187 -0.79687,-0.5625 -0.3125,-0.0937 -1.17188,-0.0937 h -2.4375 z"
       fill-rule="nonzero"
       id="path119" />
  </g>
</svg>
