<?xml version="1.0" encoding="UTF-8" standalone="no"?>
<svg
   version="1.1"
   viewBox="0.0 0.0 960.0 540.0"
   fill="none"
   stroke="none"
   stroke-linecap="square"
   stroke-miterlimit="10"
   id="svg89"
   sodipodi:docname="network_configuration_ver0.svg"
   inkscape:version="1.2.1 (9c6d41e410, 2022-07-14)"
   xmlns:inkscape="http://www.inkscape.org/namespaces/inkscape"
   xmlns:sodipodi="http://sodipodi.sourceforge.net/DTD/sodipodi-0.dtd"
   xmlns="http://www.w3.org/2000/svg"
   xmlns:svg="http://www.w3.org/2000/svg">
  <defs
     id="defs93" />
  <sodipodi:namedview
     id="namedview91"
     pagecolor="#ffffff"
     bordercolor="#000000"
     borderopacity="0.25"
     inkscape:showpageshadow="2"
     inkscape:pageopacity="0.0"
     inkscape:pagecheckerboard="0"
     inkscape:deskcolor="#d1d1d1"
     showgrid="false"
     inkscape:zoom="1.325"
     inkscape:cx="481.13208"
     inkscape:cy="270.9434"
     inkscape:window-width="1858"
     inkscape:window-height="1057"
     inkscape:window-x="-8"
     inkscape:window-y="-8"
     inkscape:window-maximized="1"
     inkscape:current-layer="svg89" />
  <clipPath
     id="g1463da1a842_0_0.0">
    <path
       d="m0 0l960.0 0l0 540.0l-960.0 0l0 -540.0z"
       clip-rule="nonzero"
       id="path2" />
  </clipPath>
  <g
     clip-path="url(#g1463da1a842_0_0.0)"
     id="g87"
     inkscape:export-filename="g87.svg"
     inkscape:export-xdpi="96"
     inkscape:export-ydpi="96"
     transform="matrix(1.1752221,0,0,1.1752221,-84.099272,-47.309968)">
    <path
       fill="#ffffff"
       d="m 102.22299,261.21045 v 0 c -0.83321,-4.23654 1.90237,-8.43048 7.04594,-10.80214 5.14357,-2.37167 11.79303,-2.50514 17.1268,-0.34376 v 0 c 1.88939,-2.46332 5.34751,-4.16407 9.32836,-4.5878 3.98085,-0.42374 8.01686,0.47931 10.88721,2.43596 v 0 c 1.60951,-2.23339 4.76982,-3.73395 8.35946,-3.96918 3.58966,-0.23525 7.10065,0.82811 9.28708,2.81274 v 0 c 2.90782,-2.36738 7.53423,-3.36415 11.87737,-2.559 4.34312,0.80516 7.62291,3.26764 8.42016,6.3219 v 0 c 3.56258,0.67234 6.53012,2.38154 8.13593,4.686 1.6058,2.30444 1.69233,4.97809 0.23724,7.33011 v 0 c 3.5081,3.15906 4.32872,7.36847 2.15566,11.05731 -2.17308,3.68887 -7.01339,6.30301 -12.7146,6.86685 -0.0402,3.46216 -2.78446,6.63895 -7.17504,8.30597 -4.39059,1.66703 -9.7419,1.56391 -13.99128,-0.26956 v 0 c -1.81003,4.14649 -6.90462,7.19745 -13.08274,7.83475 -6.17811,0.63727 -12.33221,-1.25336 -15.80348,-4.85507 v 0 c -4.25505,1.7753 -9.36076,2.28671 -14.16538,1.41885 -4.80462,-0.86786 -8.90344,-3.04187 -11.37184,-6.03162 v 0 c -4.34812,0.35205 -8.552165,-1.20663 -10.525668,-3.90246 -1.973496,-2.69586 -1.296349,-5.95499 1.695381,-8.15991 v 0 c -3.878639,-1.5795 -5.857758,-4.71375 -4.905319,-7.76838 0.952438,-3.05459 4.620613,-5.3374 9.091716,-5.65795 z"
       fill-rule="evenodd"
       id="path7" />
    <path
       fill="#000000"
       fill-opacity="0"
       d="m 97.95065,274.80008 v 0 c 1.830345,0.74539 3.94482,1.0835 6.05952,0.96896 m 2.76982,11.09369 c 0.9094,-0.0736 1.80079,-0.22955 2.65117,-0.46374 m 22.88477,5.07629 c -0.6396,-0.66363 -1.17513,-1.3728 -1.59743,-2.11542 m 30.48474,-0.86438 v 0 c 0.33001,-0.75595 0.54381,-1.53402 0.63787,-2.32119 m 20.52766,-5.71491 c 0.0428,-3.68597 -2.98303,-7.06088 -7.7778,-8.67511 m 18.33665,-9.24866 c -0.7765,1.25516 -1.96189,2.36857 -3.46327,3.25296 m -4.90916,-15.2694 v 0 c 0.13229,0.50686 0.19352,1.02133 0.18283,1.5363 m -20.48003,-5.29905 v 0 c -0.72535,0.59055 -1.32295,1.25048 -1.77418,1.95925 m -15.87253,-0.80307 v 0 c -0.38655,0.53639 -0.6752,1.10399 -0.85931,1.68971 m -19.35655,0.46217 v 0 c 1.12863,0.45734 2.17275,1.0078 3.10945,1.6393 m -27.28188,9.50667 v 0 c 0.11484,0.58392 0.29629,1.16061 0.54265,1.72473"
       fill-rule="evenodd"
       id="path9" />
    <path
       stroke="#595959"
       stroke-width="1"
       stroke-linejoin="round"
       stroke-linecap="butt"
       d="m 102.22299,261.21045 v 0 c -0.83321,-4.23654 1.90237,-8.43048 7.04594,-10.80214 5.14357,-2.37167 11.79303,-2.50514 17.1268,-0.34376 v 0 c 1.88939,-2.46332 5.34751,-4.16407 9.32836,-4.5878 3.98085,-0.42374 8.01686,0.47931 10.88721,2.43596 v 0 c 1.60951,-2.23339 4.76982,-3.73395 8.35946,-3.96918 3.58966,-0.23525 7.10065,0.82811 9.28708,2.81274 v 0 c 2.90782,-2.36738 7.53423,-3.36415 11.87737,-2.559 4.34312,0.80516 7.62291,3.26764 8.42016,6.3219 v 0 c 3.56258,0.67234 6.53012,2.38154 8.13593,4.686 1.6058,2.30444 1.69233,4.97809 0.23724,7.33011 v 0 c 3.5081,3.15906 4.32872,7.36847 2.15566,11.05731 -2.17308,3.68887 -7.01339,6.30301 -12.7146,6.86685 -0.0402,3.46216 -2.78446,6.63895 -7.17504,8.30597 -4.39059,1.66703 -9.7419,1.56391 -13.99128,-0.26956 v 0 c -1.81003,4.14649 -6.90462,7.19745 -13.08274,7.83475 -6.17811,0.63727 -12.33221,-1.25336 -15.80348,-4.85507 v 0 c -4.25505,1.7753 -9.36076,2.28671 -14.16538,1.41885 -4.80462,-0.86786 -8.90344,-3.04187 -11.37184,-6.03162 v 0 c -4.34812,0.35205 -8.552165,-1.20663 -10.525668,-3.90246 -1.973496,-2.69586 -1.296349,-5.95499 1.695381,-8.15991 v 0 c -3.878639,-1.5795 -5.857758,-4.71375 -4.905319,-7.76838 0.952438,-3.05459 4.620613,-5.3374 9.091716,-5.65795 z"
       fill-rule="evenodd"
       id="path11" />
    <path
       stroke="#595959"
       stroke-width="1"
       stroke-linejoin="round"
       stroke-linecap="butt"
       d="m 97.95065,274.80008 v 0 c 1.830345,0.74539 3.94482,1.0835 6.05952,0.96896 m 2.76982,11.09369 c 0.9094,-0.0736 1.80079,-0.22955 2.65117,-0.46374 m 22.88477,5.07629 c -0.6396,-0.66363 -1.17513,-1.3728 -1.59743,-2.11542 m 30.48474,-0.86438 v 0 c 0.33001,-0.75595 0.54381,-1.53402 0.63787,-2.32119 m 20.52766,-5.71491 c 0.0428,-3.68597 -2.98303,-7.06088 -7.7778,-8.67511 m 18.33665,-9.24866 c -0.7765,1.25516 -1.96189,2.36857 -3.46327,3.25296 m -4.90916,-15.2694 v 0 c 0.13229,0.50686 0.19352,1.02133 0.18283,1.5363 m -20.48003,-5.29905 v 0 c -0.72535,0.59055 -1.32295,1.25048 -1.77418,1.95925 m -15.87253,-0.80307 v 0 c -0.38655,0.53639 -0.6752,1.10399 -0.85931,1.68971 m -19.35655,0.46217 v 0 c 1.12863,0.45734 2.17275,1.0078 3.10945,1.6393 m -27.28188,9.50667 v 0 c 0.11484,0.58392 0.29629,1.16061 0.54265,1.72473"
       fill-rule="evenodd"
       id="path13" />
    <path
       fill="#000000"
       d="m 117.38642,273.58334 v -9.54687 h 1.25 v 9.54687 z m 3.32799,0 v -6.90625 h 1.0625 v 0.98438 q 0.75,-1.14063 2.1875,-1.14063 0.625,0 1.15625,0.21875 0.53125,0.21875 0.78125,0.59375 0.26562,0.35938 0.375,0.85938 0.0625,0.32812 0.0625,1.14062 v 4.25 h -1.17188 v -4.20312 q 0,-0.71875 -0.14062,-1.0625 -0.14063,-0.35938 -0.48438,-0.5625 -0.34375,-0.21875 -0.8125,-0.21875 -0.75,0 -1.29687,0.46875 -0.54688,0.46875 -0.54688,1.79687 v 3.78125 z m 9.97497,-1.04687 0.17187,1.03125 q -0.5,0.10937 -0.89062,0.10937 -0.64063,0 -1,-0.20312 -0.34375,-0.20313 -0.48438,-0.53125 -0.14062,-0.32813 -0.14062,-1.39063 v -3.96875 h -0.85937 v -0.90625 h 0.85937 v -1.71875 l 1.17187,-0.70312 v 2.42187 h 1.17188 v 0.90625 h -1.17188 v 4.04688 q 0,0.5 0.0469,0.64062 0.0625,0.14063 0.20312,0.23438 0.14063,0.0781 0.40625,0.0781 0.20313,0 0.51563,-0.0469 z m 5.87486,-1.17188 1.20312,0.14063 q -0.28125,1.0625 -1.0625,1.65625 -0.76562,0.57812 -1.96875,0.57812 -1.51562,0 -2.40625,-0.9375 -0.89062,-0.9375 -0.89062,-2.60937 0,-1.75 0.89062,-2.70313 0.90625,-0.96875 2.34375,-0.96875 1.39063,0 2.26563,0.9375 0.875,0.9375 0.875,2.65625 0,0.10938 0,0.3125 h -5.15625 q 0.0625,1.14063 0.64062,1.75 0.57813,0.59375 1.4375,0.59375 0.65625,0 1.10938,-0.32812 0.45312,-0.34375 0.71875,-1.07813 z m -3.84375,-1.90625 h 3.85937 q -0.0781,-0.85937 -0.4375,-1.29687 -0.5625,-0.6875 -1.45312,-0.6875 -0.8125,0 -1.35938,0.54687 -0.54687,0.53125 -0.60937,1.4375 z m 6.50622,4.125 v -6.90625 h 1.0625 v 1.04688 q 0.40625,-0.73438 0.73438,-0.96875 0.34375,-0.23438 0.76562,-0.23438 0.59375,0 1.20313,0.375 l -0.40625,1.07813 q -0.4375,-0.25 -0.85938,-0.25 -0.39062,0 -0.70312,0.23437 -0.29688,0.23438 -0.42188,0.64063 -0.20312,0.625 -0.20312,1.35937 v 3.625 z m 4.454,0 v -6.90625 h 1.0625 v 0.98438 q 0.75,-1.14063 2.1875,-1.14063 0.625,0 1.15625,0.21875 0.53125,0.21875 0.78125,0.59375 0.26562,0.35938 0.375,0.85938 0.0625,0.32812 0.0625,1.14062 v 4.25 h -1.17188 v -4.20312 q 0,-0.71875 -0.14062,-1.0625 -0.14063,-0.35938 -0.48438,-0.5625 -0.34375,-0.21875 -0.8125,-0.21875 -0.75,0 -1.29687,0.46875 -0.54688,0.46875 -0.54688,1.79687 v 3.78125 z m 12.14685,-2.21875 1.20312,0.14063 q -0.28125,1.0625 -1.0625,1.65625 -0.76562,0.57812 -1.96875,0.57812 -1.51562,0 -2.40625,-0.9375 -0.89062,-0.9375 -0.89062,-2.60937 0,-1.75 0.89062,-2.70313 0.90625,-0.96875 2.34375,-0.96875 1.39063,0 2.26563,0.9375 0.875,0.9375 0.875,2.65625 0,0.10938 0,0.3125 h -5.15625 q 0.0625,1.14063 0.64062,1.75 0.57813,0.59375 1.4375,0.59375 0.65625,0 1.10938,-0.32812 0.45312,-0.34375 0.71875,-1.07813 z m -3.84375,-1.90625 h 3.85937 q -0.0781,-0.85937 -0.4375,-1.29687 -0.5625,-0.6875 -1.45312,-0.6875 -0.8125,0 -1.35938,0.54687 -0.54687,0.53125 -0.60937,1.4375 z m 9.08435,3.07813 0.17188,1.03125 q -0.5,0.10937 -0.89063,0.10937 -0.64062,0 -1,-0.20312 -0.34375,-0.20313 -0.48437,-0.53125 -0.14063,-0.32813 -0.14063,-1.39063 v -3.96875 h -0.85937 v -0.90625 h 0.85937 v -1.71875 l 1.17188,-0.70312 v 2.42187 h 1.17187 v 0.90625 h -1.17187 v 4.04688 q 0,0.5 0.0469,0.64062 0.0625,0.14063 0.20313,0.23438 0.14062,0.0781 0.40625,0.0781 0.20312,0 0.51562,-0.0469 z"
       fill-rule="nonzero"
       id="path15" />
    <path
       fill="#ffffff"
       d="m 309.45996,250.80347 h 86.39368 v 38.39371 h -86.39368 z"
       fill-rule="evenodd"
       id="path17" />
    <path
       stroke="#595959"
       stroke-width="1"
       stroke-linejoin="round"
       stroke-linecap="butt"
       d="m 309.45996,250.80347 h 86.39368 v 38.39371 h -86.39368 z"
       fill-rule="evenodd"
       id="path19" />
    <path
       fill="#000000"
       d="m 342.7818,275.67282 h -5.4375 q -1.5625,0 -1.5625,-1.625 v -3.375 h -5 v -1.375 h 5 v -2.875 h -3.8125 v -1.375 h 9.9375 v 1.375 h -4.6875 v 2.875 h 6.25 v 1.375 h -6.25 v 2.875 q 0,0.75 0.6875,0.75 h 4.9375 z m 8.75,-6.0625 h -6.25 v -1.375 h 12.8125 v 1.375 h -5.125 v 0.8125 q 0,3.9375 -2.8125,6.5 l -1.25,-0.9375 q 2.625,-2.0625 2.625,-5.5625 z m -4,-3.8125 v -1.375 h 7.6875 v 1.375 z m 8.5,-2.5625 q 0.8125,0.8125 1.75,2.1875 l -0.875,0.625 q -0.875,-1.25 -1.75,-2.25 z m 1.5,-0.8125 q 0.8125,0.875 1.75,2.125 l -0.875,0.625 q -1,-1.375 -1.75,-2.125 z m 3,11.1875 2.625,-0.0625 q 2.25,-4.875 3.4375,-9.9375 l 1.4375,0.5 q 0.5625,0.375 -0.125,0.5625 -1.1875,4.4375 -3.1875,8.75 l 6.5,-0.3125 q -1.3125,-1.75 -2.0625,-2.5625 l 1.25,-0.875 q 2.125,2.3125 4.0625,5.4375 l -1.375,0.9375 -1,-1.625 -10.5,0.8125 q -0.375,0.625 -0.5625,0 z"
       fill-rule="nonzero"
       id="path21" />
    <path
       fill="#ffffff"
       d="m 509.08005,250.80347 h 86.39371 v 38.39371 h -86.39371 z"
       fill-rule="evenodd"
       id="path23" />
    <path
       stroke="#595959"
       stroke-width="1"
       stroke-linejoin="round"
       stroke-linecap="butt"
       d="m 509.08005,250.80347 h 86.39371 v 38.39371 h -86.39371 z"
       fill-rule="evenodd"
       id="path25" />
    <path
       fill="#000000"
       d="m 532.1519,274.04782 q 2.75,-1.0625 5.0625,-4.25 l 0.875,1.1875 q -2.375,3.25 -6,4.6875 l -0.5,0.25 -1,-0.75 0.125,-0.3125 v -10.0625 h 1.3125 q 0.5625,0.125 0.125,0.5 z m -8.375,1.6875 q 3.125,-3 3.125,-7.4375 v -2.8125 h 1.3125 q 0.5625,0.125 0.125,0.5 v 2.25 q 0,5.25 -3.3125,8.3125 z m 15.75,-5 v -1.375 h 13.9375 v 1.375 z m 20.75,-6.5 q -0.25,0.75 -0.625,1.4375 h 4.1875 l 0.6875,-0.25 0.8125,0.8125 q 0.25,0.3125 -0.25,0.5 -0.5,2.5 -1.5,4.5625 l 1.5,1 -0.9375,1.375 -1.375,-1 q -1.8125,2.625 -5.1875,4.3125 l -1.4375,-1.0625 q 3.75,-1.5625 5.375,-4.125 -1.5625,-1 -3.0625,-1.8125 l 0.75,-1.125 q 1.9375,0.875 3.1875,1.625 0.9375,-1.9375 1.125,-3.4375 h -4.5625 q -1.1875,2.125 -2.9375,3.875 l -1.1875,-0.8125 q 3.1875,-3.3125 4.1875,-7 l 1.5,0.625 q 0.5,0.25 -0.25,0.5 z m 6.875,6.5 v -1.375 h 13.9375 v 1.375 z"
       fill-rule="nonzero"
       id="path27" />
    <path
       fill="#000000"
       fill-opacity="0"
       d="M 196.14743,270.0003 H 309.47028"
       fill-rule="evenodd"
       id="path29" />
    <path
       stroke="#595959"
       stroke-width="1"
       stroke-linejoin="round"
       stroke-linecap="butt"
       d="M 196.14743,270.0003 H 309.47028"
       fill-rule="evenodd"
       id="path31" />
    <path
       fill="#000000"
       fill-opacity="0"
       d="M 395.85364,270.0003 H 509.082"
       fill-rule="evenodd"
       id="path33" />
    <path
       stroke="#595959"
       stroke-width="1"
       stroke-linejoin="round"
       stroke-linecap="butt"
       d="M 395.85364,270.0003 H 509.082"
       fill-rule="evenodd"
       id="path35" />
    <path
       fill="#000000"
       fill-opacity="0"
       d="m 471.521,296.25986 h 161.51184 v 33.92123 H 471.521 Z"
       fill-rule="evenodd"
       id="path37" />
    <path
       fill="#000000"
       d="m 481.47412,316.77985 v -8.59375 h 6.20313 v 1.01562 h -5.0625 v 2.625 h 4.75 v 1.01563 h -4.75 v 2.92187 h 5.26562 v 1.01563 z m 7.92578,0 v -8.59375 h 1.14063 v 7.57812 h 4.23437 v 1.01563 z m 6.75195,0 v -8.59375 h 6.20313 v 1.01562 h -5.0625 v 2.625 h 4.75 v 1.01563 h -4.75 v 2.92187 h 5.26562 v 1.01563 z m 14.11329,-3.01563 1.125,0.29688 q -0.35938,1.39062 -1.28125,2.125 -0.92188,0.73437 -2.26563,0.73437 -1.39062,0 -2.26562,-0.5625 -0.875,-0.5625 -1.32813,-1.625 -0.45312,-1.07812 -0.45312,-2.3125 0,-1.34375 0.51562,-2.34375 0.51563,-1 1.45313,-1.51562 0.95312,-0.51563 2.09375,-0.51563 1.28125,0 2.15625,0.65625 0.89062,0.65625 1.23437,1.84375 l -1.125,0.26563 q -0.29687,-0.9375 -0.875,-1.35938 -0.5625,-0.4375 -1.42187,-0.4375 -0.98438,0 -1.65625,0.48438 -0.65625,0.46875 -0.9375,1.26562 -0.26563,0.79688 -0.26563,1.65625 0,1.09375 0.3125,1.90625 0.32813,0.8125 1,1.21875 0.67188,0.40625 1.46875,0.40625 0.95313,0 1.60938,-0.54687 0.67187,-0.54688 0.90625,-1.64063 z m 2.18164,-1.17187 q 0,-2.14063 1.14062,-3.34375 1.15625,-1.21875 2.96875,-1.21875 1.20313,0 2.15625,0.57812 0.95313,0.5625 1.45313,1.57813 0.5,1.01562 0.5,2.3125 0,1.29687 -0.53125,2.32812 -0.53125,1.03125 -1.5,1.5625 -0.95313,0.53125 -2.07813,0.53125 -1.21875,0 -2.17187,-0.57812 -0.95313,-0.59375 -1.45313,-1.59375 -0.48437,-1.01563 -0.48437,-2.15625 z m 1.17187,0.0156 q 0,1.5625 0.82813,2.45313 0.84375,0.89062 2.10937,0.89062 1.28125,0 2.10938,-0.89062 0.82812,-0.90625 0.82812,-2.57813 0,-1.04687 -0.35937,-1.82812 -0.34375,-0.78125 -1.03125,-1.20313 -0.6875,-0.4375 -1.53125,-0.4375 -1.20313,0 -2.07813,0.82813 -0.875,0.82812 -0.875,2.76562 z m 8.47461,4.17188 v -8.59375 h 1.71875 l 2.03125,6.07812 q 0.28125,0.85938 0.40625,1.28125 0.14062,-0.46875 0.45312,-1.375 l 2.0625,-5.98437 h 1.53125 v 8.59375 h -1.09375 v -7.1875 l -2.5,7.1875 h -1.03125 l -2.48437,-7.3125 v 7.3125 z m 14.86133,0 -2.28125,-8.59375 h 1.17187 l 1.3125,5.64062 q 0.20313,0.875 0.35938,1.75 0.32812,-1.375 0.39062,-1.59375 l 1.625,-5.79687 h 1.375 l 1.23438,4.34375 q 0.45312,1.625 0.67187,3.04687 0.15625,-0.8125 0.42188,-1.875 l 1.34375,-5.51562 h 1.14062 l -2.34375,8.59375 h -1.10937 l -1.79688,-6.54688 q -0.23437,-0.8125 -0.28125,-1 -0.125,0.57813 -0.25,1 l -1.8125,6.54688 z m 9.84179,0 v -8.59375 h 3.8125 q 1.15625,0 1.75,0.23437 0.59375,0.23438 0.95313,0.82813 0.35937,0.57812 0.35937,1.28125 0,0.92187 -0.59375,1.54687 -0.59375,0.625 -1.82812,0.79688 0.45312,0.21875 0.6875,0.42187 0.5,0.45313 0.9375,1.14063 l 1.5,2.34375 h -1.4375 l -1.125,-1.78125 q -0.5,-0.78125 -0.82813,-1.1875 -0.3125,-0.40625 -0.57812,-0.5625 -0.25,-0.17188 -0.51563,-0.25 -0.1875,-0.0312 -0.625,-0.0312 h -1.32812 v 3.8125 z m 1.14063,-4.79688 h 2.45312 q 0.76563,0 1.20313,-0.15625 0.45312,-0.17187 0.67187,-0.51562 0.23438,-0.35938 0.23438,-0.78125 0,-0.60938 -0.45313,-1 -0.4375,-0.39063 -1.39062,-0.39063 h -2.71875 z m 13.65039,1.78125 1.125,0.29688 q -0.35937,1.39062 -1.28125,2.125 -0.92187,0.73437 -2.26562,0.73437 -1.39063,0 -2.26563,-0.5625 -0.875,-0.5625 -1.32812,-1.625 -0.45313,-1.07812 -0.45313,-2.3125 0,-1.34375 0.51563,-2.34375 0.51562,-1 1.45312,-1.51562 0.95313,-0.51563 2.09375,-0.51563 1.28125,0 2.15625,0.65625 0.89063,0.65625 1.23438,1.84375 l -1.125,0.26563 q -0.29688,-0.9375 -0.875,-1.35938 -0.5625,-0.4375 -1.42188,-0.4375 -0.98437,0 -1.65625,0.48438 -0.65625,0.46875 -0.9375,1.26562 -0.26562,0.79688 -0.26562,1.65625 0,1.09375 0.3125,1.90625 0.32812,0.8125 1,1.21875 0.67187,0.40625 1.46875,0.40625 0.95312,0 1.60937,-0.54687 0.67188,-0.54688 0.90625,-1.64063 z m 1.97852,0.4375 v -1.0625 h 3.25 v 1.0625 z m 4.12109,0.3125 1.0625,-0.14062 q 0.17188,0.89062 0.60938,1.29687 0.4375,0.39063 1.0625,0.39063 0.75,0 1.26562,-0.51563 0.51563,-0.51562 0.51563,-1.28125 0,-0.71875 -0.48438,-1.1875 -0.46875,-0.48437 -1.20312,-0.48437 -0.29688,0 -0.75,0.125 l 0.125,-0.9375 q 0.10937,0.0156 0.17187,0.0156 0.67188,0 1.20313,-0.34375 0.54687,-0.35937 0.54687,-1.09375 0,-0.57812 -0.39062,-0.95312 -0.39063,-0.39063 -1.01563,-0.39063 -0.60937,0 -1.03125,0.39063 -0.40625,0.39062 -0.51562,1.15625 l -1.0625,-0.1875 q 0.1875,-1.04688 0.875,-1.625 0.6875,-0.59375 1.70312,-0.59375 0.70313,0 1.29688,0.3125 0.59375,0.29687 0.90625,0.8125 0.3125,0.51562 0.3125,1.10937 0,0.54688 -0.29688,1.01563 -0.29687,0.45312 -0.875,0.71875 0.75,0.17187 1.17188,0.73437 0.42187,0.54688 0.42187,1.39063 0,1.125 -0.82812,1.90625 -0.8125,0.78125 -2.0625,0.78125 -1.125,0 -1.875,-0.67188 -0.75,-0.6875 -0.85938,-1.75 z m 6.67383,-1.96875 q 0,-1.53125 0.3125,-2.45312 0.3125,-0.9375 0.92187,-1.4375 0.625,-0.5 1.5625,-0.5 0.6875,0 1.20313,0.28125 0.53125,0.28125 0.875,0.8125 0.34375,0.51562 0.53125,1.26562 0.1875,0.75 0.1875,2.03125 0,1.51563 -0.3125,2.4375 -0.29688,0.92188 -0.92188,1.4375 -0.60937,0.5 -1.5625,0.5 -1.23437,0 -1.95312,-0.89062 -0.84375,-1.0625 -0.84375,-3.48438 z m 1.07812,0 q 0,2.10938 0.5,2.8125 0.5,0.70313 1.21875,0.70313 0.73438,0 1.21875,-0.70313 0.5,-0.70312 0.5,-2.8125 0,-2.125 -0.5,-2.8125 -0.48437,-0.70312 -1.23437,-0.70312 -0.71875,0 -1.15625,0.60937 -0.54688,0.78125 -0.54688,2.90625 z m 5.59571,0 q 0,-1.53125 0.3125,-2.45312 0.3125,-0.9375 0.92187,-1.4375 0.625,-0.5 1.5625,-0.5 0.6875,0 1.20313,0.28125 0.53125,0.28125 0.875,0.8125 0.34375,0.51562 0.53125,1.26562 0.1875,0.75 0.1875,2.03125 0,1.51563 -0.3125,2.4375 -0.29688,0.92188 -0.92188,1.4375 -0.60937,0.5 -1.5625,0.5 -1.23437,0 -1.95312,-0.89062 -0.84375,-1.0625 -0.84375,-3.48438 z m 1.07812,0 q 0,2.10938 0.5,2.8125 0.5,0.70313 1.21875,0.70313 0.73438,0 1.21875,-0.70313 0.5,-0.70312 0.5,-2.8125 0,-2.125 -0.5,-2.8125 -0.48437,-0.70312 -1.23437,-0.70312 -0.71875,0 -1.15625,0.60937 -0.54688,0.78125 -0.54688,2.90625 z m 6.08008,4.23438 v -8.59375 h 5.79687 v 1.01562 h -4.65625 v 2.65625 h 4.03125 v 1.01563 h -4.03125 v 3.90625 z m 7.29883,0 v -8.59375 h 6.20312 v 1.01562 h -5.0625 v 2.625 h 4.75 v 1.01563 h -4.75 v 2.92187 h 5.26563 v 1.01563 z m 7.92578,0 v -8.59375 h 3.23437 q 0.98438,0 1.57813,0.26562 0.59375,0.26563 0.92187,0.8125 0.34375,0.53125 0.34375,1.125 0,0.54688 -0.29687,1.03125 -0.29688,0.48438 -0.90625,0.78125 0.78125,0.23438 1.1875,0.79688 0.42187,0.54687 0.42187,1.29687 0,0.59375 -0.25,1.125 -0.25,0.51563 -0.625,0.79688 -0.375,0.28125 -0.95312,0.42187 -0.5625,0.14063 -1.375,0.14063 z m 1.14062,-4.98438 h 1.85938 q 0.75,0 1.07812,-0.0937 0.4375,-0.125 0.65625,-0.42187 0.21875,-0.3125 0.21875,-0.76563 0,-0.42187 -0.20312,-0.75 -0.20313,-0.32812 -0.59375,-0.4375 -0.375,-0.125 -1.29688,-0.125 h -1.71875 z m 0,3.96875 h 2.14063 q 0.54687,0 0.76562,-0.0469 0.40625,-0.0625 0.65625,-0.21875 0.26563,-0.17188 0.4375,-0.48438 0.17188,-0.3125 0.17188,-0.71875 0,-0.48437 -0.25,-0.84375 -0.23438,-0.35937 -0.67188,-0.5 -0.4375,-0.14062 -1.26562,-0.14062 h -1.98438 z m 6.86328,1.01563 v -8.59375 h 1.14063 v 4.26562 l 4.26562,-4.26562 h 1.54688 l -3.60938,3.48437 3.76563,5.10938 h -1.5 l -3.0625,-4.34375 -1.40625,1.35937 v 2.98438 z"
       fill-rule="nonzero"
       id="path39" />
    <path
       fill="#ffffff"
       d="m 714.8228,149.59055 h 139.30713 v 38.39371 H 714.8228 Z"
       fill-rule="evenodd"
       id="path41" />
    <path
       stroke="#595959"
       stroke-width="1"
       stroke-linejoin="round"
       stroke-linecap="butt"
       d="m 714.8228,149.59055 h 139.30713 v 38.39371 H 714.8228 Z"
       fill-rule="evenodd"
       id="path43" />
    <path
       fill="#000000"
       d="m 742.26935,166.6474 q -2.1875,-1.1875 -3.5625,-3.5625 -1.375,2.25 -3.1875,3.5625 z m 2.9375,1.3125 q -1.0625,-0.25 -2.8125,-1.25 v 1.3125 h -7.0625 v -1.25 q -1.6875,1.1875 -3.1875,1.625 l -0.5625,-1.5 q 4.375,-1.1875 6.5,-5.125 l 1.3125,0.1875 q 0.5,0.0625 0.0625,0.375 2,3 6.375,4.125 z m -1.375,7.9375 q -0.5,-0.6875 -1.1875,-1.3125 l -9.0625,1 q -0.3125,0.3125 -0.5625,0.125 l -0.4375,-1.5625 2.5625,-0.125 1.75,-3.1875 h -4.5 v -1.375 h 12.8125 v 1.375 h -6.75 l -1.875,3.125 5.125,-0.375 q -0.8125,-0.75 -1.8125,-1.5 l 1.125,-0.75 q 3,2.25 4.125,3.75 z m 7.6875,-11.375 h 1.3125 l 0.25,-0.25 0.9375,0.9375 -0.4375,0.3125 q -0.75,1.4375 -2.0625,3.0625 1.5625,0.5 2.75,1.3125 l -0.6875,1.375 q -1.0625,-0.875 -2.0625,-1.4375 v 6.1875 h -1.25 v -6.1875 q -1.125,1 -2.3125,1.6875 l -0.5625,-1.25 q 3,-1.625 4.6875,-4.5625 h -4.125 v -1.1875 h 2.3125 v -2.6875 h 1.1875 q 0.5,0.0625 0.0625,0.375 z m 6.8125,-2.3125 q 0.625,0.125 0.0625,0.5 v 3.3125 h 2.875 v 1.375 h -2.875 v 6.5 h 3.4375 v 1.375 h -8.5625 v -1.375 h 3.6875 v -6.5 h -2.6875 v -1.375 h 2.6875 v -3.8125 z m 17.4375,8.5625 h -4.0625 v 4.75 h -1.25 v -4.75 h -3.75 q -0.125,3.25 -1.9375,5.1875 l -1,-1 q 1.6875,-1.875 1.6875,-4.375 v -8 h 11.5625 v 11.9375 q 0,1 -1,1 h -1.75 l -0.3125,-1.375 h 1.5625 q 0.25,0 0.25,-0.25 z m -9.0625,-3.5 v 2.3125 h 3.75 v -2.3125 z m 0,-3.5 v 2.3125 h 3.75 v -2.3125 z m 5,3.5 v 2.3125 h 4.0625 v -2.3125 z m 0,-3.5 v 2.3125 h 4.0625 v -2.3125 z m 17.25,0.625 q -1.3125,3.625 -2.9375,5.75 -2.0625,2.6875 -4.9375,4.5 l -1.5,-1.1875 q 2.8125,-1.4375 4.75,-3.75 2,-2.375 3.125,-6.5625 l 1.6875,0.75 q 0.4375,0.25 -0.1875,0.5 z m 1.9375,5.125 v -1.375 h 13.9375 v 1.375 z m 18.0625,-2.375 q 3.0625,0.875 6.1875,2.375 l -0.75,1.4375 q -3.3125,-1.6875 -5.4375,-2.25 v 6.5 h -1.4375 v -12.5 h 1.25 q 0.75,0.0625 0.1875,0.5 z"
       fill-rule="nonzero"
       id="path45" />
    <path
       fill="#000000"
       d="m 817.1287,174.6474 v -11.45313 h 4.32812 q 1.14063,0 1.73438,0.10938 0.84375,0.14062 1.40625,0.53125 0.57812,0.39062 0.92187,1.10937 0.35938,0.70313 0.35938,1.5625 0,1.45313 -0.9375,2.46875 -0.92188,1.01563 -3.35938,1.01563 h -2.9375 v 4.65625 z m 1.51562,-6.01563 h 2.96875 q 1.46875,0 2.07813,-0.54687 0.625,-0.54688 0.625,-1.53125 0,-0.71875 -0.375,-1.23438 -0.35938,-0.51562 -0.95313,-0.67187 -0.375,-0.10938 -1.40625,-0.10938 h -2.9375 z m 17.32813,2 1.51562,0.375 q -0.46875,1.875 -1.71875,2.85938 -1.23437,0.98437 -3.01562,0.98437 -1.85938,0 -3.01563,-0.75 -1.15625,-0.76562 -1.76562,-2.1875 -0.60938,-1.4375 -0.60938,-3.07812 0,-1.79688 0.6875,-3.125 0.6875,-1.32813 1.9375,-2.01563 1.26563,-0.70312 2.78125,-0.70312 1.71875,0 2.89063,0.875 1.17187,0.875 1.64062,2.46875 l -1.5,0.34375 q -0.39062,-1.25 -1.15625,-1.8125 -0.75,-0.57813 -1.90625,-0.57813 -1.3125,0 -2.20312,0.64063 -0.89063,0.625 -1.25,1.70312 -0.35938,1.0625 -0.35938,2.1875 0,1.46875 0.42188,2.5625 0.4375,1.07813 1.32812,1.625 0.90625,0.53125 1.95313,0.53125 1.26562,0 2.14062,-0.73437 0.89063,-0.73438 1.20313,-2.17188 z"
       fill-rule="nonzero"
       id="path47" />
    <path
       fill="#ffffff"
       d="m 714.8228,352.01575 h 152.28351 v 38.39371 H 714.8228 Z"
       fill-rule="evenodd"
       id="path49" />
    <path
       stroke="#595959"
       stroke-width="1"
       stroke-linejoin="round"
       stroke-linecap="butt"
       d="m 714.8228,352.01575 h 152.28351 v 38.39371 H 714.8228 Z"
       fill-rule="evenodd"
       id="path51" />
    <path
       fill="#000000"
       d="m 750.77704,378.0101 v -0.4375 h -7.1875 v 0.6875 h -1.0625 v -13.375 h 9.3125 v 13.125 z m -9.5,0.3125 h -1.25 v -7.6875 q -0.5,0.875 -1.1875,1.625 l -0.8125,-1.0625 q 2.125,-2.5 2.875,-7.125 l 1.3125,0.5 q 0.25,0.25 -0.1875,0.3125 -0.25,1.4375 -0.9375,3.5 0.75,0.0625 0.1875,0.4375 z m 4.5625,-6.625 v 2 h 2.8125 v -2 z m -2.25,-5.625 v 10.3125 h 7.1875 v -10.3125 z m 4.1875,2.0625 h 2.375 v 1.1875 h -2.375 v 1.375 h 1.9375 v 4.5 h -1.0625 v -0.5 h -2.8125 v 0.75 h -1.0625 v -4.75 h 1.75 v -1.375 h -2.3125 v -1.1875 h 2.3125 v -1.625 h 1.1875 q 0.5,0.0625 0.0625,0.375 z m 12.8125,-3.375 h 1.375 q 0.625,0.125 0.0625,0.5 v 2.5625 q 0.4375,6 6.375,8.5625 l -0.75,1.5625 q -4.3125,-1.875 -6.125,-6.8125 -1.3125,4.6875 -5.9375,6.8125 l -0.9375,-1.375 q 5.9375,-2.3125 5.9375,-8.5625 z m 21.8125,8.4375 h -4.0625 v 4.75 h -1.25 v -4.75 h -3.75 q -0.125,3.25 -1.9375,5.1875 l -1,-1 q 1.6875,-1.875 1.6875,-4.375 v -8 h 11.5625 v 11.9375 q 0,1 -1,1 h -1.75 l -0.3125,-1.375 h 1.5625 q 0.25,0 0.25,-0.25 z m -9.0625,-3.5 v 2.3125 h 3.75 v -2.3125 z m 0,-3.5 v 2.3125 h 3.75 v -2.3125 z m 5,3.5 v 2.3125 h 4.0625 v -2.3125 z m 0,-3.5 v 2.3125 h 4.0625 v -2.3125 z m 14.3125,4.625 h -6.25 v -1.375 h 12.8125 v 1.375 h -5.125 v 0.8125 q 0,3.9375 -2.8125,6.5 l -1.25,-0.9375 q 2.625,-2.0625 2.625,-5.5625 z m -4,-3.8125 v -1.375 h 7.6875 v 1.375 z m 8.5,-2.5625 q 0.8125,0.8125 1.75,2.1875 l -0.875,0.625 q -0.875,-1.25 -1.75,-2.25 z m 1.5,-0.8125 q 0.8125,0.875 1.75,2.125 l -0.875,0.625 q -1,-1.375 -1.75,-2.125 z m 12.9375,3.6875 q 3.125,3.9375 4.4375,8.3125 l -1.6875,0.5625 q -1.5625,-4.9375 -4.0625,-7.875 z m -4.75,1.4375 q 0.5,0.3125 -0.125,0.5625 -1.125,3.9375 -3.625,7.1875 l -1.4375,-0.9375 q 2.75,-3.3125 3.6875,-7.5 z m 7.5,-4.875 q 0.8125,0.6875 2,1.9375 l -0.8125,0.75 q -1.125,-1.25 -2,-2 z m -1.5,0.9375 q 0.9375,0.875 2,2.125 l -0.9375,0.6875 q -0.9375,-1.25 -1.9375,-2.125 z m 4.9375,7.6875 q 6.5625,-2.75 9.9375,-7.75 l 1.1875,1 q 0.5,0.375 -0.4375,0.5625 -1.1875,1.5625 -3.0625,3.1875 v 8.5 h -1.4375 v -7.3125 q -2.1875,1.6875 -5.125,3.0625 z m 20.625,-1.125 q 2.6875,2.0625 5.3125,4.75 l -1.25,1.0625 q -2.625,-2.75 -5.0625,-4.625 -2.4375,2.625 -5.5625,4.6875 l -1.1875,-1.0625 q 6.625,-4.3125 8.5,-8.625 l -6.8125,0.4375 -0.1875,-1.5 7.25,-0.3125 0.75,-0.1875 1,1 q 0.4375,0.4375 -0.25,0.5625 -1.1875,2.0625 -2.5,3.8125 z"
       fill-rule="nonzero"
       id="path53" />
    <path
       fill="#ffffff"
       d="m 714.8228,250.80315 h 152.28351 v 38.39369 H 714.8228 Z"
       fill-rule="evenodd"
       id="path55" />
    <path
       stroke="#595959"
       stroke-width="1"
       stroke-linejoin="round"
       stroke-linecap="butt"
       d="m 714.8228,250.80315 h 152.28351 v 38.39369 H 714.8228 Z"
       fill-rule="evenodd"
       id="path57" />
    <path
       fill="#000000"
       d="m 747.57,269.61 h -6.25 v -1.375 h 12.8125 v 1.375 h -5.125 v 0.8125 q 0,3.9375 -2.8125,6.5 l -1.25,-0.9375 q 2.625,-2.0625 2.625,-5.5625 z m -4,-3.8125 v -1.375 h 7.6875 v 1.375 z m 8.5,-2.5625 q 0.8125,0.8125 1.75,2.1875 l -0.875,0.625 q -0.875,-1.25 -1.75,-2.25 z m 1.5,-0.8125 q 0.8125,0.875 1.75,2.125 l -0.875,0.625 q -1,-1.375 -1.75,-2.125 z m 10.5625,7.75 q 2.6875,2.0625 5.3125,4.75 l -1.25,1.0625 q -2.625,-2.75 -5.0625,-4.625 -2.4375,2.625 -5.5625,4.6875 l -1.1875,-1.0625 q 6.625,-4.3125 8.5,-8.625 l -6.8125,0.4375 -0.1875,-1.5 7.25,-0.3125 0.75,-0.1875 1,1 q 0.4375,0.4375 -0.25,0.5625 -1.1875,2.0625 -2.5,3.8125 z m 17.6875,-2.875 q -1.1875,6.8125 -7.8125,9.75 l -1.125,-1.1875 q 6.125,-2.5 7.375,-8.625 h -5 q -1.4375,2.375 -3,3.8125 l -1.25,-0.8125 q 3.25,-2.9375 4.1875,-6.875 l 1.4375,0.5 q 0.375,0.1875 -0.125,0.375 -0.25,0.8125 -0.6875,1.625 h 4.5 l 0.5625,-0.3125 1.125,1.125 q 0.4375,0.4375 -0.1875,0.625 z m 4.6875,1.0625 q 3.0625,0.875 6.1875,2.375 l -0.75,1.4375 q -3.3125,-1.6875 -5.4375,-2.25 v 6.5 H 785.07 v -12.5 h 1.25 q 0.75,0.0625 0.1875,0.5 z m 17.6875,-0.125 q -0.4375,4.0625 -2.25,5.875 -1.8125,1.8125 -4.75,2.875 l -0.8125,-1.1875 q 2.875,-0.9375 4.5,-2.5625 1.75,-1.75 2,-5.9375 l 1.3125,0.4375 q 0.5625,0.1875 0,0.5 z m -5.3125,2.25 q -0.75,-1.6875 -1.5,-2.8125 l 1.1875,-0.625 q 0.9375,1.1875 1.625,2.8125 z m -3.1875,0.9375 q -0.75,-1.75 -1.5625,-2.9375 l 1.25,-0.625 q 0.875,1.1875 1.5625,2.875 z m 21.5,-6.3125 q 0.5,0 0.8125,-0.3125 0.3125,-0.3125 0.3125,-0.8125 0,-0.5 -0.3125,-0.8125 -0.3125,-0.3125 -0.8125,-0.3125 -0.5,0 -0.8125,0.3125 -0.3125,0.3125 -0.3125,0.8125 0,0.5 0.3125,0.8125 0.3125,0.3125 0.8125,0.3125 z m 0,0.625 q -0.75,0 -1.25,-0.5 -0.5,-0.5 -0.5,-1.25 0,-0.75 0.5,-1.25 0.5,-0.5 1.25,-0.5 0.75,0 1.25,0.5 0.5,0.5 0.5,1.25 0,0.75 -0.5,1.25 -0.5,0.5 -1.25,0.5 z m -11.1875,0.8125 v -1.375 h 9.25 l 1.625,1.1875 q -0.3125,7.5625 -8.5625,9.875 l -1.125,-1.375 q 7.8125,-1.8125 8.1875,-8.3125 z"
       fill-rule="nonzero"
       id="path59" />
    <path
       fill="#000000"
       d="m 820.5544,275.86 v -11.45312 h 4.32812 q 1.14063,0 1.73438,0.10937 0.84375,0.14063 1.40625,0.53125 0.57812,0.39063 0.92187,1.10938 0.35938,0.70312 0.35938,1.5625 0,1.45312 -0.9375,2.46875 -0.92188,1.01562 -3.35938,1.01562 h -2.9375 V 275.86 Z m 1.51562,-6.01562 h 2.96875 q 1.46875,0 2.07813,-0.54688 0.625,-0.54687 0.625,-1.53125 0,-0.71875 -0.375,-1.23437 -0.35938,-0.51563 -0.95313,-0.67188 -0.375,-0.10937 -1.40625,-0.10937 h -2.9375 z m 17.32813,2 1.51562,0.375 q -0.46875,1.875 -1.71875,2.85937 -1.23437,0.98438 -3.01562,0.98438 -1.85938,0 -3.01563,-0.75 -1.15625,-0.76563 -1.76562,-2.1875 -0.60938,-1.4375 -0.60938,-3.07813 0,-1.79687 0.6875,-3.125 0.6875,-1.32812 1.9375,-2.01562 1.26563,-0.70313 2.78125,-0.70313 1.71875,0 2.89063,0.875 1.17187,0.875 1.64062,2.46875 l -1.5,0.34375 q -0.39062,-1.25 -1.15625,-1.8125 -0.75,-0.57812 -1.90625,-0.57812 -1.3125,0 -2.20312,0.64062 -0.89063,0.625 -1.25,1.70313 -0.35938,1.0625 -0.35938,2.1875 0,1.46875 0.42188,2.5625 0.4375,1.07812 1.32812,1.625 0.90625,0.53125 1.95313,0.53125 1.26562,0 2.14062,-0.73438 0.89063,-0.73437 1.20313,-2.17187 z"
       fill-rule="nonzero"
       id="path61" />
    <path
       fill="#000000"
       fill-opacity="0"
       d="M 595.47375,270.0003 714.81231,168.77197"
       fill-rule="evenodd"
       id="path63" />
    <path
       stroke="#595959"
       stroke-width="1"
       stroke-linejoin="round"
       stroke-linecap="butt"
       d="M 595.47375,270.0003 714.81231,168.77197"
       fill-rule="evenodd"
       id="path65" />
    <path
       fill="#000000"
       fill-opacity="0"
       d="M 595.47375,270.0003 H 714.81231"
       fill-rule="evenodd"
       id="path67" />
    <path
       stroke="#595959"
       stroke-width="1"
       stroke-linejoin="round"
       stroke-linecap="butt"
       d="M 595.47375,270.0003 H 714.81231"
       fill-rule="evenodd"
       id="path69" />
    <path
       fill="#000000"
       fill-opacity="0"
       d="M 595.47375,270.0003 714.81231,371.19717"
       fill-rule="evenodd"
       id="path71" />
    <path
       stroke="#595959"
       stroke-width="1"
       stroke-linejoin="round"
       stroke-linecap="butt"
       stroke-dasharray="4, 3"
       d="M 595.47375,270.0003 714.81231,371.19717"
       fill-rule="evenodd"
       id="path73" />
    <path
       fill="#000000"
       fill-opacity="0"
       d="m 613.5525,193.48032 h 50.83466 v 32.31496 H 613.5525 Z"
       fill-rule="evenodd"
       id="path75" />
    <path
       fill="#000000"
       d="m 628.57916,209.79845 q 2.53125,-1.42188 3.26562,-3.65625 h -2.89062 v -0.8125 h 3.09375 q 0.14062,-0.51563 0.21875,-1.54688 l 1.125,0.21875 q 0.17187,0.17188 -0.14063,0.20313 l -0.20312,1.125 h 5.15625 v 0.8125 h -5.32813 q -0.17187,0.60937 -0.39062,0.98437 h 4.25 v 5.71875 q 0,0.6875 -0.6875,0.6875 h -0.98438 l -0.21875,-0.8125 h 0.85938 q 0.17187,0 0.17187,-0.17187 v -1.15625 h -3.73437 v 2.28125 h -0.85938 v -4.73438 q -1.03125,1.07813 -2.1875,1.76563 z m 3.5625,-0.17188 v 0.9375 h 3.73437 v -0.9375 z m 3.73437,-0.8125 v -0.85937 h -3.73437 v 0.85937 z m 10.75,-3.92187 h 2.0625 v 3.78125 h -1.89062 v 0.51562 q 0,0.3125 0.46875,1.07813 l 1.32812,-1.32813 0.60938,0.6875 q 0.0312,0.21875 -0.21875,0.125 l -1.32813,1.03125 q 0.6875,0.90625 1.84375,1.64063 l -0.46875,0.85937 q -1.34375,-0.85937 -2.23437,-2.45312 v 2.15625 q 0,0.64062 -0.51563,0.64062 h -0.82812 l -0.17188,-0.6875 h 0.60938 q 0.17187,0 0.17187,-0.17187 v -4.09375 h -0.95312 -0.89063 v -3.78125 h 1.625 l 0.26563,-1.15625 0.89062,0.17187 q 0.34375,0.125 -0.0312,0.26563 z m -0.85937,4.85937 -0.0937,0.21875 q -0.0469,2.40625 -1.89063,3.4375 l -0.5625,-0.64062 q 1.54688,-0.95313 1.64063,-2.5 h -1.125 v -0.6875 h 1.25 l 0.125,-0.125 z m -3.60938,-5.23437 q -0.90625,1.45312 -1.20312,1.89062 l 0.54687,0.46875 1.17188,-1.8125 0.6875,0.48438 q 0.17187,0.17187 -0.14063,0.20312 -1.15625,1.71875 -1.89062,2.57813 l 1.42187,-0.125 -0.29687,-0.59375 0.64062,-0.34375 q 0.64063,0.8125 0.95313,1.75 l -0.78125,0.34375 -0.21875,-0.46875 -0.89063,0.125 v 4.73437 h -0.85937 v -4.64062 l -1.42188,0.0781 q -0.21875,0.26563 -0.26562,-0.17187 l -0.0781,-0.64063 h 0.85938 l 0.59375,-0.8125 -1.32813,-1.07812 0.4375,-0.64063 0.20313,0.125 q 0.85937,-1.32812 1.20312,-2.0625 l 0.78125,0.39063 q 0.17188,0.17187 -0.125,0.21875 z m -2.40625,7.98437 q 0.34375,-1.625 0.34375,-2.57812 l 0.76563,0.0937 q 0.34375,0.0781 0.0469,0.20312 0,1.42188 -0.34375,2.71875 z m 5.1875,-6.0625 h 3.01563 v -0.85937 h -3.01563 z m 3.01563,1.54688 v -0.85938 h -3.01563 v 0.85938 z m -4.73438,1.89062 q 0.3125,0.65625 0.4375,1.8125 l -0.8125,0.17188 q -0.0469,-0.73438 -0.34375,-1.8125 z"
       fill-rule="nonzero"
       id="path77" />
    <path
       fill="#000000"
       fill-opacity="0"
       d="m 643.1063,243.74016 h 50.8346 v 32.31496 h -50.8346 z"
       fill-rule="evenodd"
       id="path79" />
    <path
       fill="#000000"
       d="m 658.133,260.0583 q 2.53125,-1.42188 3.26563,-3.65625 H 658.508 v -0.8125 h 3.09375 q 0.14063,-0.51563 0.21875,-1.54688 l 1.125,0.21875 q 0.17188,0.17188 -0.14062,0.20313 l -0.20313,1.125 h 5.15625 v 0.8125 h -5.32812 q -0.17188,0.60937 -0.39063,0.98437 h 4.25 v 5.71875 q 0,0.6875 -0.6875,0.6875 h -0.98437 l -0.21875,-0.8125 h 0.85937 q 0.17188,0 0.17188,-0.17187 v -1.15625 h -3.73438 v 2.28125 h -0.85937 v -4.73438 q -1.03125,1.07813 -2.1875,1.76563 z m 3.5625,-0.17188 v 0.9375 h 3.73438 v -0.9375 z m 3.73438,-0.8125 v -0.85937 h -3.73438 v 0.85937 z m 10.75,-3.92187 h 2.0625 v 3.78125 h -1.89063 v 0.51562 q 0,0.3125 0.46875,1.07813 l 1.32813,-1.32813 0.60937,0.6875 q 0.0312,0.21875 -0.21875,0.125 l -1.32812,1.03125 q 0.6875,0.90625 1.84375,1.64063 l -0.46875,0.85937 q -1.34375,-0.85937 -2.23438,-2.45312 v 2.15625 q 0,0.64062 -0.51562,0.64062 H 675.008 l -0.17187,-0.6875 h 0.60937 q 0.17188,0 0.17188,-0.17187 v -4.09375 h -0.95313 -0.89062 v -3.78125 h 1.625 l 0.26562,-1.15625 0.89063,0.17187 q 0.34375,0.125 -0.0312,0.26563 z m -0.85938,4.85937 -0.0937,0.21875 q -0.0469,2.40625 -1.89062,3.4375 l -0.5625,-0.64062 q 1.54687,-0.95313 1.64062,-2.5 h -1.125 v -0.6875 h 1.25 l 0.125,-0.125 z m -3.60937,-5.23437 q -0.90625,1.45312 -1.20313,1.89062 l 0.54688,0.46875 1.17187,-1.8125 0.6875,0.48438 q 0.17188,0.17187 -0.14062,0.20312 -1.15625,1.71875 -1.89063,2.57813 l 1.42188,-0.125 -0.29688,-0.59375 0.64063,-0.34375 q 0.64062,0.8125 0.95312,1.75 l -0.78125,0.34375 -0.21875,-0.46875 -0.89062,0.125 v 4.73437 h -0.85938 v -4.64062 l -1.42187,0.0781 q -0.21875,0.26563 -0.26563,-0.17187 l -0.0781,-0.64063 h 0.85937 l 0.59375,-0.8125 -1.32812,-1.07812 0.4375,-0.64063 0.20312,0.125 q 0.85938,-1.32812 1.20313,-2.0625 l 0.78125,0.39063 q 0.17187,0.17187 -0.125,0.21875 z m -2.40625,7.98437 q 0.34375,-1.625 0.34375,-2.57812 l 0.76562,0.0937 q 0.34375,0.0781 0.0469,0.20312 0,1.42188 -0.34375,2.71875 z m 5.1875,-6.0625 h 3.01562 v -0.85937 h -3.01562 z m 3.01562,1.54688 v -0.85938 h -3.01562 v 0.85938 z m -4.73437,1.89062 q 0.3125,0.65625 0.4375,1.8125 l -0.8125,0.17188 q -0.0469,-0.73438 -0.34375,-1.8125 z"
       fill-rule="nonzero"
       id="path81" />
    <path
       fill="#000000"
       fill-opacity="0"
       d="m 648.9409,297.063 h 50.83466 v 32.31497 H 648.9409 Z"
       fill-rule="evenodd"
       id="path83" />
    <path
       fill="#000000"
       d="m 672.7333,316.91235 q -0.65625,-0.95313 -1.59375,-1.98438 l 0.6875,-0.46875 q 0.8125,0.64063 1.67187,1.84375 z m -6.28125,-8.26563 h 6.57812 v 0.82813 h -0.90625 v 1.5 h 1.5 v 0.8125 h -1.5 v 1.5 h 1.375 v 0.82812 h -9.23437 v -0.82812 h 1.67187 v -1.5 h -1.79687 v -0.8125 h 1.79687 v -1.46875 q -0.59375,0.85937 -1.15625,1.20312 l -0.51562,-0.71875 q 1.25,-1 1.84375,-2.57812 l 0.85937,0.25 q 0.17188,0.17187 -0.125,0.21875 z m 3.4375,8.26563 q -0.34375,-1.39063 -0.64063,-2.20313 l 0.85938,-0.25 q 0.34375,0.8125 0.73437,2.14063 z m -3.34375,-2.07813 q 0.17187,0.17188 -0.14063,0.21875 -0.71875,1.34375 -1.40625,2.03125 l -0.6875,-0.60937 q 0.89063,-1.03125 1.40625,-2.0625 z m 3.8125,-5.35937 v 1.5 h 0.90625 v -1.5 z m -1.79688,0 v 1.5 h 0.9375 v -1.5 z m -1.76562,1.5 h 0.90625 v -1.5 h -0.90625 z m 3.5625,2.3125 h 0.90625 v -1.5 h -0.90625 z m -1.79688,-1.5 v 1.5 h 0.9375 v -1.5 z m -1.76562,0 v 1.5 h 0.90625 v -1.5 z m 1.375,2.75 q 0.26562,1.25 0.21875,2.45312 l -0.95313,0.0937 q 0,-1.34375 -0.17187,-2.5 z m 13.84375,-6.0625 h 2.0625 v 3.78125 h -1.89063 v 0.51562 q 0,0.3125 0.46875,1.07813 l 1.32813,-1.32813 0.60937,0.6875 q 0.0312,0.21875 -0.21875,0.125 l -1.32812,1.03125 q 0.6875,0.90625 1.84375,1.64063 l -0.46875,0.85937 q -1.34375,-0.85937 -2.23438,-2.45312 v 2.15625 q 0,0.64062 -0.51562,0.64062 h -0.82813 l -0.17187,-0.6875 h 0.60937 q 0.17188,0 0.17188,-0.17187 v -4.09375 h -0.95313 -0.89062 v -3.78125 h 1.625 l 0.26562,-1.15625 0.89063,0.17187 q 0.34375,0.125 -0.0312,0.26563 z m -0.85938,4.85937 -0.0937,0.21875 q -0.0469,2.40625 -1.89062,3.4375 l -0.5625,-0.64062 q 1.54687,-0.95313 1.64062,-2.5 h -1.125 v -0.6875 h 1.25 l 0.125,-0.125 z m -3.60937,-5.23437 q -0.90625,1.45312 -1.20313,1.89062 l 0.54688,0.46875 1.17187,-1.8125 0.6875,0.48438 q 0.17188,0.17187 -0.14062,0.20312 -1.15625,1.71875 -1.89063,2.57813 l 1.42188,-0.125 -0.29688,-0.59375 0.64063,-0.34375 q 0.64062,0.8125 0.95312,1.75 l -0.78125,0.34375 -0.21875,-0.46875 -0.89062,0.125 v 4.73437 h -0.85938 v -4.64062 l -1.42187,0.0781 q -0.21875,0.26563 -0.26563,-0.17187 l -0.0781,-0.64063 h 0.85937 l 0.59375,-0.8125 -1.32812,-1.07812 0.4375,-0.64063 0.20312,0.125 q 0.85938,-1.32812 1.20313,-2.0625 l 0.78125,0.39063 q 0.17187,0.17187 -0.125,0.21875 z m -2.40625,7.98437 q 0.34375,-1.625 0.34375,-2.57812 l 0.76562,0.0937 q 0.34375,0.0781 0.0469,0.20312 0,1.42188 -0.34375,2.71875 z m 5.1875,-6.0625 h 3.01562 v -0.85937 h -3.01562 z m 3.01562,1.54688 v -0.85938 h -3.01562 v 0.85938 z m -4.73437,1.89062 q 0.3125,0.65625 0.4375,1.8125 l -0.8125,0.17188 q -0.0469,-0.73438 -0.34375,-1.8125 z"
       fill-rule="nonzero"
       id="path85" />
  </g>
</svg>
