<?xml version="1.0" encoding="UTF-8" standalone="no"?>
<svg
   version="1.1"
   viewBox="0.0 0.0 960.0 540.0"
   fill="none"
   stroke="none"
   stroke-linecap="square"
   stroke-miterlimit="10"
   id="svg141"
   sodipodi:docname="network_configuration_ver1.1.svg"
   inkscape:version="1.2.1 (9c6d41e410, 2022-07-14)"
   xmlns:inkscape="http://www.inkscape.org/namespaces/inkscape"
   xmlns:sodipodi="http://sodipodi.sourceforge.net/DTD/sodipodi-0.dtd"
   xmlns="http://www.w3.org/2000/svg"
   xmlns:svg="http://www.w3.org/2000/svg">
  <defs
     id="defs145" />
  <sodipodi:namedview
     id="namedview143"
     pagecolor="#ffffff"
     bordercolor="#000000"
     borderopacity="0.25"
     inkscape:showpageshadow="2"
     inkscape:pageopacity="0.0"
     inkscape:pagecheckerboard="0"
     inkscape:deskcolor="#d1d1d1"
     showgrid="false"
     inkscape:zoom="1.325"
     inkscape:cx="480.37736"
     inkscape:cy="270.18868"
     inkscape:window-width="1858"
     inkscape:window-height="1057"
     inkscape:window-x="-8"
     inkscape:window-y="-8"
     inkscape:window-maximized="1"
     inkscape:current-layer="svg141" />
  <clipPath
     id="g1473bbeae72_0_0.0">
    <path
       d="m0 0l960.0 0l0 540.0l-960.0 0l0 -540.0z"
       clip-rule="nonzero"
       id="path2" />
  </clipPath>
  <g
     clip-path="url(#g1473bbeae72_0_0.0)"
     id="g139">
    <path
       fill="#ffffff"
       d="m212.01837 224.38058l155.30707 0l0 87.55905l-155.30707 0z"
       fill-rule="evenodd"
       id="path7" />
    <path
       stroke="#595959"
       stroke-width="1.0"
       stroke-linejoin="round"
       stroke-linecap="butt"
       d="m212.01837 224.38058l155.30707 0l0 87.55905l-155.30707 0z"
       fill-rule="evenodd"
       id="path9" />
    <path
       fill="#000000"
       d="m270.81253 271.537q2.578125 -1.0 4.734375 -3.984375l0.828125 1.109375q-2.234375 3.046875 -5.625 4.40625l-0.46875 0.234375l-0.9375 -0.703125l0.109375 -0.296875l0 -9.4375l1.234375 0q0.53125 0.125 0.125 0.46875l0 8.203125zm-7.859375 1.578125q2.9375 -2.8125 2.9375 -6.96875l0 -2.640625l1.21875 0q0.53125 0.125 0.125 0.46875l0 2.109375q0 4.921875 -3.109375 7.796875l-1.171875 -0.765625zm14.765625 -4.6875l0 -1.28125l13.0625 0l0 1.28125l-13.0625 0zm19.460938 -6.09375q-0.234375 0.703125 -0.59375 1.359375l3.921875 0l0.65625 -0.234375l0.75 0.75q0.234375 0.296875 -0.234375 0.46875q-0.46875 2.34375 -1.40625 4.28125l1.40625 0.9375l-0.875 1.296875l-1.28125 -0.9375q-1.703125 2.453125 -4.875 4.046875l-1.34375 -1.0q3.515625 -1.46875 5.046875 -3.875q-1.46875 -0.9375 -2.875 -1.703125l0.703125 -1.046875q1.8125 0.8125 2.984375 1.515625q0.875 -1.8125 1.0625 -3.21875l-4.28125 0q-1.109375 2.0 -2.75 3.640625l-1.125 -0.765625q3.0 -3.109375 3.9375 -6.5625l1.40625 0.578125q0.46875 0.234375 -0.234375 0.46875zm6.4375 6.09375l0 -1.28125l13.0625 0l0 1.28125l-13.0625 0z"
       fill-rule="nonzero"
       id="path11" />
    <path
       fill="#ffffff"
       d="m205.8143 264.20734l6.204727 0l0 7.9055176l-6.204727 0z"
       fill-rule="evenodd"
       id="path13" />
    <path
       stroke="#595959"
       stroke-width="1.0"
       stroke-linejoin="round"
       stroke-linecap="butt"
       d="m205.8143 264.20734l6.204727 0l0 7.9055176l-6.204727 0z"
       fill-rule="evenodd"
       id="path15" />
    <path
       fill="#ffffff"
       d="m367.3261 292.46457l6.2047424 0l0 7.9055176l-6.2047424 0z"
       fill-rule="evenodd"
       id="path17" />
    <path
       stroke="#595959"
       stroke-width="1.0"
       stroke-linejoin="round"
       stroke-linecap="butt"
       d="m367.3261 292.46457l6.2047424 0l0 7.9055176l-6.2047424 0z"
       fill-rule="evenodd"
       id="path19" />
    <path
       fill="#000000"
       fill-opacity="0.0"
       d="m465.57285 284.1601l0 154.58267"
       fill-rule="evenodd"
       id="path21" />
    <path
       stroke="#595959"
       stroke-width="3.0"
       stroke-linejoin="round"
       stroke-linecap="butt"
       d="m465.57285 284.1601l0 154.58267"
       fill-rule="evenodd"
       id="path23" />
    <path
       fill="#000000"
       fill-opacity="0.0"
       d="m406.2965 430.37534l118.55121 0l0 35.55905l-118.55121 0z"
       fill-rule="evenodd"
       id="path25" />
    <path
       fill="#000000"
       d="m422.36627 452.17532l-1.171875 0l0 -7.46875q-0.421875 0.40625 -1.109375 0.8125q-0.6875 0.40625 -1.234375 0.609375l0 -1.140625q0.984375 -0.453125 1.71875 -1.109375q0.734375 -0.671875 1.03125 -1.28125l0.765625 0l0 9.578125zm3.1781006 -2.203125l1.125 -0.109375q0.140625 0.796875 0.546875 1.15625q0.40625 0.359375 1.03125 0.359375q0.53125 0 0.9375 -0.25q0.421875 -0.25 0.671875 -0.65625q0.265625 -0.421875 0.4375 -1.125q0.171875 -0.703125 0.171875 -1.421875q0 -0.078125 0 -0.234375q-0.359375 0.546875 -0.96875 0.90625q-0.59375 0.34375 -1.3125 0.34375q-1.1875 0 -2.015625 -0.859375q-0.8125 -0.859375 -0.8125 -2.265625q0 -1.453125 0.859375 -2.328125q0.859375 -0.890625 2.140625 -0.890625q0.9375 0 1.703125 0.5q0.78125 0.5 1.171875 1.4375q0.40625 0.921875 0.40625 2.671875q0 1.828125 -0.40625 2.921875q-0.390625 1.078125 -1.171875 1.640625q-0.78125 0.5625 -1.84375 0.5625q-1.109375 0 -1.828125 -0.609375q-0.703125 -0.625 -0.84375 -1.75zm4.796875 -4.21875q0 -1.0 -0.546875 -1.59375q-0.53125 -0.59375 -1.28125 -0.59375q-0.78125 0 -1.375 0.640625q-0.578125 0.640625 -0.578125 1.65625q0 0.90625 0.546875 1.484375q0.5625 0.5625 1.359375 0.5625q0.828125 0 1.34375 -0.5625q0.53125 -0.578125 0.53125 -1.59375zm8.584351 5.296875l0 1.125l-6.296875 0q-0.015625 -0.421875 0.140625 -0.8125q0.234375 -0.640625 0.765625 -1.265625q0.53125 -0.625 1.53125 -1.453125q1.5625 -1.265625 2.109375 -2.015625q0.546875 -0.75 0.546875 -1.40625q0 -0.703125 -0.5 -1.171875q-0.5 -0.484375 -1.296875 -0.484375q-0.859375 0 -1.375 0.515625q-0.5 0.5 -0.5 1.390625l-1.203125 -0.109375q0.125 -1.359375 0.921875 -2.0625q0.8125 -0.703125 2.171875 -0.703125q1.375 0 2.171875 0.765625q0.8125 0.75 0.8125 1.875q0 0.578125 -0.234375 1.140625q-0.234375 0.546875 -0.78125 1.15625q-0.546875 0.609375 -1.8125 1.671875q-1.046875 0.890625 -1.359375 1.21875q-0.296875 0.3125 -0.484375 0.625l4.671875 0zm1.9124756 1.125l0 -1.328125l1.34375 0l0 1.328125l-1.34375 0zm7.4685974 0l-1.171875 0l0 -7.46875q-0.421875 0.40625 -1.109375 0.8125q-0.6875 0.40625 -1.234375 0.609375l0 -1.140625q0.984375 -0.453125 1.71875 -1.109375q0.734375 -0.671875 1.03125 -1.28125l0.765625 0l0 9.578125zm9.068726 -7.203125l-1.15625 0.09375q-0.15625 -0.6875 -0.4375 -1.0q-0.484375 -0.5 -1.171875 -0.5q-0.5625 0 -0.984375 0.3125q-0.5625 0.390625 -0.890625 1.171875q-0.3125 0.765625 -0.3125 2.203125q0.421875 -0.640625 1.03125 -0.953125q0.609375 -0.3125 1.28125 -0.3125q1.171875 0 1.984375 0.859375q0.828125 0.859375 0.828125 2.234375q0 0.890625 -0.390625 1.671875q-0.375 0.765625 -1.0625 1.171875q-0.671875 0.40625 -1.53125 0.40625q-1.46875 0 -2.390625 -1.0625q-0.921875 -1.078125 -0.921875 -3.5625q0 -2.765625 1.015625 -4.015625q0.90625 -1.09375 2.40625 -1.09375q1.125 0 1.84375 0.640625q0.71875 0.625 0.859375 1.734375zm-4.78125 4.109375q0 0.609375 0.25 1.171875q0.265625 0.546875 0.71875 0.84375q0.46875 0.28125 0.984375 0.28125q0.734375 0 1.265625 -0.59375q0.546875 -0.609375 0.546875 -1.640625q0 -0.984375 -0.53125 -1.546875q-0.53125 -0.578125 -1.328125 -0.578125q-0.796875 0 -1.359375 0.578125q-0.546875 0.5625 -0.546875 1.484375zm7.9281006 -2.078125q-0.734375 -0.265625 -1.09375 -0.765625q-0.34375 -0.5 -0.34375 -1.1875q0 -1.03125 0.75 -1.734375q0.75 -0.71875 1.984375 -0.71875q1.25 0 2.015625 0.734375q0.765625 0.71875 0.765625 1.75q0 0.671875 -0.359375 1.171875q-0.34375 0.484375 -1.046875 0.75q0.875 0.28125 1.328125 0.921875q0.46875 0.640625 0.46875 1.515625q0 1.234375 -0.875 2.0625q-0.859375 0.828125 -2.265625 0.828125q-1.421875 0 -2.28125 -0.828125q-0.859375 -0.84375 -0.859375 -2.09375q0 -0.921875 0.46875 -1.546875q0.46875 -0.640625 1.34375 -0.859375zm-0.234375 -1.984375q0 0.671875 0.4375 1.109375q0.4375 0.421875 1.125 0.421875q0.671875 0 1.109375 -0.421875q0.4375 -0.421875 0.4375 -1.046875q0 -0.640625 -0.453125 -1.078125q-0.4375 -0.4375 -1.109375 -0.4375q-0.671875 0 -1.109375 0.4375q-0.4375 0.421875 -0.4375 1.015625zm-0.375 4.40625q0 0.5 0.234375 0.96875q0.234375 0.46875 0.703125 0.734375q0.46875 0.25 1.015625 0.25q0.828125 0 1.375 -0.53125q0.546875 -0.546875 0.546875 -1.390625q0 -0.84375 -0.5625 -1.390625q-0.5625 -0.5625 -1.40625 -0.5625q-0.828125 0 -1.375 0.546875q-0.53125 0.546875 -0.53125 1.375zm6.8656006 2.75l0 -1.328125l1.34375 0l0 1.328125l-1.34375 0zm7.468628 0l-1.171875 0l0 -7.46875q-0.421875 0.40625 -1.109375 0.8125q-0.6875 0.40625 -1.234375 0.609375l0 -1.140625q0.984375 -0.453125 1.71875 -1.109375q0.734375 -0.671875 1.03125 -1.28125l0.765625 0l0 9.578125zm2.9906006 -4.703125q0 -1.6875 0.34375 -2.71875q0.359375 -1.03125 1.046875 -1.59375q0.6875 -0.5625 1.71875 -0.5625q0.78125 0 1.359375 0.3125q0.578125 0.296875 0.953125 0.890625q0.375 0.578125 0.59375 1.421875q0.21875 0.828125 0.21875 2.25q0 1.671875 -0.359375 2.703125q-0.34375 1.03125 -1.03125 1.59375q-0.671875 0.5625 -1.734375 0.5625q-1.375 0 -2.15625 -0.984375q-0.953125 -1.1875 -0.953125 -3.875zm1.203125 0q0 2.34375 0.546875 3.125q0.5625 0.78125 1.359375 0.78125q0.8125 0 1.359375 -0.78125q0.5625 -0.78125 0.5625 -3.125q0 -2.359375 -0.5625 -3.125q-0.546875 -0.78125 -1.359375 -0.78125q-0.8125 0 -1.296875 0.6875q-0.609375 0.875 -0.609375 3.21875zm6.8656006 4.703125l0 -1.328125l1.34375 0l0 1.328125l-1.34375 0zm3.0467224 -4.703125q0 -1.6875 0.34375 -2.71875q0.359375 -1.03125 1.046875 -1.59375q0.6875 -0.5625 1.71875 -0.5625q0.78125 0 1.359375 0.3125q0.578125 0.296875 0.953125 0.890625q0.375 0.578125 0.59375 1.421875q0.21875 0.828125 0.21875 2.25q0 1.671875 -0.359375 2.703125q-0.34375 1.03125 -1.03125 1.59375q-0.671875 0.5625 -1.734375 0.5625q-1.375 0 -2.15625 -0.984375q-0.953125 -1.1875 -0.953125 -3.875zm1.203125 0q0 2.34375 0.546875 3.125q0.5625 0.78125 1.359375 0.78125q0.8125 0 1.359375 -0.78125q0.5625 -0.78125 0.5625 -3.125q0 -2.359375 -0.5625 -3.125q-0.546875 -0.78125 -1.359375 -0.78125q-0.8125 0 -1.296875 0.6875q-0.609375 0.875 -0.609375 3.21875zm5.6624756 4.859375l2.765625 -9.859375l0.9375 0l-2.765625 9.859375l-0.9375 0zm10.406128 -1.28125l0 1.125l-6.296875 0q-0.015625 -0.421875 0.140625 -0.8125q0.234375 -0.640625 0.765625 -1.265625q0.53125 -0.625 1.53125 -1.453125q1.5625 -1.265625 2.109375 -2.015625q0.546875 -0.75 0.546875 -1.40625q0 -0.703125 -0.5 -1.171875q-0.5 -0.484375 -1.296875 -0.484375q-0.859375 0 -1.375 0.515625q-0.5 0.5 -0.5 1.390625l-1.203125 -0.109375q0.125 -1.359375 0.921875 -2.0625q0.8125 -0.703125 2.171875 -0.703125q1.375 0 2.171875 0.765625q0.8125 0.75 0.8125 1.875q0 0.578125 -0.234375 1.140625q-0.234375 0.546875 -0.78125 1.15625q-0.546875 0.609375 -1.8125 1.671875q-1.046875 0.890625 -1.359375 1.21875q-0.296875 0.3125 -0.484375 0.625l4.671875 0zm5.0218506 1.125l0 -2.28125l-4.140625 0l0 -1.078125l4.34375 -6.1875l0.96875 0l0 6.1875l1.28125 0l0 1.078125l-1.28125 0l0 2.28125l-1.171875 0zm0 -3.359375l0 -4.296875l-2.984375 4.296875l2.984375 0z"
       fill-rule="nonzero"
       id="path27" />
    <path
       fill="#000000"
       fill-opacity="0.0"
       d="m138.6017 268.1601l67.2126 0"
       fill-rule="evenodd"
       id="path29" />
    <path
       stroke="#595959"
       stroke-width="1.0"
       stroke-linejoin="round"
       stroke-linecap="butt"
       d="m138.6017 268.1601l67.2126 0"
       fill-rule="evenodd"
       id="path31" />
    <path
       fill="#000000"
       fill-opacity="0.0"
       d="m373.53085 296.41733l90.92911 0"
       fill-rule="evenodd"
       id="path33" />
    <path
       stroke="#595959"
       stroke-width="1.0"
       stroke-linejoin="round"
       stroke-linecap="butt"
       d="m373.53085 296.41733l90.92911 0"
       fill-rule="evenodd"
       id="path35" />
    <path
       fill="#000000"
       fill-opacity="0.0"
       d="m309.1049 303.93964l122.64566 0l0 35.55905l-122.64566 0z"
       fill-rule="evenodd"
       id="path37" />
    <path
       fill="#000000"
       d="m336.48587 325.73962l-1.171875 0l0 -7.46875q-0.421875 0.40625 -1.109375 0.8125q-0.6875 0.40625 -1.234375 0.609375l0 -1.140625q0.984375 -0.453125 1.71875 -1.109375q0.734375 -0.671875 1.03125 -1.28125l0.765625 0l0 9.578125zm3.1781006 -2.203125l1.125 -0.109375q0.140625 0.796875 0.546875 1.15625q0.40625 0.359375 1.03125 0.359375q0.53125 0 0.9375 -0.25q0.421875 -0.25 0.671875 -0.65625q0.265625 -0.421875 0.4375 -1.125q0.171875 -0.703125 0.171875 -1.421875q0 -0.078125 0 -0.234375q-0.359375 0.546875 -0.96875 0.90625q-0.59375 0.34375 -1.3125 0.34375q-1.1875 0 -2.015625 -0.859375q-0.8125 -0.859375 -0.8125 -2.265625q0 -1.453125 0.859375 -2.328125q0.859375 -0.890625 2.140625 -0.890625q0.9375 0 1.703125 0.5q0.78125 0.5 1.171875 1.4375q0.40625 0.921875 0.40625 2.671875q0 1.828125 -0.40625 2.921875q-0.390625 1.078125 -1.171875 1.640625q-0.78125 0.5625 -1.84375 0.5625q-1.109375 0 -1.828125 -0.609375q-0.703125 -0.625 -0.84375 -1.75zm4.796875 -4.21875q0 -1.0 -0.546875 -1.59375q-0.53125 -0.59375 -1.28125 -0.59375q-0.78125 0 -1.375 0.640625q-0.578125 0.640625 -0.578125 1.65625q0 0.90625 0.546875 1.484375q0.5625 0.5625 1.359375 0.5625q0.828125 0 1.34375 -0.5625q0.53125 -0.578125 0.53125 -1.59375zm8.584351 5.296875l0 1.125l-6.296875 0q-0.015625 -0.421875 0.140625 -0.8125q0.234375 -0.640625 0.765625 -1.265625q0.53125 -0.625 1.53125 -1.453125q1.5625 -1.265625 2.109375 -2.015625q0.546875 -0.75 0.546875 -1.40625q0 -0.703125 -0.5 -1.171875q-0.5 -0.484375 -1.296875 -0.484375q-0.859375 0 -1.375 0.515625q-0.5 0.5 -0.5 1.390625l-1.203125 -0.109375q0.125 -1.359375 0.921875 -2.0625q0.8125 -0.703125 2.171875 -0.703125q1.375 0 2.171875 0.765625q0.8125 0.75 0.8125 1.875q0 0.578125 -0.234375 1.140625q-0.234375 0.546875 -0.78125 1.15625q-0.546875 0.609375 -1.8125 1.671875q-1.046875 0.890625 -1.359375 1.21875q-0.296875 0.3125 -0.484375 0.625l4.671875 0zm1.9124756 1.125l0 -1.328125l1.34375 0l0 1.328125l-1.34375 0zm7.4685974 0l-1.171875 0l0 -7.46875q-0.421875 0.40625 -1.109375 0.8125q-0.6875 0.40625 -1.234375 0.609375l0 -1.140625q0.984375 -0.453125 1.71875 -1.109375q0.734375 -0.671875 1.03125 -1.28125l0.765625 0l0 9.578125zm9.068726 -7.203125l-1.15625 0.09375q-0.15625 -0.6875 -0.4375 -1.0q-0.484375 -0.5 -1.171875 -0.5q-0.5625 0 -0.984375 0.3125q-0.5625 0.390625 -0.890625 1.171875q-0.3125 0.765625 -0.3125 2.203125q0.421875 -0.640625 1.03125 -0.953125q0.609375 -0.3125 1.28125 -0.3125q1.171875 0 1.984375 0.859375q0.828125 0.859375 0.828125 2.234375q0 0.890625 -0.390625 1.671875q-0.375 0.765625 -1.0625 1.171875q-0.671875 0.40625 -1.53125 0.40625q-1.46875 0 -2.390625 -1.0625q-0.921875 -1.078125 -0.921875 -3.5625q0 -2.765625 1.015625 -4.015625q0.90625 -1.09375 2.40625 -1.09375q1.125 0 1.84375 0.640625q0.71875 0.625 0.859375 1.734375zm-4.78125 4.109375q0 0.609375 0.25 1.171875q0.265625 0.546875 0.71875 0.84375q0.46875 0.28125 0.984375 0.28125q0.734375 0 1.265625 -0.59375q0.546875 -0.609375 0.546875 -1.640625q0 -0.984375 -0.53125 -1.546875q-0.53125 -0.578125 -1.328125 -0.578125q-0.796875 0 -1.359375 0.578125q-0.546875 0.5625 -0.546875 1.484375zm7.9281006 -2.078125q-0.734375 -0.265625 -1.09375 -0.765625q-0.34375 -0.5 -0.34375 -1.1875q0 -1.03125 0.75 -1.734375q0.75 -0.71875 1.984375 -0.71875q1.25 0 2.015625 0.734375q0.765625 0.71875 0.765625 1.75q0 0.671875 -0.359375 1.171875q-0.34375 0.484375 -1.046875 0.75q0.875 0.28125 1.328125 0.921875q0.46875 0.640625 0.46875 1.515625q0 1.234375 -0.875 2.0625q-0.859375 0.828125 -2.265625 0.828125q-1.421875 0 -2.28125 -0.828125q-0.859375 -0.84375 -0.859375 -2.09375q0 -0.921875 0.46875 -1.546875q0.46875 -0.640625 1.34375 -0.859375zm-0.234375 -1.984375q0 0.671875 0.4375 1.109375q0.4375 0.421875 1.125 0.421875q0.671875 0 1.109375 -0.421875q0.4375 -0.421875 0.4375 -1.046875q0 -0.640625 -0.453125 -1.078125q-0.4375 -0.4375 -1.109375 -0.4375q-0.671875 0 -1.109375 0.4375q-0.4375 0.421875 -0.4375 1.015625zm-0.375 4.40625q0 0.5 0.234375 0.96875q0.234375 0.46875 0.703125 0.734375q0.46875 0.25 1.015625 0.25q0.828125 0 1.375 -0.53125q0.546875 -0.546875 0.546875 -1.390625q0 -0.84375 -0.5625 -1.390625q-0.5625 -0.5625 -1.40625 -0.5625q-0.828125 0 -1.375 0.546875q-0.53125 0.546875 -0.53125 1.375zm6.8656006 2.75l0 -1.328125l1.34375 0l0 1.328125l-1.34375 0zm7.468628 0l-1.171875 0l0 -7.46875q-0.421875 0.40625 -1.109375 0.8125q-0.6875 0.40625 -1.234375 0.609375l0 -1.140625q0.984375 -0.453125 1.71875 -1.109375q0.734375 -0.671875 1.03125 -1.28125l0.765625 0l0 9.578125zm2.9906006 -4.703125q0 -1.6875 0.34375 -2.71875q0.359375 -1.03125 1.046875 -1.59375q0.6875 -0.5625 1.71875 -0.5625q0.78125 0 1.359375 0.3125q0.578125 0.296875 0.953125 0.890625q0.375 0.578125 0.59375 1.421875q0.21875 0.828125 0.21875 2.25q0 1.671875 -0.359375 2.703125q-0.34375 1.03125 -1.03125 1.59375q-0.671875 0.5625 -1.734375 0.5625q-1.375 0 -2.15625 -0.984375q-0.953125 -1.1875 -0.953125 -3.875zm1.203125 0q0 2.34375 0.546875 3.125q0.5625 0.78125 1.359375 0.78125q0.8125 0 1.359375 -0.78125q0.5625 -0.78125 0.5625 -3.125q0 -2.359375 -0.5625 -3.125q-0.546875 -0.78125 -1.359375 -0.78125q-0.8125 0 -1.296875 0.6875q-0.609375 0.875 -0.609375 3.21875zm6.8656006 4.703125l0 -1.328125l1.34375 0l0 1.328125l-1.34375 0zm7.4685974 0l-1.171875 0l0 -7.46875q-0.421875 0.40625 -1.109375 0.8125q-0.6875 0.40625 -1.234375 0.609375l0 -1.140625q0.984375 -0.453125 1.71875 -1.109375q0.734375 -0.671875 1.03125 -1.28125l0.765625 0l0 9.578125z"
       fill-rule="nonzero"
       id="path39" />
    <path
       fill="#000000"
       fill-opacity="0.0"
       d="m144.1319 303.93964l108.40944 0l0 35.55905l-108.40944 0z"
       fill-rule="evenodd"
       id="path41" />
    <path
       fill="#000000"
       d="m170.5168 318.7865q-0.96875 5.53125 -6.359375 7.921875l-0.90625 -0.96875q4.96875 -2.03125 5.984375 -7.015625l-4.0625 0q-1.15625 1.9375 -2.4375 3.109375l-1.015625 -0.671875q2.640625 -2.375 3.40625 -5.578125l1.171875 0.40625q0.296875 0.15625 -0.109375 0.296875q-0.203125 0.671875 -0.546875 1.328125l3.65625 0l0.453125 -0.25l0.90625 0.90625q0.359375 0.359375 -0.140625 0.515625zm0.296875 -1.21875q-0.8125 -1.171875 -1.578125 -1.78125l0.671875 -0.5625q0.859375 0.765625 1.625 1.78125l-0.71875 0.5625zm1.46875 -0.609375q-0.8125 -1.015625 -1.46875 -1.625l0.609375 -0.609375q0.765625 0.703125 1.46875 1.625l-0.609375 0.609375zm10.566406 7.921875l-1.171875 0l0 -0.5625l-5.625 0l0 0.8125l-1.171875 0l0 -7.921875l7.96875 0l0 7.671875zm-6.796875 -6.5625l0 4.875l5.625 0l0 -4.875l-5.625 0zm9.082031 3.25l0 -1.109375l11.328125 0l0 1.109375l-11.328125 0zm20.617188 -3.75q2.5468903 3.203125 3.6093903 6.75l-1.3750153 0.453125q-1.265625 -4.0 -3.296875 -6.390625l1.0625 -0.8125zm-3.859375 1.171875q0.40625 0.25 -0.09375 0.453125q-0.921875 3.203125 -2.953125 5.84375l-1.171875 -0.765625q2.234375 -2.6875 3.0 -6.09375l1.21875 0.5625zm6.09375 -3.96875q0.65626526 0.5625 1.6250153 1.578125l-0.65625 0.609375q-0.92189026 -1.015625 -1.6250153 -1.625l0.65625 -0.5625zm-1.21875 0.765625q0.765625 0.703125 1.6250153 1.71875l-0.76564026 0.5625q-0.75 -1.015625 -1.5625 -1.71875l0.703125 -0.5625zm10.875015 8.484375q2.234375 -0.875 4.109375 -3.453125l0.703125 0.953125q-1.921875 2.640625 -4.875 3.8125l-0.40625 0.203125l-0.8125 -0.609375l0.109375 -0.25l0 -8.171875l1.0625 0q0.453125 0.09375 0.109375 0.40625l0 7.109375zm-6.8125 1.359375q2.546875 -2.4375 2.546875 -6.03125l0 -2.296875l1.0625 0q0.453125 0.109375 0.09375 0.40625l0 1.828125q0 4.265625 -2.6875 6.765625l-1.015625 -0.671875z"
       fill-rule="nonzero"
       id="path43" />
    <path
       fill="#000000"
       d="m224.26682 325.73962l0 -9.546875l1.25 0l0 9.546875l-1.25 0zm3.4842377 0l0 -9.546875l3.59375 0q0.953125 0 1.453125 0.09375q0.703125 0.125 1.171875 0.453125q0.484375 0.328125 0.765625 0.921875q0.296875 0.59375 0.296875 1.296875q0 1.21875 -0.78125 2.0625q-0.765625 0.84375 -2.796875 0.84375l-2.4375 0l0 3.875l-1.265625 0zm1.265625 -5.0l2.453125 0q1.234375 0 1.75 -0.453125q0.515625 -0.46875 0.515625 -1.28125q0 -0.609375 -0.3125 -1.03125q-0.296875 -0.421875 -0.796875 -0.5625q-0.3125 -0.09375 -1.171875 -0.09375l-2.4375 0l0 3.421875z"
       fill-rule="nonzero"
       id="path45" />
    <path
       fill="#ffffff"
       d="m44.591103 259.37024l0 0c-0.8332062 -4.2365417 1.9023743 -8.430481 7.0459404 -10.802139c5.1435623 -2.3716736 11.793037 -2.5051422 17.126804 -0.34376526l0 0c1.8893814 -2.4633179 5.3475037 -4.1640625 9.328354 -4.587799c3.9808502 -0.42373657 8.016853 0.47930908 10.887207 2.4359589l0 0c1.6095123 -2.2333832 4.7698135 -3.7339478 8.359474 -3.9691772c3.589653 -0.23524475 7.1006393 0.82810974 9.287071 2.8127441l0 0c2.9078217 -2.3673859 7.534233 -3.364151 11.877365 -2.5590057c4.343132 0.8051605 7.622917 3.2676392 8.420174 6.3218994l0 0c3.562561 0.672348 6.530121 2.381546 8.13591 4.6860046c1.6058044 2.3044434 1.6923523 4.9780884 0.23725891 7.3301086l0 0c3.5080872 3.1590576 4.32872 7.368469 2.1556396 11.057312c-2.1730652 3.6888733 -7.0133667 6.303009 -12.714584 6.866852c-0.04019165 3.4621582 -2.7844543 6.6389465 -7.175041 8.305969c-4.3905945 1.6670227 -9.741898 1.5639038 -13.991295 -0.26956177l0 0c-1.8100128 4.1464844 -6.9046097 7.1974487 -13.082726 7.8347473c-6.178116 0.63726807 -12.332214 -1.2533569 -15.803482 -4.855072l0 0c-4.2550507 1.7752991 -9.360764 2.2867126 -14.165382 1.4188538c-4.8046227 -0.8678589 -8.903435 -3.04187 -11.371834 -6.031616l0 0c-4.3481293 0.35205078 -8.55217 -1.2066345 -10.525669 -3.9024658c-1.9735031 -2.6958618 -1.2963524 -5.9549866 1.6953812 -8.159912l0 0c-3.8786469 -1.5794983 -5.857765 -4.713745 -4.905323 -7.7683716c0.95244217 -3.054596 4.620613 -5.3374023 9.091709 -5.657959z"
       fill-rule="evenodd"
       id="path47" />
    <path
       fill="#000000"
       fill-opacity="0.0"
       d="m40.318764 272.95987l0 0c1.8303452 0.74539185 3.9448204 1.0834961 6.0595284 0.9689636m2.7698097 11.093689c0.90940094 -0.0736084 1.8007889 -0.22955322 2.6511726 -0.46374512m22.88477 5.076294c-0.6396103 -0.66363525 -1.1751251 -1.3728027 -1.5974274 -2.1154175m30.484741 -0.8643799l0 0c0.3299942 -0.7559509 0.54380035 -1.5340271 0.6378555 -2.3211975m20.52768 -5.714905c0.042778015 -3.6859741 -2.9830475 -7.0608826 -7.7778015 -8.67511m18.33664 -9.248657c-0.77648926 1.2551575 -1.9618988 2.3685608 -3.463272 3.2529602m-4.9091644 -15.269409l0 0c0.13230896 0.50686646 0.19353485 1.0213318 0.18284607 1.5363007m-20.480034 -5.2990417l0 0c-0.72535706 0.59054565 -1.3229523 1.250473 -1.7741852 1.9592438m-15.872528 -0.80307007l0 0c-0.3865509 0.5363922 -0.67520905 1.1039886 -0.85930634 1.6897125m-19.356552 0.46217346l0 0c1.128624 0.45733643 2.1727524 1.0077972 3.1094513 1.6392975m-27.281883 9.506668l0 0c0.11483765 0.58392334 0.29628754 1.160614 0.5426483 1.7247314"
       fill-rule="evenodd"
       id="path49" />
    <path
       stroke="#595959"
       stroke-width="1.0"
       stroke-linejoin="round"
       stroke-linecap="butt"
       d="m44.591103 259.37024l0 0c-0.8332062 -4.2365417 1.9023743 -8.430481 7.0459404 -10.802139c5.1435623 -2.3716736 11.793037 -2.5051422 17.126804 -0.34376526l0 0c1.8893814 -2.4633179 5.3475037 -4.1640625 9.328354 -4.587799c3.9808502 -0.42373657 8.016853 0.47930908 10.887207 2.4359589l0 0c1.6095123 -2.2333832 4.7698135 -3.7339478 8.359474 -3.9691772c3.589653 -0.23524475 7.1006393 0.82810974 9.287071 2.8127441l0 0c2.9078217 -2.3673859 7.534233 -3.364151 11.877365 -2.5590057c4.343132 0.8051605 7.622917 3.2676392 8.420174 6.3218994l0 0c3.562561 0.672348 6.530121 2.381546 8.13591 4.6860046c1.6058044 2.3044434 1.6923523 4.9780884 0.23725891 7.3301086l0 0c3.5080872 3.1590576 4.32872 7.368469 2.1556396 11.057312c-2.1730652 3.6888733 -7.0133667 6.303009 -12.714584 6.866852c-0.04019165 3.4621582 -2.7844543 6.6389465 -7.175041 8.305969c-4.3905945 1.6670227 -9.741898 1.5639038 -13.991295 -0.26956177l0 0c-1.8100128 4.1464844 -6.9046097 7.1974487 -13.082726 7.8347473c-6.178116 0.63726807 -12.332214 -1.2533569 -15.803482 -4.855072l0 0c-4.2550507 1.7752991 -9.360764 2.2867126 -14.165382 1.4188538c-4.8046227 -0.8678589 -8.903435 -3.04187 -11.371834 -6.031616l0 0c-4.3481293 0.35205078 -8.55217 -1.2066345 -10.525669 -3.9024658c-1.9735031 -2.6958618 -1.2963524 -5.9549866 1.6953812 -8.159912l0 0c-3.8786469 -1.5794983 -5.857765 -4.713745 -4.905323 -7.7683716c0.95244217 -3.054596 4.620613 -5.3374023 9.091709 -5.657959z"
       fill-rule="evenodd"
       id="path51" />
    <path
       stroke="#595959"
       stroke-width="1.0"
       stroke-linejoin="round"
       stroke-linecap="butt"
       d="m40.318764 272.95987l0 0c1.8303452 0.74539185 3.9448204 1.0834961 6.0595284 0.9689636m2.7698097 11.093689c0.90940094 -0.0736084 1.8007889 -0.22955322 2.6511726 -0.46374512m22.88477 5.076294c-0.6396103 -0.66363525 -1.1751251 -1.3728027 -1.5974274 -2.1154175m30.484741 -0.8643799l0 0c0.3299942 -0.7559509 0.54380035 -1.5340271 0.6378555 -2.3211975m20.52768 -5.714905c0.042778015 -3.6859741 -2.9830475 -7.0608826 -7.7778015 -8.67511m18.33664 -9.248657c-0.77648926 1.2551575 -1.9618988 2.3685608 -3.463272 3.2529602m-4.9091644 -15.269409l0 0c0.13230896 0.50686646 0.19353485 1.0213318 0.18284607 1.5363007m-20.480034 -5.2990417l0 0c-0.72535706 0.59054565 -1.3229523 1.250473 -1.7741852 1.9592438m-15.872528 -0.80307007l0 0c-0.3865509 0.5363922 -0.67520905 1.1039886 -0.85930634 1.6897125m-19.356552 0.46217346l0 0c1.128624 0.45733643 2.1727524 1.0077972 3.1094513 1.6392975m-27.281883 9.506668l0 0c0.11483765 0.58392334 0.29628754 1.160614 0.5426483 1.7247314"
       fill-rule="evenodd"
       id="path53" />
    <path
       fill="#000000"
       d="m59.754528 271.74313l0 -9.546875l1.25 0l0 9.546875l-1.25 0zm3.3279877 0l0 -6.90625l1.0625038 0l0 0.984375q0.75 -1.140625 2.1875 -1.140625q0.625 0 1.15625 0.21875q0.53125 0.21875 0.78125 0.59375q0.265625 0.359375 0.375 0.859375q0.0625 0.328125 0.0625 1.140625l0 4.25l-1.171875 0l0 -4.203125q0 -0.71875 -0.140625 -1.0625q-0.140625 -0.359375 -0.484375 -0.5625q-0.34375 -0.21875 -0.8125 -0.21875q-0.75 0 -1.296875 0.46875q-0.546875 0.46875 -0.546875 1.796875l0 3.78125l-1.1718788 0zm9.974979 -1.046875l0.171875 1.03125q-0.5 0.109375 -0.890625 0.109375q-0.640625 0 -1.0 -0.203125q-0.34375 -0.203125 -0.484375 -0.53125q-0.140625 -0.328125 -0.140625 -1.390625l0 -3.96875l-0.859375 0l0 -0.90625l0.859375 0l0 -1.71875l1.171875 -0.703125l0 2.421875l1.171875 0l0 0.90625l-1.171875 0l0 4.046875q0 0.5 0.046875 0.640625q0.0625 0.140625 0.203125 0.234375q0.140625 0.078125 0.40625 0.078125q0.203125 0 0.515625 -0.046875zm5.8748627 -1.171875l1.203125 0.140625q-0.28125 1.0625 -1.0625 1.65625q-0.765625 0.578125 -1.96875 0.578125q-1.515625 0 -2.40625 -0.9375q-0.890625 -0.9375 -0.890625 -2.609375q0 -1.75 0.890625 -2.703125q0.90625 -0.96875 2.34375 -0.96875q1.390625 0 2.265625 0.9375q0.875 0.9375 0.875 2.65625q0 0.109375 0 0.3125l-5.15625 0q0.0625 1.140625 0.640625 1.75q0.578125 0.59375 1.4375 0.59375q0.65625 0 1.109375 -0.328125q0.453125 -0.34375 0.71875 -1.078125zm-3.84375 -1.90625l3.859375 0q-0.078125 -0.859375 -0.4375 -1.296875q-0.5625 -0.6875 -1.453125 -0.6875q-0.8125 0 -1.359375 0.546875q-0.546875 0.53125 -0.609375 1.4375zm6.5062256 4.125l0 -6.90625l1.0625 0l0 1.046875q0.40625 -0.734375 0.734375 -0.96875q0.34375 -0.234375 0.765625 -0.234375q0.59375 0 1.203125 0.375l-0.40625 1.078125q-0.4375 -0.25 -0.859375 -0.25q-0.390625 0 -0.703125 0.234375q-0.296875 0.234375 -0.421875 0.640625q-0.203125 0.625 -0.203125 1.359375l0 3.625l-1.171875 0zm4.4539948 0l0 -6.90625l1.0625 0l0 0.984375q0.75 -1.140625 2.1875 -1.140625q0.625 0 1.15625 0.21875q0.53125 0.21875 0.78125 0.59375q0.265625 0.359375 0.375 0.859375q0.0625 0.328125 0.0625 1.140625l0 4.25l-1.171875 0l0 -4.203125q0 -0.71875 -0.140625 -1.0625q-0.140625 -0.359375 -0.484375 -0.5625q-0.34375 -0.21875 -0.8125 -0.21875q-0.75 0 -1.296875 0.46875q-0.546875 0.46875 -0.546875 1.796875l0 3.78125l-1.171875 0zm12.146851 -2.21875l1.203125 0.140625q-0.28125 1.0625 -1.0625 1.65625q-0.765625 0.578125 -1.96875 0.578125q-1.515625 0 -2.40625 -0.9375q-0.890625 -0.9375 -0.890625 -2.609375q0 -1.75 0.890625 -2.703125q0.90625 -0.96875 2.34375 -0.96875q1.390625 0 2.265625 0.9375q0.875 0.9375 0.875 2.65625q0 0.109375 0 0.3125l-5.15625 0q0.0625 1.140625 0.640625 1.75q0.578125 0.59375 1.4375 0.59375q0.65625 0 1.109375 -0.328125q0.453125 -0.34375 0.71875 -1.078125zm-3.84375 -1.90625l3.859375 0q-0.078125 -0.859375 -0.4375 -1.296875q-0.5625 -0.6875 -1.453125 -0.6875q-0.8125 0 -1.359375 0.546875q-0.546875 0.53125 -0.609375 1.4375zm9.084351 3.078125l0.171875 1.03125q-0.5 0.109375 -0.890625 0.109375q-0.640625 0 -1.0 -0.203125q-0.34375 -0.203125 -0.484375 -0.53125q-0.140625 -0.328125 -0.140625 -1.390625l0 -3.96875l-0.859375 0l0 -0.90625l0.859375 0l0 -1.71875l1.171875 -0.703125l0 2.421875l1.171875 0l0 0.90625l-1.171875 0l0 4.046875q0 0.5 0.046875 0.640625q0.0625 0.140625 0.203125 0.234375q0.140625 0.078125 0.40625 0.078125q0.203125 0 0.515625 -0.046875z"
       fill-rule="nonzero"
       id="path55" />
    <path
       fill="#ffffff"
       d="m540.70667 339.4987l155.30713 0l0 31.055115l-155.30713 0z"
       fill-rule="evenodd"
       id="path57" />
    <path
       stroke="#595959"
       stroke-width="1.0"
       stroke-linejoin="round"
       stroke-linecap="butt"
       d="m540.70667 339.4987l155.30713 0l0 31.055115l-155.30713 0z"
       fill-rule="evenodd"
       id="path59" />
    <path
       fill="#000000"
       d="m579.026 352.60623q-2.046875 -1.109375 -3.328125 -3.34375q-1.296875 2.109375 -3.0 3.34375l6.328125 0zm2.765625 1.234375q-1.0 -0.234375 -2.640625 -1.171875l0 1.21875l-6.625 0l0 -1.171875q-1.578125 1.125 -2.984375 1.53125l-0.53125 -1.40625q4.109375 -1.109375 6.09375 -4.8125l1.234375 0.1875q0.46875 0.046875 0.0625 0.34375q1.875 2.8125 5.96875 3.875l-0.578125 1.40625zm-1.296875 7.4375q-0.46875 -0.640625 -1.109375 -1.234375l-8.5 0.9375q-0.296875 0.296875 -0.53125 0.125l-0.40625 -1.46875l2.40625 -0.125l1.640625 -2.984375l-4.21875 0l0 -1.28125l12.015625 0l0 1.28125l-6.328125 0l-1.765625 2.9375l4.8125 -0.359375q-0.765625 -0.703125 -1.703125 -1.40625l1.046875 -0.703125q2.8125 2.109375 3.875 3.515625l-1.234375 0.765625zm7.203125 -10.671875l1.234375 0l0.234375 -0.234375l0.875 0.890625l-0.40625 0.28125q-0.703125 1.359375 -1.9375 2.875q1.46875 0.46875 2.578125 1.234375l-0.640625 1.28125q-1.0 -0.8125 -1.9375 -1.34375l0 5.8125l-1.171875 0l0 -5.8125q-1.046875 0.9375 -2.15625 1.578125l-0.53125 -1.171875q2.8125 -1.515625 4.390625 -4.265625l-3.859375 0l0 -1.125l2.15625 0l0 -2.515625l1.125 0q0.46875 0.0625 0.046875 0.359375l0 2.15625zm6.390625 -2.15625q0.59375 0.109375 0.0625 0.46875l0 3.09375l2.6875 0l0 1.296875l-2.6875 0l0 6.09375l3.21875 0l0 1.296875l-8.03125 0l0 -1.296875l3.46875 0l0 -6.09375l-2.53125 0l0 -1.296875l2.53125 0l0 -3.5625l1.28125 0zm16.34375 8.015625l-3.796875 0l0 4.46875l-1.171875 0l0 -4.46875l-3.515625 0q-0.125 3.046875 -1.828125 4.875l-0.9375 -0.9375q1.59375 -1.765625 1.59375 -4.109375l0 -7.5l10.828125 0l0 11.1875q0 0.953125 -0.9375 0.953125l-1.640625 0l-0.28125 -1.296875l1.453125 0q0.234375 0 0.234375 -0.234375l0 -2.9375zm-8.484375 -3.28125l0 2.171875l3.515625 0l0 -2.171875l-3.515625 0zm0 -3.28125l0 2.171875l3.515625 0l0 -2.171875l-3.515625 0zm4.6875 3.28125l0 2.171875l3.796875 0l0 -2.171875l-3.796875 0zm0 -3.28125l0 2.171875l3.796875 0l0 -2.171875l-3.796875 0zm16.171875 0.59375q-1.234375 3.390625 -2.765625 5.390625q-1.921875 2.515625 -4.625 4.21875l-1.40625 -1.109375q2.640625 -1.359375 4.453125 -3.515625q1.875 -2.234375 2.9375 -6.15625l1.578125 0.703125q0.40625 0.234375 -0.171875 0.46875zm1.8085938 4.796875l0 -1.28125l13.0625 0l0 1.28125l-13.0625 0zm16.929688 -2.21875q2.875 0.8125 5.8125 2.21875l-0.703125 1.359375q-3.109375 -1.59375 -5.109375 -2.109375l0 6.09375l-1.34375 0l0 -11.71875l1.171875 0q0.703125 0.046875 0.171875 0.46875l0 3.6875z"
       fill-rule="nonzero"
       id="path61" />
    <path
       fill="#000000"
       d="m649.17834 360.10623l0 -10.484375l3.96875 0q1.046875 0 1.59375 0.09375q0.765625 0.125 1.28125 0.484375q0.53125 0.359375 0.84375 1.015625q0.328125 0.65625 0.328125 1.4375q0 1.328125 -0.859375 2.265625q-0.84375 0.921875 -3.078125 0.921875l-2.6875 0l0 4.265625l-1.390625 0zm1.390625 -5.5l2.71875 0q1.34375 0 1.90625 -0.5q0.5625 -0.5 0.5625 -1.40625q0 -0.671875 -0.328125 -1.140625q-0.328125 -0.46875 -0.875 -0.609375q-0.359375 -0.09375 -1.296875 -0.09375l-2.6875 0l0 3.75zm15.869324 1.828125l1.390625 0.34375q-0.4375 1.703125 -1.578125 2.609375q-1.125 0.890625 -2.765625 0.890625q-1.6875 0 -2.75 -0.6875q-1.0625 -0.6875 -1.625 -2.0q-0.546875 -1.3125 -0.546875 -2.8125q0 -1.640625 0.625 -2.859375q0.625 -1.21875 1.78125 -1.84375q1.15625 -0.640625 2.546875 -0.640625q1.5625 0 2.640625 0.8125q1.078125 0.796875 1.5 2.25l-1.375 0.3125q-0.359375 -1.140625 -1.0625 -1.65625q-0.6875 -0.53125 -1.734375 -0.53125q-1.21875 0 -2.03125 0.578125q-0.8125 0.578125 -1.140625 1.5625q-0.328125 0.96875 -0.328125 2.015625q0 1.328125 0.390625 2.328125q0.390625 1.0 1.21875 1.5q0.828125 0.484375 1.78125 0.484375q1.171875 0 1.96875 -0.671875q0.8125 -0.671875 1.09375 -1.984375z"
       fill-rule="nonzero"
       id="path63" />
    <path
       fill="#ffffff"
       d="m534.50195 351.0735l6.204712 0l0 7.9055176l-6.204712 0z"
       fill-rule="evenodd"
       id="path65" />
    <path
       stroke="#595959"
       stroke-width="1.0"
       stroke-linejoin="round"
       stroke-linecap="butt"
       d="m534.50195 351.0735l6.204712 0l0 7.9055176l-6.204712 0z"
       fill-rule="evenodd"
       id="path67" />
    <path
       fill="#ffffff"
       d="m540.70667 119.62861l155.30713 0l0 31.055122l-155.30713 0z"
       fill-rule="evenodd"
       id="path69" />
    <path
       stroke="#595959"
       stroke-width="1.0"
       stroke-linejoin="round"
       stroke-linecap="butt"
       d="m540.70667 119.62861l155.30713 0l0 31.055122l-155.30713 0z"
       fill-rule="evenodd"
       id="path71" />
    <path
       fill="#000000"
       d="m577.9127 134.3768l-5.859375 0l0 -1.296875l12.015625 0l0 1.296875l-4.796875 0l0 0.765625q0 3.6875 -2.640625 6.09375l-1.171875 -0.875q2.453125 -1.9375 2.453125 -5.21875l0 -0.765625zm-3.75 -3.578125l0 -1.28125l7.21875 0l0 1.28125l-7.21875 0zm7.96875 -2.40625q0.765625 0.765625 1.640625 2.0625l-0.8125 0.578125q-0.828125 -1.171875 -1.640625 -2.109375l0.8125 -0.53125zm1.40625 -0.7500076q0.765625 0.8125076 1.640625 1.9843826l-0.8125 0.59375q-0.9375 -1.296875 -1.640625 -2.0l0.8125 -0.5781326zm9.9140625 7.2656326q2.515625 1.921875 4.96875 4.453125l-1.171875 1.0q-2.453125 -2.59375 -4.734375 -4.34375q-2.296875 2.453125 -5.21875 4.390625l-1.109375 -1.0q6.203125 -4.03125 7.96875 -8.078125l-6.390625 0.40625l-0.171875 -1.40625l6.796875 -0.296875l0.703125 -0.171875l0.9375 0.9375q0.40625 0.40625 -0.234375 0.53125q-1.125 1.9375 -2.34375 3.578125zm16.582031 -2.703125q-1.125 6.390625 -7.328125 9.140625l-1.0625 -1.109375q5.75 -2.34375 6.921875 -8.09375l-4.6875 0q-1.34375 2.234375 -2.8125 3.578125l-1.171875 -0.765625q3.046875 -2.75 3.921875 -6.4375l1.34375 0.46875q0.359375 0.171875 -0.109375 0.34375q-0.234375 0.765625 -0.640625 1.53125l4.21875 0l0.515625 -0.296875l1.0625 1.0625q0.40625 0.40625 -0.171875 0.578125zm4.3828125 1.0q2.875 0.8125 5.8125 2.21875l-0.703125 1.359375q-3.109375 -1.59375 -5.109375 -2.109375l0 6.09375l-1.34375 0l0 -11.71875l1.171875 0q0.703125 0.046875 0.171875 0.46875l0 3.6875zm16.585938 -0.125q-0.40625 3.8125 -2.109375 5.515625q-1.703125 1.703125 -4.453125 2.703125l-0.765625 -1.125q2.703125 -0.875 4.21875 -2.40625q1.640625 -1.640625 1.875 -5.5625l1.234375 0.40625q0.53125 0.1875 0 0.46875zm-4.984375 2.109375q-0.703125 -1.578125 -1.40625 -2.625l1.125 -0.59375q0.875 1.109375 1.515625 2.640625l-1.234375 0.578125zm-2.984375 0.890625q-0.703125 -1.640625 -1.46875 -2.765625l1.171875 -0.578125q0.828125 1.109375 1.46875 2.6875l-1.171875 0.65625zm20.15625 -5.921875q0.46875 0 0.765625 -0.296875q0.296875 -0.296875 0.296875 -0.765625q0 -0.46875 -0.296875 -0.75q-0.296875 -0.296875 -0.765625 -0.296875q-0.46875 0 -0.765625 0.296875q-0.28125 0.28125 -0.28125 0.75q0 0.46875 0.28125 0.765625q0.296875 0.296875 0.765625 0.296875zm0 0.578125q-0.703125 0 -1.171875 -0.46875q-0.46875 -0.46875 -0.46875 -1.171875q0 -0.703125 0.46875 -1.1718826q0.46875 -0.46875 1.171875 -0.46875q0.703125 0 1.171875 0.46875q0.46875 0.46875763 0.46875 1.1718826q0 0.703125 -0.46875 1.171875q-0.46875 0.46875 -1.171875 0.46875zm-10.484375 0.765625l0 -1.28125l8.671875 0l1.515625 1.109375q-0.28125 7.09375 -8.015625 9.265625l-1.0625 -1.296875q7.328125 -1.703125 7.671875 -7.796875l-8.78125 0z"
       fill-rule="nonzero"
       id="path73" />
    <path
       fill="#000000"
       d="m646.30725 140.23618l0 -10.484375l3.96875 0q1.046875 0 1.59375 0.09375q0.765625 0.125 1.28125 0.484375q0.53125 0.359375 0.84375 1.015625q0.328125 0.65625 0.328125 1.4375q0 1.328125 -0.859375 2.265625q-0.84375 0.921875 -3.078125 0.921875l-2.6875 0l0 4.265625l-1.390625 0zm1.390625 -5.5l2.71875 0q1.34375 0 1.90625 -0.5q0.5625 -0.5 0.5625 -1.40625q0 -0.671875 -0.328125 -1.140625q-0.328125 -0.46875 -0.875 -0.609375q-0.359375 -0.09375 -1.296875 -0.09375l-2.6875 0l0 3.75zm15.869324 1.828125l1.390625 0.34375q-0.4375 1.703125 -1.578125 2.609375q-1.125 0.890625 -2.765625 0.890625q-1.6875 0 -2.75 -0.6875q-1.0625 -0.6875 -1.625 -2.0q-0.546875 -1.3125 -0.546875 -2.8125q0 -1.640625 0.625 -2.859375q0.625 -1.21875 1.78125 -1.84375q1.15625 -0.640625 2.546875 -0.640625q1.5625 0 2.640625 0.8125q1.078125 0.796875 1.5 2.25l-1.375 0.3125q-0.359375 -1.140625 -1.0625 -1.65625q-0.6875 -0.53125 -1.734375 -0.53125q-1.21875 0 -2.03125 0.578125q-0.8125 0.578125 -1.140625 1.5625q-0.328125 0.96875 -0.328125 2.015625q0 1.328125 0.390625 2.328125q0.390625 1.0 1.21875 1.5q0.828125 0.484375 1.78125 0.484375q1.171875 0 1.96875 -0.671875q0.8125 -0.671875 1.09375 -1.984375z"
       fill-rule="nonzero"
       id="path75" />
    <path
       fill="#ffffff"
       d="m534.50195 131.20341l6.204712 0l0 7.9055023l-6.204712 0z"
       fill-rule="evenodd"
       id="path77" />
    <path
       stroke="#595959"
       stroke-width="1.0"
       stroke-linejoin="round"
       stroke-linecap="butt"
       d="m534.50195 131.20341l6.204712 0l0 7.9055023l-6.204712 0z"
       fill-rule="evenodd"
       id="path79" />
    <path
       fill="#ffffff"
       d="m769.4311 202.00525l155.30707 0l0 31.055115l-155.30707 0z"
       fill-rule="evenodd"
       id="path81" />
    <path
       stroke="#595959"
       stroke-width="1.0"
       stroke-linejoin="round"
       stroke-linecap="butt"
       d="m769.4311 202.00525l155.30707 0l0 31.055115l-155.30707 0z"
       fill-rule="evenodd"
       id="path83" />
    <path
       fill="#000000"
       d="m809.4128 223.48781l0 -0.40625l-6.734375 0l0 0.640625l-1.0 0l0 -12.53125l8.734375 0l0 12.296875l-1.0 0zm-8.90625 0.296875l-1.171875 0l0 -7.203125q-0.46875 0.8125 -1.109375 1.515625l-0.765625 -1.0q1.984375 -2.34375 2.6875 -6.671875l1.234375 0.46875q0.234375 0.234375 -0.171875 0.296875q-0.234375 1.34375 -0.875 3.28125q0.703125 0.046875 0.171875 0.40625l0 8.90625zm4.28125 -6.21875l0 1.875l2.625 0l0 -1.875l-2.625 0zm-2.109375 -5.265625l0 9.671875l6.734375 0l0 -9.671875l-6.734375 0zm3.921875 1.9375l2.21875 0l0 1.109375l-2.21875 0l0 1.28125l1.8125 0l0 4.21875l-1.0 0l0 -0.46875l-2.625 0l0 0.703125l-1.0 0l0 -4.453125l1.640625 0l0 -1.28125l-2.171875 0l0 -1.109375l2.171875 0l0 -1.53125l1.109375 0q0.46875 0.0625 0.0625 0.359375l0 1.171875zm12.015625 -3.171875l1.28125 0q0.59375 0.125 0.0625 0.46875l0 2.40625q0.40625 5.625 5.96875 8.03125l-0.703125 1.46875q-4.03125 -1.765625 -5.734375 -6.390625q-1.234375 4.390625 -5.5625 6.390625l-0.890625 -1.296875q5.578125 -2.171875 5.578125 -8.03125l0 -3.046875zm20.4375 7.90625l-3.796875 0l0 4.46875l-1.171875 0l0 -4.46875l-3.515625 0q-0.125 3.046875 -1.828125 4.875l-0.9375 -0.9375q1.59375 -1.765625 1.59375 -4.109375l0 -7.5l10.828125 0l0 11.1875q0 0.953125 -0.9375 0.953125l-1.640625 0l-0.28125 -1.296875l1.453125 0q0.234375 0 0.234375 -0.234375l0 -2.9375zm-8.484375 -3.28125l0 2.171875l3.515625 0l0 -2.171875l-3.515625 0zm0 -3.28125l0 2.171875l3.515625 0l0 -2.171875l-3.515625 0zm4.6875 3.28125l0 2.171875l3.796875 0l0 -2.171875l-3.796875 0zm0 -3.28125l0 2.171875l3.796875 0l0 -2.171875l-3.796875 0zm13.40625 4.34375l-5.859375 0l0 -1.296875l12.015625 0l0 1.296875l-4.796875 0l0 0.765625q0 3.6875 -2.640625 6.09375l-1.171875 -0.875q2.453125 -1.9375 2.453125 -5.21875l0 -0.765625zm-3.75 -3.578125l0 -1.28125l7.21875 0l0 1.28125l-7.21875 0zm7.96875 -2.40625q0.765625 0.765625 1.640625 2.0625l-0.8125 0.578125q-0.828125 -1.171875 -1.640625 -2.109375l0.8125 -0.53125zm1.40625 -0.75q0.765625 0.8125 1.640625 1.984375l-0.8125 0.59375q-0.9375 -1.296875 -1.640625 -2.0l0.8125 -0.578125zm12.1328125 3.453125q2.9375 3.6875 4.15625 7.796875l-1.578125 0.515625q-1.46875 -4.625 -3.8125 -7.375l1.234375 -0.9375zm-4.453125 1.34375q0.46875 0.296875 -0.109375 0.53125q-1.0625 3.6875 -3.40625 6.734375l-1.34375 -0.875q2.578125 -3.109375 3.453125 -7.03125l1.40625 0.640625zm7.03125 -4.5625q0.765625 0.640625 1.875 1.8125l-0.765625 0.703125q-1.046875 -1.171875 -1.875 -1.875l0.765625 -0.640625zm-1.40625 0.875q0.875 0.8125 1.875 1.984375l-0.875 0.65625q-0.875 -1.171875 -1.8125 -2.0l0.8125 -0.640625zm4.625 7.203125q6.15625 -2.578125 9.328125 -7.265625l1.109375 0.9375q0.46875 0.359375 -0.40625 0.53125q-1.125 1.46875 -2.875 2.984375l0 7.96875l-1.34375 0l0 -6.859375q-2.0625 1.59375 -4.8125 2.875l-1.0 -1.171875zm19.347656 -1.046875q2.515625 1.921875 4.96875 4.453125l-1.171875 1.0q-2.453125 -2.59375 -4.734375 -4.34375q-2.296875 2.453125 -5.21875 4.390625l-1.109375 -1.0q6.203125 -4.03125 7.96875 -8.078125l-6.390625 0.40625l-0.171875 -1.40625l6.796875 -0.296875l0.703125 -0.171875l0.9375 0.9375q0.40625 0.40625 -0.234375 0.53125q-1.125 1.9375 -2.34375 3.578125z"
       fill-rule="nonzero"
       id="path85" />
    <path
       fill="#ffffff"
       d="m763.2264 213.58005l6.204712 0l0 7.9055176l-6.204712 0z"
       fill-rule="evenodd"
       id="path87" />
    <path
       stroke="#595959"
       stroke-width="1.0"
       stroke-linejoin="round"
       stroke-linecap="butt"
       d="m763.2264 213.58005l6.204712 0l0 7.9055176l-6.204712 0z"
       fill-rule="evenodd"
       id="path89" />
    <path
       fill="#000000"
       fill-opacity="0.0"
       d="m534.50195 355.02625l-69.00787 0"
       fill-rule="evenodd"
       id="path91" />
    <path
       stroke="#595959"
       stroke-width="1.0"
       stroke-linejoin="round"
       stroke-linecap="butt"
       d="m534.50195 355.02625l-69.00787 0"
       fill-rule="evenodd"
       id="path93" />
    <path
       fill="#000000"
       fill-opacity="0.0"
       d="m534.50195 135.15617l-69.543304 0"
       fill-rule="evenodd"
       id="path95" />
    <path
       stroke="#595959"
       stroke-width="1.0"
       stroke-linejoin="round"
       stroke-linecap="butt"
       d="m534.50195 135.15617l-69.543304 0"
       fill-rule="evenodd"
       id="path97" />
    <path
       fill="#ffffff"
       d="m367.3261 241.90027l6.2047424 0l0 7.9055023l-6.2047424 0z"
       fill-rule="evenodd"
       id="path99" />
    <path
       stroke="#595959"
       stroke-width="1.0"
       stroke-linejoin="round"
       stroke-linecap="butt"
       d="m367.3261 241.90027l6.2047424 0l0 7.9055023l-6.2047424 0z"
       fill-rule="evenodd"
       id="path101" />
    <path
       fill="#000000"
       fill-opacity="0.0"
       d="m373.53085 245.85301l90.92911 0"
       fill-rule="evenodd"
       id="path103" />
    <path
       stroke="#595959"
       stroke-width="1.0"
       stroke-linejoin="round"
       stroke-linecap="butt"
       d="m373.53085 245.85301l90.92911 0"
       fill-rule="evenodd"
       id="path105" />
    <path
       fill="#000000"
       fill-opacity="0.0"
       d="m465.57285 101.62467l0 154.58267"
       fill-rule="evenodd"
       id="path107" />
    <path
       stroke="#595959"
       stroke-width="3.0"
       stroke-linejoin="round"
       stroke-linecap="butt"
       d="m465.57285 101.62467l0 154.58267"
       fill-rule="evenodd"
       id="path109" />
    <path
       fill="#000000"
       fill-opacity="0.0"
       d="m309.1049 196.27821l122.64566 0l0 35.55905l-122.64566 0z"
       fill-rule="evenodd"
       id="path111" />
    <path
       fill="#000000"
       d="m340.1921 218.07822l-1.171875 0l0 -7.46875q-0.421875 0.40625 -1.109375 0.8125q-0.6875 0.40625 -1.234375 0.609375l0 -1.140625q0.984375 -0.453125 1.71875 -1.109375q0.734375 -0.671875 1.03125 -1.28125l0.765625 0l0 9.578125zm3.1781006 -2.203125l1.125 -0.109375q0.140625 0.796875 0.546875 1.15625q0.40625 0.359375 1.03125 0.359375q0.53125 0 0.9375 -0.25q0.421875 -0.25 0.671875 -0.65625q0.265625 -0.421875 0.4375 -1.125q0.171875 -0.703125 0.171875 -1.421875q0 -0.078125 0 -0.234375q-0.359375 0.546875 -0.96875 0.90625q-0.59375 0.34375 -1.3125 0.34375q-1.1875 0 -2.015625 -0.859375q-0.8125 -0.859375 -0.8125 -2.265625q0 -1.453125 0.859375 -2.328125q0.859375 -0.890625 2.140625 -0.890625q0.9375 0 1.703125 0.5q0.78125 0.5 1.171875 1.4375q0.40625 0.921875 0.40625 2.671875q0 1.828125 -0.40625 2.921875q-0.390625 1.078125 -1.171875 1.640625q-0.78125 0.5625 -1.84375 0.5625q-1.109375 0 -1.828125 -0.609375q-0.703125 -0.625 -0.84375 -1.75zm4.796875 -4.21875q0 -1.0 -0.546875 -1.59375q-0.53125 -0.59375 -1.28125 -0.59375q-0.78125 0 -1.375 0.640625q-0.578125 0.640625 -0.578125 1.65625q0 0.90625 0.546875 1.484375q0.5625 0.5625 1.359375 0.5625q0.828125 0 1.34375 -0.5625q0.53125 -0.578125 0.53125 -1.59375zm8.584351 5.296875l0 1.125l-6.296875 0q-0.015625 -0.421875 0.140625 -0.8125q0.234375 -0.640625 0.765625 -1.265625q0.53125 -0.625 1.53125 -1.453125q1.5625 -1.265625 2.109375 -2.015625q0.546875 -0.75 0.546875 -1.40625q0 -0.703125 -0.5 -1.171875q-0.5 -0.484375 -1.296875 -0.484375q-0.859375 0 -1.375 0.515625q-0.5 0.5 -0.5 1.390625l-1.203125 -0.109375q0.125 -1.359375 0.921875 -2.0625q0.8125 -0.703125 2.171875 -0.703125q1.375 0 2.171875 0.765625q0.8125 0.75 0.8125 1.875q0 0.578125 -0.234375 1.140625q-0.234375 0.546875 -0.78125 1.15625q-0.546875 0.609375 -1.8125 1.671875q-1.046875 0.890625 -1.359375 1.21875q-0.296875 0.3125 -0.484375 0.625l4.671875 0zm1.9124756 1.125l0 -1.328125l1.34375 0l0 1.328125l-1.34375 0zm7.4685974 0l-1.171875 0l0 -7.46875q-0.421875 0.40625 -1.109375 0.8125q-0.6875 0.40625 -1.234375 0.609375l0 -1.140625q0.984375 -0.453125 1.71875 -1.109375q0.734375 -0.671875 1.03125 -1.28125l0.765625 0l0 9.578125zm9.068726 -7.203125l-1.15625 0.09375q-0.15625 -0.6875 -0.4375 -1.0q-0.484375 -0.5 -1.171875 -0.5q-0.5625 0 -0.984375 0.3125q-0.5625 0.390625 -0.890625 1.171875q-0.3125 0.765625 -0.3125 2.203125q0.421875 -0.640625 1.03125 -0.953125q0.609375 -0.3125 1.28125 -0.3125q1.171875 0 1.984375 0.859375q0.828125 0.859375 0.828125 2.234375q0 0.890625 -0.390625 1.671875q-0.375 0.765625 -1.0625 1.171875q-0.671875 0.40625 -1.53125 0.40625q-1.46875 0 -2.390625 -1.0625q-0.921875 -1.078125 -0.921875 -3.5625q0 -2.765625 1.015625 -4.015625q0.90625 -1.09375 2.40625 -1.09375q1.125 0 1.84375 0.640625q0.71875 0.625 0.859375 1.734375zm-4.78125 4.109375q0 0.609375 0.25 1.171875q0.265625 0.546875 0.71875 0.84375q0.46875 0.28125 0.984375 0.28125q0.734375 0 1.265625 -0.59375q0.546875 -0.609375 0.546875 -1.640625q0 -0.984375 -0.53125 -1.546875q-0.53125 -0.578125 -1.328125 -0.578125q-0.796875 0 -1.359375 0.578125q-0.546875 0.5625 -0.546875 1.484375zm7.9281006 -2.078125q-0.734375 -0.265625 -1.09375 -0.765625q-0.34375 -0.5 -0.34375 -1.1875q0 -1.03125 0.75 -1.734375q0.75 -0.71875 1.984375 -0.71875q1.25 0 2.015625 0.734375q0.765625 0.71875 0.765625 1.75q0 0.671875 -0.359375 1.171875q-0.34375 0.484375 -1.046875 0.75q0.875 0.28125 1.328125 0.921875q0.46875 0.640625 0.46875 1.515625q0 1.234375 -0.875 2.0625q-0.859375 0.828125 -2.265625 0.828125q-1.421875 0 -2.28125 -0.828125q-0.859375 -0.84375 -0.859375 -2.09375q0 -0.921875 0.46875 -1.546875q0.46875 -0.640625 1.34375 -0.859375zm-0.234375 -1.984375q0 0.671875 0.4375 1.109375q0.4375 0.421875 1.125 0.421875q0.671875 0 1.109375 -0.421875q0.4375 -0.421875 0.4375 -1.046875q0 -0.640625 -0.453125 -1.078125q-0.4375 -0.4375 -1.109375 -0.4375q-0.671875 0 -1.109375 0.4375q-0.4375 0.421875 -0.4375 1.015625zm-0.375 4.40625q0 0.5 0.234375 0.96875q0.234375 0.46875 0.703125 0.734375q0.46875 0.25 1.015625 0.25q0.828125 0 1.375 -0.53125q0.546875 -0.546875 0.546875 -1.390625q0 -0.84375 -0.5625 -1.390625q-0.5625 -0.5625 -1.40625 -0.5625q-0.828125 0 -1.375 0.546875q-0.53125 0.546875 -0.53125 1.375zm6.8656006 2.75l0 -1.328125l1.34375 0l0 1.328125l-1.34375 0zm3.046753 -4.703125q0 -1.6875 0.34375 -2.71875q0.359375 -1.03125 1.046875 -1.59375q0.6875 -0.5625 1.71875 -0.5625q0.78125 0 1.359375 0.3125q0.578125 0.296875 0.953125 0.890625q0.375 0.578125 0.59375 1.421875q0.21875 0.828125 0.21875 2.25q0 1.671875 -0.359375 2.703125q-0.34375 1.03125 -1.03125 1.59375q-0.671875 0.5625 -1.734375 0.5625q-1.375 0 -2.15625 -0.984375q-0.953125 -1.1875 -0.953125 -3.875zm1.203125 0q0 2.34375 0.546875 3.125q0.5625 0.78125 1.359375 0.78125q0.8125 0 1.359375 -0.78125q0.5625 -0.78125 0.5625 -3.125q0 -2.359375 -0.5625 -3.125q-0.546875 -0.78125 -1.359375 -0.78125q-0.8125 0 -1.296875 0.6875q-0.609375 0.875 -0.609375 3.21875zm6.8656006 4.703125l0 -1.328125l1.34375 0l0 1.328125l-1.34375 0zm7.4685974 0l-1.171875 0l0 -7.46875q-0.421875 0.40625 -1.109375 0.8125q-0.6875 0.40625 -1.234375 0.609375l0 -1.140625q0.984375 -0.453125 1.71875 -1.109375q0.734375 -0.671875 1.03125 -1.28125l0.765625 0l0 9.578125z"
       fill-rule="nonzero"
       id="path113" />
    <path
       fill="#000000"
       fill-opacity="0.0"
       d="m406.2965 74.06562l118.55121 0l0 35.55905l-118.55121 0z"
       fill-rule="evenodd"
       id="path115" />
    <path
       fill="#000000"
       d="m426.0725 95.865616l-1.171875 0l0 -7.46875q-0.421875 0.40625 -1.109375 0.8125q-0.6875 0.40625 -1.234375 0.609375l0 -1.140625q0.984375 -0.453125 1.71875 -1.109375q0.734375 -0.671875 1.03125 -1.28125l0.765625 0l0 9.578125zm3.1781006 -2.203125l1.125 -0.109375q0.140625 0.796875 0.546875 1.15625q0.40625 0.359375 1.03125 0.359375q0.53125 0 0.9375 -0.25q0.421875 -0.25 0.671875 -0.65625q0.265625 -0.421875 0.4375 -1.125q0.171875 -0.703125 0.171875 -1.421875q0 -0.078125 0 -0.234375q-0.359375 0.546875 -0.96875 0.90625q-0.59375 0.34375 -1.3125 0.34375q-1.1875 0 -2.015625 -0.859375q-0.8125 -0.859375 -0.8125 -2.265625q0 -1.453125 0.859375 -2.328125q0.859375 -0.890625 2.140625 -0.890625q0.9375 0 1.703125 0.5q0.78125 0.5 1.171875 1.4375q0.40625 0.921875 0.40625 2.671875q0 1.828125 -0.40625 2.921875q-0.390625 1.078125 -1.171875 1.640625q-0.78125 0.5625 -1.84375 0.5625q-1.109375 0 -1.828125 -0.609375q-0.703125 -0.625 -0.84375 -1.75zm4.796875 -4.21875q0 -1.0 -0.546875 -1.59375q-0.53125 -0.59375 -1.28125 -0.59375q-0.78125 0 -1.375 0.640625q-0.578125 0.640625 -0.578125 1.65625q0 0.90625 0.546875 1.484375q0.5625 0.5625 1.359375 0.5625q0.828125 0 1.34375 -0.5625q0.53125 -0.578125 0.53125 -1.59375zm8.584351 5.296875l0 1.125l-6.296875 0q-0.015625 -0.421875 0.140625 -0.8125q0.234375 -0.640625 0.765625 -1.265625q0.53125 -0.625 1.53125 -1.453125q1.5625 -1.265625 2.109375 -2.015625q0.546875 -0.75 0.546875 -1.40625q0 -0.703125 -0.5 -1.171875q-0.5 -0.484375 -1.296875 -0.484375q-0.859375 0 -1.375 0.515625q-0.5 0.5 -0.5 1.390625l-1.203125 -0.109375q0.125 -1.359375 0.921875 -2.0625q0.8125 -0.703125 2.171875 -0.703125q1.375 0 2.171875 0.765625q0.8125 0.75 0.8125 1.875q0 0.578125 -0.234375 1.140625q-0.234375 0.546875 -0.78125 1.15625q-0.546875 0.609375 -1.8125 1.671875q-1.046875 0.890625 -1.359375 1.21875q-0.296875 0.3125 -0.484375 0.625l4.671875 0zm1.9124756 1.125l0 -1.328125l1.34375 0l0 1.328125l-1.34375 0zm7.4685974 0l-1.171875 0l0 -7.46875q-0.421875 0.40625 -1.109375 0.8125q-0.6875 0.40625 -1.234375 0.609375l0 -1.140625q0.984375 -0.453125 1.71875 -1.109375q0.734375 -0.671875 1.03125 -1.28125l0.765625 0l0 9.578125zm9.068726 -7.203125l-1.15625 0.09375q-0.15625 -0.6875 -0.4375 -1.0q-0.484375 -0.5 -1.171875 -0.5q-0.5625 0 -0.984375 0.3125q-0.5625 0.390625 -0.890625 1.171875q-0.3125 0.765625 -0.3125 2.203125q0.421875 -0.640625 1.03125 -0.953125q0.609375 -0.3125 1.28125 -0.3125q1.171875 0 1.984375 0.859375q0.828125 0.859375 0.828125 2.234375q0 0.890625 -0.390625 1.671875q-0.375 0.765625 -1.0625 1.171875q-0.671875 0.40625 -1.53125 0.40625q-1.46875 0 -2.390625 -1.0625q-0.921875 -1.078125 -0.921875 -3.5625q0 -2.765625 1.015625 -4.015625q0.90625 -1.09375 2.40625 -1.09375q1.125 0 1.84375 0.640625q0.71875 0.625 0.859375 1.734375zm-4.78125 4.109375q0 0.609375 0.25 1.171875q0.265625 0.546875 0.71875 0.84375q0.46875 0.28125 0.984375 0.28125q0.734375 0 1.265625 -0.59375q0.546875 -0.609375 0.546875 -1.640625q0 -0.984375 -0.53125 -1.546875q-0.53125 -0.578125 -1.328125 -0.578125q-0.796875 0 -1.359375 0.578125q-0.546875 0.5625 -0.546875 1.484375zm7.9281006 -2.078125q-0.734375 -0.265625 -1.09375 -0.765625q-0.34375 -0.5 -0.34375 -1.1875q0 -1.03125 0.75 -1.734375q0.75 -0.71875 1.984375 -0.71875q1.25 0 2.015625 0.734375q0.765625 0.71875 0.765625 1.75q0 0.671875 -0.359375 1.171875q-0.34375 0.484375 -1.046875 0.75q0.875 0.28125 1.328125 0.921875q0.46875 0.640625 0.46875 1.515625q0 1.234375 -0.875 2.0625q-0.859375 0.828125 -2.265625 0.828125q-1.421875 0 -2.28125 -0.828125q-0.859375 -0.84375 -0.859375 -2.09375q0 -0.921875 0.46875 -1.546875q0.46875 -0.640625 1.34375 -0.859375zm-0.234375 -1.984375q0 0.671875 0.4375 1.109375q0.4375 0.421875 1.125 0.421875q0.671875 0 1.109375 -0.421875q0.4375 -0.421875 0.4375 -1.046875q0 -0.640625 -0.453125 -1.078125q-0.4375 -0.4375 -1.109375 -0.4375q-0.671875 0 -1.109375 0.4375q-0.4375 0.421875 -0.4375 1.015625zm-0.375 4.40625q0 0.5 0.234375 0.96875q0.234375 0.46875 0.703125 0.734375q0.46875 0.25 1.015625 0.25q0.828125 0 1.375 -0.53125q0.546875 -0.546875 0.546875 -1.390625q0 -0.84375 -0.5625 -1.390625q-0.5625 -0.5625 -1.40625 -0.5625q-0.828125 0 -1.375 0.546875q-0.53125 0.546875 -0.53125 1.375zm6.8656006 2.75l0 -1.328125l1.34375 0l0 1.328125l-1.34375 0zm3.046753 -4.703125q0 -1.6875 0.34375 -2.71875q0.359375 -1.03125 1.046875 -1.59375q0.6875 -0.5625 1.71875 -0.5625q0.78125 0 1.359375 0.3125q0.578125 0.296875 0.953125 0.890625q0.375 0.578125 0.59375 1.421875q0.21875 0.828125 0.21875 2.25q0 1.671875 -0.359375 2.703125q-0.34375 1.03125 -1.03125 1.59375q-0.671875 0.5625 -1.734375 0.5625q-1.375 0 -2.15625 -0.984375q-0.953125 -1.1875 -0.953125 -3.875zm1.203125 0q0 2.34375 0.546875 3.125q0.5625 0.78125 1.359375 0.78125q0.8125 0 1.359375 -0.78125q0.5625 -0.78125 0.5625 -3.125q0 -2.359375 -0.5625 -3.125q-0.546875 -0.78125 -1.359375 -0.78125q-0.8125 0 -1.296875 0.6875q-0.609375 0.875 -0.609375 3.21875zm6.8656006 4.703125l0 -1.328125l1.34375 0l0 1.328125l-1.34375 0zm3.0467224 -4.703125q0 -1.6875 0.34375 -2.71875q0.359375 -1.03125 1.046875 -1.59375q0.6875 -0.5625 1.71875 -0.5625q0.78125 0 1.359375 0.3125q0.578125 0.296875 0.953125 0.890625q0.375 0.578125 0.59375 1.421875q0.21875 0.828125 0.21875 2.25q0 1.671875 -0.359375 2.703125q-0.34375 1.03125 -1.03125 1.59375q-0.671875 0.5625 -1.734375 0.5625q-1.375 0 -2.15625 -0.984375q-0.953125 -1.1875 -0.953125 -3.875zm1.203125 0q0 2.34375 0.546875 3.125q0.5625 0.78125 1.359375 0.78125q0.8125 0 1.359375 -0.78125q0.5625 -0.78125 0.5625 -3.125q0 -2.359375 -0.5625 -3.125q-0.546875 -0.78125 -1.359375 -0.78125q-0.8125 0 -1.296875 0.6875q-0.609375 0.875 -0.609375 3.21875zm5.6624756 4.859375l2.765625 -9.859375l0.9375 0l-2.765625 9.859375l-0.9375 0zm10.406128 -1.28125l0 1.125l-6.296875 0q-0.015625 -0.421875 0.140625 -0.8125q0.234375 -0.640625 0.765625 -1.265625q0.53125 -0.625 1.53125 -1.453125q1.5625 -1.265625 2.109375 -2.015625q0.546875 -0.75 0.546875 -1.40625q0 -0.703125 -0.5 -1.171875q-0.5 -0.484375 -1.296875 -0.484375q-0.859375 0 -1.375 0.515625q-0.5 0.5 -0.5 1.390625l-1.203125 -0.109375q0.125 -1.359375 0.921875 -2.0625q0.8125 -0.703125 2.171875 -0.703125q1.375 0 2.171875 0.765625q0.8125 0.75 0.8125 1.875q0 0.578125 -0.234375 1.140625q-0.234375 0.546875 -0.78125 1.15625q-0.546875 0.609375 -1.8125 1.671875q-1.046875 0.890625 -1.359375 1.21875q-0.296875 0.3125 -0.484375 0.625l4.671875 0zm5.0218506 1.125l0 -2.28125l-4.140625 0l0 -1.078125l4.34375 -6.1875l0.96875 0l0 6.1875l1.28125 0l0 1.078125l-1.28125 0l0 2.28125l-1.171875 0zm0 -3.359375l0 -4.296875l-2.984375 4.296875l2.984375 0z"
       fill-rule="nonzero"
       id="path117" />
    <path
       fill="#ffffff"
       d="m540.70667 202.00394l155.30713 0l0 31.055115l-155.30713 0z"
       fill-rule="evenodd"
       id="path119" />
    <path
       stroke="#595959"
       stroke-width="1.0"
       stroke-linejoin="round"
       stroke-linecap="butt"
       d="m540.70667 202.00394l155.30713 0l0 31.055115l-155.30713 0z"
       fill-rule="evenodd"
       id="path121" />
    <path
       fill="#000000"
       d="m606.3659 223.43962q-0.890625 -1.296875 -2.171875 -2.703125l0.9375 -0.640625q1.109375 0.875 2.28125 2.515625l-1.046875 0.828125zm-8.5625 -11.265625l8.96875 0l0 1.125l-1.234375 0l0 2.046875l2.046875 0l0 1.109375l-2.046875 0l0 2.046875l1.875 0l0 1.125l-12.59375 0l0 -1.125l2.28125 0l0 -2.046875l-2.453125 0l0 -1.109375l2.453125 0l0 -2.0q-0.8125 1.171875 -1.578125 1.640625l-0.703125 -0.984375q1.703125 -1.359375 2.515625 -3.515625l1.171875 0.34375q0.234375 0.234375 -0.171875 0.296875l-0.53125 1.046875zm4.6875 11.265625q-0.46875 -1.890625 -0.875 -3.0l1.171875 -0.34375q0.46875 1.109375 1.0 2.921875l-1.296875 0.421875zm-4.5625 -2.828125q0.234375 0.234375 -0.1875 0.296875q-0.984375 1.828125 -1.921875 2.765625l-0.9375 -0.828125q1.21875 -1.40625 1.921875 -2.8125l1.125 0.578125zm5.203125 -7.3125l0 2.046875l1.234375 0l0 -2.046875l-1.234375 0zm-2.453125 0l0 2.046875l1.28125 0l0 -2.046875l-1.28125 0zm-2.40625 2.046875l1.234375 0l0 -2.046875l-1.234375 0l0 2.046875zm4.859375 3.15625l1.234375 0l0 -2.046875l-1.234375 0l0 2.046875zm-2.453125 -2.046875l0 2.046875l1.28125 0l0 -2.046875l-1.28125 0zm-2.40625 0l0 2.046875l1.234375 0l0 -2.046875l-1.234375 0zm1.875 3.75q0.359375 1.703125 0.296875 3.34375l-1.296875 0.125q0 -1.828125 -0.234375 -3.40625l1.234375 -0.0625zm18.875 -8.265625l2.8125 0l0 5.15625l-2.578125 0l0 0.703125q0 0.421875 0.640625 1.46875l1.8125 -1.8125l0.828125 0.9375q0.046875 0.296875 -0.296875 0.171875l-1.8125 1.40625q0.9375 1.234375 2.515625 2.234375l-0.640625 1.171875q-1.828125 -1.171875 -3.046875 -3.34375l0 2.9375q0 0.875 -0.703125 0.875l-1.125 0l-0.234375 -0.9375l0.828125 0q0.234375 0 0.234375 -0.234375l0 -5.578125l-1.296875 0l-1.21875 0l0 -5.15625l2.21875 0l0.359375 -1.578125l1.21875 0.234375q0.46875 0.171875 -0.046875 0.359375l-0.46875 0.984375zm-1.171875 6.625l-0.125 0.296875q-0.0625 3.28125 -2.578125 4.6875l-0.765625 -0.875q2.109375 -1.296875 2.234375 -3.40625l-1.53125 0l0 -0.9375l1.703125 0l0.171875 -0.171875l0.890625 0.40625zm-4.921875 -7.140625q-1.234375 1.984375 -1.640625 2.578125l0.75 0.640625l1.59375 -2.46875l0.9375 0.65625q0.234375 0.234375 -0.1875 0.28125q-1.578125 2.34375 -2.578125 3.515625l1.9375 -0.171875l-0.40625 -0.8125l0.875 -0.46875q0.875 1.109375 1.296875 2.390625l-1.0625 0.46875l-0.296875 -0.640625l-1.21875 0.171875l0 6.453125l-1.171875 0l0 -6.328125l-1.9375 0.109375q-0.296875 0.359375 -0.359375 -0.234375l-0.109375 -0.875l1.171875 0l0.8125 -1.109375l-1.8125 -1.46875l0.59375 -0.875l0.28125 0.171875q1.171875 -1.8125 1.640625 -2.8125l1.0625 0.53125q0.234375 0.234375 -0.171875 0.296875zm-3.28125 10.890625q0.46875 -2.21875 0.46875 -3.515625l1.046875 0.125q0.46875 0.109375 0.0625 0.28125q0 1.9375 -0.46875 3.703125l-1.109375 -0.59375zm7.078125 -8.265625l4.109375 0l0 -1.171875l-4.109375 0l0 1.171875zm4.109375 2.109375l0 -1.171875l-4.109375 0l0 1.171875l4.109375 0zm-6.453125 2.578125q0.421875 0.890625 0.59375 2.46875l-1.109375 0.234375q-0.0625 -1.0 -0.46875 -2.46875l0.984375 -0.234375z"
       fill-rule="nonzero"
       id="path123" />
    <path
       fill="#000000"
       d="m623.56903 222.6115l4.015625 -10.484375l1.5 0l4.296875 10.484375l-1.578125 0l-1.234375 -3.171875l-4.375 0l-1.15625 3.171875l-1.46875 0zm3.015625 -4.3125l3.5625 0l-1.09375 -2.90625q-0.5 -1.3125 -0.75 -2.171875q-0.203125 1.015625 -0.5625 2.0l-1.15625 3.078125zm7.9005737 4.3125l0 -10.484375l3.96875 0q1.046875 0 1.59375 0.09375q0.765625 0.125 1.28125 0.484375q0.53125 0.359375 0.84375 1.015625q0.328125 0.65625 0.328125 1.4375q0 1.328125 -0.859375 2.265625q-0.84375 0.921875 -3.078125 0.921875l-2.6875 0l0 4.265625l-1.390625 0zm1.390625 -5.5l2.71875 0q1.34375 0 1.90625 -0.5q0.5625 -0.5 0.5625 -1.40625q0 -0.671875 -0.328125 -1.140625q-0.328125 -0.46875 -0.875 -0.609375q-0.359375 -0.09375 -1.296875 -0.09375l-2.6875 0l0 3.75z"
       fill-rule="nonzero"
       id="path125" />
    <path
       fill="#ffffff"
       d="m534.50195 213.57874l6.204712 0l0 7.9055176l-6.204712 0z"
       fill-rule="evenodd"
       id="path127" />
    <path
       stroke="#595959"
       stroke-width="1.0"
       stroke-linejoin="round"
       stroke-linecap="butt"
       d="m534.50195 213.57874l6.204712 0l0 7.9055176l-6.204712 0z"
       fill-rule="evenodd"
       id="path129" />
    <path
       fill="#000000"
       fill-opacity="0.0"
       d="m534.50195 217.5315l-69.543304 0"
       fill-rule="evenodd"
       id="path131" />
    <path
       stroke="#595959"
       stroke-width="1.0"
       stroke-linejoin="round"
       stroke-linecap="butt"
       d="m534.50195 217.5315l-69.543304 0"
       fill-rule="evenodd"
       id="path133" />
    <path
       fill="#000000"
       fill-opacity="0.0"
       d="m696.0138 217.5328l67.212585 0"
       fill-rule="evenodd"
       id="path135" />
    <path
       stroke="#595959"
       stroke-width="1.0"
       stroke-linejoin="round"
       stroke-linecap="butt"
       d="m696.0138 217.5328l67.212585 0"
       fill-rule="evenodd"
       id="path137" />
  </g>
</svg>
