<?xml version="1.0" encoding="UTF-8" standalone="no"?>
<svg
   version="1.1"
   viewBox="0.0 0.0 960.0 540.0"
   fill="none"
   stroke="none"
   stroke-linecap="square"
   stroke-miterlimit="10"
   id="svg101"
   sodipodi:docname="network_configuration_ver1.svg"
   inkscape:version="1.2.1 (9c6d41e410, 2022-07-14)"
   xmlns:inkscape="http://www.inkscape.org/namespaces/inkscape"
   xmlns:sodipodi="http://sodipodi.sourceforge.net/DTD/sodipodi-0.dtd"
   xmlns="http://www.w3.org/2000/svg"
   xmlns:svg="http://www.w3.org/2000/svg">
  <defs
     id="defs105" />
  <sodipodi:namedview
     id="namedview103"
     pagecolor="#ffffff"
     bordercolor="#000000"
     borderopacity="0.25"
     inkscape:showpageshadow="2"
     inkscape:pageopacity="0.0"
     inkscape:pagecheckerboard="0"
     inkscape:deskcolor="#d1d1d1"
     showgrid="false"
     inkscape:zoom="1.325"
     inkscape:cx="480.37736"
     inkscape:cy="270.18868"
     inkscape:window-width="1858"
     inkscape:window-height="1057"
     inkscape:window-x="-8"
     inkscape:window-y="-8"
     inkscape:window-maximized="1"
     inkscape:current-layer="svg101" />
  <clipPath
     id="gfe3c541c9c_0_0.0">
    <path
       d="m0 0l960.0 0l0 540.0l-960.0 0l0 -540.0z"
       clip-rule="nonzero"
       id="path2" />
  </clipPath>
  <g
     clip-path="url(#gfe3c541c9c_0_0.0)"
     id="g99"
     transform="matrix(1.1595021,0,0,1.1595021,-76.554201,-43.10544)">
    <path
       fill="#ffffff"
       d="m 101.87051,148.48343 v 0 c -0.83321,-4.23656 1.90237,-8.43048 7.04594,-10.80216 5.14356,-2.37167 11.79303,-2.50514 17.1268,-0.34376 v 0 c 1.88939,-2.46332 5.34752,-4.16406 9.32835,-4.5878 3.98085,-0.42374 8.01686,0.47931 10.88721,2.43596 v 0 c 1.60951,-2.23338 4.76982,-3.73395 8.35948,-3.96918 3.58966,-0.23524 7.10063,0.82811 9.28706,2.81275 v 0 c 2.90783,-2.36739 7.53424,-3.36415 11.87737,-2.55899 4.34314,0.80514 7.62292,3.26762 8.42018,6.32188 v 0 c 3.56256,0.67235 6.53011,2.38155 8.13591,4.686 1.6058,2.30445 1.69234,4.97809 0.23726,7.33013 v 0 c 3.50809,3.15904 4.32872,7.36844 2.15564,11.05731 -2.17308,3.68887 -7.01338,6.30301 -12.71459,6.86685 -0.0402,3.46213 -2.78445,6.63895 -7.17504,8.30596 -4.39058,1.667 -9.7419,1.5639 -13.99129,-0.26958 v 0 c -1.81001,4.14651 -6.90462,7.19748 -13.08273,7.83476 -6.17812,0.63729 -12.3322,-1.25335 -15.80349,-4.85509 v 0 c -4.25505,1.77532 -9.36075,2.28672 -14.16537,1.41887 -4.80463,-0.86784 -8.90344,-3.04185 -11.37184,-6.0316 v 0 c -4.34813,0.35205 -8.552166,-1.20663 -10.525669,-3.90248 -1.973503,-2.69584 -1.296348,-5.95498 1.695381,-8.15991 v 0 c -3.878647,-1.5795 -5.857765,-4.71375 -4.905319,-7.76836 0.952439,-3.05461 4.620613,-5.3374 9.091707,-5.65799 z"
       fill-rule="evenodd"
       id="path7" />
    <path
       fill="#000000"
       fill-opacity="0"
       d="m 97.59817,162.07306 v 0 c 1.830345,0.74536 3.94482,1.08348 6.05952,0.96895 m 2.76982,11.0937 c 0.9094,-0.0736 1.80079,-0.22955 2.65117,-0.46374 m 22.88478,5.07629 c -0.63962,-0.66366 -1.17514,-1.37283 -1.59743,-2.11543 m 30.48474,-0.86437 v 0 c 0.32999,-0.75598 0.54379,-1.53402 0.63785,-2.32119 m 20.52768,-5.71491 c 0.0428,-3.68597 -2.98305,-7.0609 -7.7778,-8.67512 m 18.33664,-9.24865 c -0.77649,1.25515 -1.9619,2.36857 -3.46328,3.25296 m -4.90916,-15.26942 v 0 c 0.13231,0.50687 0.19353,1.02133 0.18285,1.5363 m -20.48005,-5.29904 v 0 c -0.72535,0.59055 -1.32295,1.25047 -1.77418,1.95924 m -15.87253,-0.80305 v 0 c -0.38655,0.53638 -0.6752,1.10397 -0.8593,1.6897 m -19.35655,0.46217 v 0 c 1.12862,0.45734 2.17275,1.0078 3.10945,1.6393 m -27.28188,9.50668 v 0 c 0.11484,0.58391 0.29629,1.16061 0.54265,1.72472"
       fill-rule="evenodd"
       id="path9" />
    <path
       stroke="#595959"
       stroke-width="1"
       stroke-linejoin="round"
       stroke-linecap="butt"
       d="m 101.87051,148.48343 v 0 c -0.83321,-4.23656 1.90237,-8.43048 7.04594,-10.80216 5.14356,-2.37167 11.79303,-2.50514 17.1268,-0.34376 v 0 c 1.88939,-2.46332 5.34752,-4.16406 9.32835,-4.5878 3.98085,-0.42374 8.01686,0.47931 10.88721,2.43596 v 0 c 1.60951,-2.23338 4.76982,-3.73395 8.35948,-3.96918 3.58966,-0.23524 7.10063,0.82811 9.28706,2.81275 v 0 c 2.90783,-2.36739 7.53424,-3.36415 11.87737,-2.55899 4.34314,0.80514 7.62292,3.26762 8.42018,6.32188 v 0 c 3.56256,0.67235 6.53011,2.38155 8.13591,4.686 1.6058,2.30445 1.69234,4.97809 0.23726,7.33013 v 0 c 3.50809,3.15904 4.32872,7.36844 2.15564,11.05731 -2.17308,3.68887 -7.01338,6.30301 -12.71459,6.86685 -0.0402,3.46213 -2.78445,6.63895 -7.17504,8.30596 -4.39058,1.667 -9.7419,1.5639 -13.99129,-0.26958 v 0 c -1.81001,4.14651 -6.90462,7.19748 -13.08273,7.83476 -6.17812,0.63729 -12.3322,-1.25335 -15.80349,-4.85509 v 0 c -4.25505,1.77532 -9.36075,2.28672 -14.16537,1.41887 -4.80463,-0.86784 -8.90344,-3.04185 -11.37184,-6.0316 v 0 c -4.34813,0.35205 -8.552166,-1.20663 -10.525669,-3.90248 -1.973503,-2.69584 -1.296348,-5.95498 1.695381,-8.15991 v 0 c -3.878647,-1.5795 -5.857765,-4.71375 -4.905319,-7.76836 0.952439,-3.05461 4.620613,-5.3374 9.091707,-5.65799 z"
       fill-rule="evenodd"
       id="path11" />
    <path
       stroke="#595959"
       stroke-width="1"
       stroke-linejoin="round"
       stroke-linecap="butt"
       d="m 97.59817,162.07306 v 0 c 1.830345,0.74536 3.94482,1.08348 6.05952,0.96895 m 2.76982,11.0937 c 0.9094,-0.0736 1.80079,-0.22955 2.65117,-0.46374 m 22.88478,5.07629 c -0.63962,-0.66366 -1.17514,-1.37283 -1.59743,-2.11543 m 30.48474,-0.86437 v 0 c 0.32999,-0.75598 0.54379,-1.53402 0.63785,-2.32119 m 20.52768,-5.71491 c 0.0428,-3.68597 -2.98305,-7.0609 -7.7778,-8.67512 m 18.33664,-9.24865 c -0.77649,1.25515 -1.9619,2.36857 -3.46328,3.25296 m -4.90916,-15.26942 v 0 c 0.13231,0.50687 0.19353,1.02133 0.18285,1.5363 m -20.48005,-5.29904 v 0 c -0.72535,0.59055 -1.32295,1.25047 -1.77418,1.95924 m -15.87253,-0.80305 v 0 c -0.38655,0.53638 -0.6752,1.10397 -0.8593,1.6897 m -19.35655,0.46217 v 0 c 1.12862,0.45734 2.17275,1.0078 3.10945,1.6393 m -27.28188,9.50668 v 0 c 0.11484,0.58391 0.29629,1.16061 0.54265,1.72472"
       fill-rule="evenodd"
       id="path13" />
    <path
       fill="#000000"
       d="m 117.03393,160.85631 v -9.54688 h 1.25 v 9.54688 z m 3.32799,0 v -6.90625 h 1.0625 v 0.98437 q 0.75,-1.14062 2.1875,-1.14062 0.625,0 1.15625,0.21875 0.53125,0.21875 0.78125,0.59375 0.26562,0.35937 0.375,0.85937 0.0625,0.32813 0.0625,1.14063 v 4.25 h -1.17188 v -4.20313 q 0,-0.71875 -0.14062,-1.0625 -0.14063,-0.35937 -0.48438,-0.5625 -0.34375,-0.21875 -0.8125,-0.21875 -0.75,0 -1.29687,0.46875 -0.54688,0.46875 -0.54688,1.79688 v 3.78125 z m 9.97498,-1.04688 0.17188,1.03125 q -0.5,0.10938 -0.89063,0.10938 -0.64062,0 -1,-0.20313 -0.34375,-0.20312 -0.48437,-0.53125 -0.14064,-0.32812 -0.14064,-1.39062 v -3.96875 h -0.85937 v -0.90625 h 0.85937 v -1.71875 l 1.17189,-0.70313 v 2.42188 h 1.17187 v 0.90625 h -1.17187 v 4.04687 q 0,0.5 0.0469,0.64063 0.0625,0.14062 0.20313,0.23437 0.14062,0.0781 0.40625,0.0781 0.20312,0 0.51562,-0.0469 z m 5.87486,-1.17187 1.20313,0.14062 q -0.28125,1.0625 -1.0625,1.65625 -0.76563,0.57813 -1.96875,0.57813 -1.51563,0 -2.40625,-0.9375 -0.89063,-0.9375 -0.89063,-2.60938 0,-1.75 0.89063,-2.70312 0.90625,-0.96875 2.34375,-0.96875 1.39062,0 2.26562,0.9375 0.875,0.9375 0.875,2.65625 0,0.10937 0,0.3125 h -5.15625 q 0.0625,1.14062 0.64063,1.75 0.57812,0.59375 1.4375,0.59375 0.65625,0 1.10937,-0.32813 0.45313,-0.34375 0.71875,-1.07812 z m -3.84375,-1.90625 h 3.85938 q -0.0781,-0.85938 -0.4375,-1.29688 -0.5625,-0.6875 -1.45313,-0.6875 -0.8125,0 -1.35937,0.54688 -0.54688,0.53125 -0.60938,1.4375 z m 6.50623,4.125 v -6.90625 h 1.0625 v 1.04687 q 0.40625,-0.73437 0.73437,-0.96875 0.34375,-0.23437 0.76563,-0.23437 0.59375,0 1.20312,0.375 l -0.40625,1.07812 q -0.4375,-0.25 -0.85937,-0.25 -0.39063,0 -0.70313,0.23438 -0.29687,0.23437 -0.42187,0.64062 -0.20313,0.625 -0.20313,1.35938 v 3.625 z m 4.45399,0 v -6.90625 h 1.0625 v 0.98437 q 0.75,-1.14062 2.1875,-1.14062 0.625,0 1.15625,0.21875 0.53125,0.21875 0.78125,0.59375 0.26563,0.35937 0.375,0.85937 0.0625,0.32813 0.0625,1.14063 v 4.25 h -1.17187 v -4.20313 q 0,-0.71875 -0.14063,-1.0625 -0.14062,-0.35937 -0.48437,-0.5625 -0.34375,-0.21875 -0.8125,-0.21875 -0.75,0 -1.29688,0.46875 -0.54687,0.46875 -0.54687,1.79688 v 3.78125 z m 12.14685,-2.21875 1.20313,0.14062 q -0.28125,1.0625 -1.0625,1.65625 -0.76563,0.57813 -1.96875,0.57813 -1.51563,0 -2.40625,-0.9375 -0.89063,-0.9375 -0.89063,-2.60938 0,-1.75 0.89063,-2.70312 0.90625,-0.96875 2.34375,-0.96875 1.39062,0 2.26562,0.9375 0.875,0.9375 0.875,2.65625 0,0.10937 0,0.3125 h -5.15625 q 0.0625,1.14062 0.64063,1.75 0.57812,0.59375 1.4375,0.59375 0.65625,0 1.10937,-0.32813 0.45313,-0.34375 0.71875,-1.07812 z m -3.84375,-1.90625 h 3.85938 q -0.0781,-0.85938 -0.4375,-1.29688 -0.5625,-0.6875 -1.45313,-0.6875 -0.8125,0 -1.35937,0.54688 -0.54688,0.53125 -0.60938,1.4375 z m 9.08436,3.07812 0.17187,1.03125 q -0.5,0.10938 -0.89062,0.10938 -0.64063,0 -1,-0.20313 -0.34375,-0.20312 -0.48438,-0.53125 -0.14062,-0.32812 -0.14062,-1.39062 v -3.96875 h -0.85938 v -0.90625 h 0.85938 v -1.71875 l 1.17187,-0.70313 v 2.42188 h 1.17188 v 0.90625 h -1.17188 v 4.04687 q 0,0.5 0.0469,0.64063 0.0625,0.14062 0.20312,0.23437 0.14063,0.0781 0.40625,0.0781 0.20313,0 0.51563,-0.0469 z"
       fill-rule="nonzero"
       id="path15" />
    <path
       fill="#ffffff"
       d="m 309.10745,138.07643 h 86.39371 v 38.39371 h -86.39371 z"
       fill-rule="evenodd"
       id="path17" />
    <path
       stroke="#595959"
       stroke-width="1"
       stroke-linejoin="round"
       stroke-linecap="butt"
       d="m 309.10745,138.07643 h 86.39371 v 38.39371 h -86.39371 z"
       fill-rule="evenodd"
       id="path19" />
    <path
       fill="#000000"
       d="m 342.42932,162.94579 h -5.4375 q -1.5625,0 -1.5625,-1.625 v -3.375 h -5 v -1.375 h 5 v -2.875 h -3.8125 v -1.375 h 9.9375 v 1.375 h -4.6875 v 2.875 h 6.25 v 1.375 h -6.25 v 2.875 q 0,0.75 0.6875,0.75 h 4.9375 z m 8.75,-6.0625 h -6.25 v -1.375 h 12.8125 v 1.375 h -5.125 v 0.8125 q 0,3.9375 -2.8125,6.5 l -1.25,-0.9375 q 2.625,-2.0625 2.625,-5.5625 z m -4,-3.8125 v -1.375 h 7.6875 v 1.375 z m 8.5,-2.5625 q 0.8125,0.8125 1.75,2.1875 l -0.875,0.625 q -0.875,-1.25 -1.75,-2.25 z m 1.5,-0.8125 q 0.8125,0.875 1.75,2.125 l -0.875,0.625 q -1,-1.375 -1.75,-2.125 z m 3,11.1875 2.625,-0.0625 q 2.25,-4.875 3.4375,-9.9375 l 1.4375,0.5 q 0.5625,0.375 -0.125,0.5625 -1.1875,4.4375 -3.1875,8.75 l 6.5,-0.3125 q -1.3125,-1.75 -2.0625,-2.5625 l 1.25,-0.875 q 2.125,2.3125 4.0625,5.4375 l -1.375,0.9375 -1,-1.625 -10.5,0.8125 q -0.375,0.625 -0.5625,0 z"
       fill-rule="nonzero"
       id="path21" />
    <path
       fill="#ffffff"
       d="m 508.72757,138.07643 h 86.39371 v 38.39371 h -86.39371 z"
       fill-rule="evenodd"
       id="path23" />
    <path
       stroke="#595959"
       stroke-width="1"
       stroke-linejoin="round"
       stroke-linecap="butt"
       d="m 508.72757,138.07643 h 86.39371 v 38.39371 h -86.39371 z"
       fill-rule="evenodd"
       id="path25" />
    <path
       fill="#000000"
       d="m 531.79944,161.32079 q 2.75,-1.0625 5.0625,-4.25 l 0.875,1.1875 q -2.375,3.25 -6,4.6875 l -0.5,0.25 -1,-0.75 0.125,-0.3125 v -10.0625 h 1.3125 q 0.5625,0.125 0.125,0.5 z m -8.375,1.6875 q 3.125,-3 3.125,-7.4375 v -2.8125 h 1.3125 q 0.5625,0.125 0.125,0.5 v 2.25 q 0,5.25 -3.3125,8.3125 z m 15.75,-5 v -1.375 h 13.9375 v 1.375 z m 20.75,-6.5 q -0.25,0.75 -0.625,1.4375 h 4.1875 l 0.6875,-0.25 0.8125,0.8125 q 0.25,0.3125 -0.25,0.5 -0.5,2.5 -1.5,4.5625 l 1.5,1 -0.9375,1.375 -1.375,-1 q -1.8125,2.625 -5.1875,4.3125 l -1.4375,-1.0625 q 3.75,-1.5625 5.375,-4.125 -1.5625,-1 -3.0625,-1.8125 l 0.75,-1.125 q 1.9375,0.875 3.1875,1.625 0.9375,-1.9375 1.125,-3.4375 h -4.5625 q -1.1875,2.125 -2.9375,3.875 l -1.1875,-0.8125 q 3.1875,-3.3125 4.1875,-7 l 1.5,0.625 q 0.5,0.25 -0.25,0.5 z m 6.875,6.5 v -1.375 h 13.9375 v 1.375 z"
       fill-rule="nonzero"
       id="path27" />
    <path
       fill="#000000"
       fill-opacity="0"
       d="M 195.79494,157.27328 H 309.11777"
       fill-rule="evenodd"
       id="path29" />
    <path
       stroke="#595959"
       stroke-width="1"
       stroke-linejoin="round"
       stroke-linecap="butt"
       d="M 195.79494,157.27328 H 309.11777"
       fill-rule="evenodd"
       id="path31" />
    <path
       fill="#000000"
       fill-opacity="0"
       d="M 395.50116,157.27328 H 508.72949"
       fill-rule="evenodd"
       id="path33" />
    <path
       stroke="#595959"
       stroke-width="1"
       stroke-linejoin="round"
       stroke-linecap="butt"
       d="M 395.50116,157.27328 H 508.72949"
       fill-rule="evenodd"
       id="path35" />
    <path
       fill="#000000"
       fill-opacity="0"
       d="m 495.31116,112.40945 h 113.22833 v 33.92126 H 495.31116 Z"
       fill-rule="evenodd"
       id="path37" />
    <path
       fill="#000000"
       d="m 519.00146,131.99194 0.15625,0.92187 q -0.45313,0.0937 -0.79688,0.0937 -0.57812,0 -0.89062,-0.17187 -0.3125,-0.1875 -0.45313,-0.48438 -0.125,-0.29687 -0.125,-1.25 v -3.57811 h -0.76562 v -0.8125 h 0.76562 v -1.54688 l 1.04688,-0.625 v 2.17188 h 1.0625 v 0.8125 h -1.0625 v 3.64061 q 0,0.45313 0.0469,0.57813 0.0625,0.125 0.1875,0.20312 0.125,0.0781 0.35938,0.0781 0.1875,0 0.46875,-0.0312 z m 1.03711,3.32812 v -8.60936 h 0.95312 v 0.79687 q 0.34375,-0.46875 0.76563,-0.70312 0.4375,-0.23438 1.04687,-0.23438 0.79688,0 1.40625,0.40625 0.60938,0.40625 0.90625,1.15625 0.3125,0.75 0.3125,1.64062 0,0.95313 -0.34375,1.71875 -0.32812,0.76563 -0.98437,1.17188 -0.65625,0.40625 -1.375,0.40625 -0.53125,0 -0.95313,-0.21875 -0.42187,-0.23438 -0.6875,-0.5625 v 3.03125 z m 0.95312,-5.46875 q 0,1.20313 0.48438,1.78125 0.48437,0.5625 1.17187,0.5625 0.70313,0 1.20313,-0.59375 0.5,-0.59375 0.5,-1.84375 0,-1.1875 -0.48438,-1.76561 -0.48437,-0.59375 -1.17187,-0.59375 -0.67188,0 -1.1875,0.62499 -0.51563,0.625 -0.51563,1.82812 z m 5.29883,0.5 v -1.0625 h 3.25 v 1.0625 z m 4.38672,2.57813 v -8.59374 h 1.0625 v 8.59374 z m 2.69727,-7.37499 v -1.21875 h 1.0625 v 1.21875 z m 0,7.37499 v -6.21874 h 1.0625 v 6.21874 z m 2.66601,0 v -6.21874 h 0.9375 v 0.875 q 0.6875,-1.01563 1.98438,-1.01563 0.5625,0 1.03125,0.20313 0.48437,0.20312 0.71875,0.53125 0.23437,0.32812 0.32812,0.76561 0.0469,0.29688 0.0469,1.03125 v 3.82813 h -1.04688 v -3.78125 q 0,-0.65625 -0.125,-0.96875 -0.125,-0.31249 -0.4375,-0.49999 -0.3125,-0.20313 -0.73437,-0.20313 -0.67188,0 -1.17188,0.4375 -0.48437,0.42187 -0.48437,1.60937 v 3.40625 z m 6.67383,0 v -8.59374 h 1.0625 v 4.90624 l 2.48438,-2.53124 h 1.375 l -2.39063,2.29687 2.625,3.92187 h -1.29687 l -2.0625,-3.1875 -0.73438,0.71875 v 2.46875 z m 9.49023,0 v -8.59374 h 6.20313 v 1.01562 h -5.0625 v 2.625 h 4.75 v 1.01562 h -4.75 v 2.92188 h 5.26562 v 1.01562 z m 7.98829,0 v -8.59374 h 3.8125 q 1.15625,0 1.75,0.23437 0.59375,0.23438 0.95312,0.82813 0.35938,0.57812 0.35938,1.28125 0,0.92187 -0.59375,1.54687 -0.59375,0.625 -1.82813,0.79687 0.45313,0.21875 0.6875,0.42188 0.5,0.45312 0.9375,1.14062 l 1.5,2.34375 h -1.4375 l -1.125,-1.78125 q -0.5,-0.78125 -0.82812,-1.1875 -0.3125,-0.40625 -0.57813,-0.5625 -0.25,-0.17187 -0.51562,-0.25 -0.1875,-0.0312 -0.625,-0.0312 h -1.32813 v 3.8125 z m 1.14062,-4.79688 h 2.45313 q 0.76562,0 1.20312,-0.15624 0.45313,-0.17187 0.67188,-0.51562 0.23437,-0.35938 0.23437,-0.78125 0,-0.60938 -0.45312,-1 -0.4375,-0.39063 -1.39063,-0.39063 h -2.71875 z m 12.55664,-1.68749 -1.04687,0.0781 q -0.14063,-0.625 -0.39063,-0.90625 -0.4375,-0.45313 -1.0625,-0.45313 -0.5,0 -0.89062,0.28125 -0.48438,0.375 -0.78125,1.07813 -0.28125,0.6875 -0.29688,1.96874 0.375,-0.57812 0.92188,-0.85937 0.5625,-0.28125 1.17187,-0.28125 1.04688,0 1.78125,0.78124 0.75,0.78125 0.75,2 0,0.8125 -0.35937,1.51563 -0.34375,0.6875 -0.95313,1.0625 -0.60937,0.35937 -1.375,0.35937 -1.32812,0 -2.15625,-0.96875 -0.82812,-0.96875 -0.82812,-3.1875 0,-2.49999 0.92187,-3.62499 0.79688,-0.98437 2.15625,-0.98437 1.01563,0 1.65625,0.57812 0.65625,0.5625 0.78125,1.5625 z m -4.29687,3.70312 q 0,0.54687 0.21875,1.04687 0.23437,0.48438 0.64062,0.75 0.42188,0.26563 0.89063,0.26563 0.65625,0 1.14062,-0.53125 0.48438,-0.54688 0.48438,-1.46875 0,-0.89063 -0.48438,-1.40625 -0.46875,-0.51563 -1.1875,-0.51563 -0.71875,0 -1.21875,0.51563 -0.48437,0.51562 -0.48437,1.34375 z m 5.50195,-1.45313 q 0,-1.53124 0.3125,-2.45311 0.3125,-0.9375 0.92187,-1.4375 0.625,-0.5 1.5625,-0.5 0.6875,0 1.20313,0.28125 0.53125,0.28125 0.875,0.8125 0.34375,0.51562 0.53125,1.26562 0.1875,0.75 0.1875,2.03124 0,1.51563 -0.3125,2.4375 -0.29688,0.92188 -0.92188,1.4375 -0.60937,0.5 -1.5625,0.5 -1.23437,0 -1.95312,-0.89062 -0.84375,-1.0625 -0.84375,-3.48438 z m 1.07812,0 q 0,2.10938 0.5,2.8125 0.5,0.70313 1.21875,0.70313 0.73438,0 1.21875,-0.70313 0.5,-0.70312 0.5,-2.8125 0,-2.12499 -0.5,-2.81249 -0.48437,-0.70312 -1.23437,-0.70312 -0.71875,0 -1.15625,0.60937 -0.54688,0.78125 -0.54688,2.90624 z m 5.59571,1.98438 1.10937,-0.0937 q 0.125,0.8125 0.5625,1.21875 0.45313,0.40625 1.09375,0.40625 0.75,0 1.28125,-0.57813 0.53125,-0.57812 0.53125,-1.51562 0,-0.90625 -0.51562,-1.42188 -0.5,-0.53125 -1.32813,-0.53125 -0.5,0 -0.92187,0.23438 -0.40625,0.23437 -0.64063,0.59375 l -0.98437,-0.125 0.82812,-4.40624 h 4.28125 v 1 h -3.4375 l -0.45312,2.3125 q 0.76562,-0.54688 1.60937,-0.54688 1.125,0 1.89063,0.78124 0.78125,0.78125 0.78125,2.01563 0,1.15625 -0.67188,2.01562 -0.82812,1.03125 -2.25,1.03125 -1.17187,0 -1.92187,-0.65625 -0.73438,-0.65625 -0.84375,-1.73437 z"
       fill-rule="nonzero"
       id="path39" />
    <path
       fill="#ffffff"
       d="m 728.15015,138.07611 h 139.30707 v 38.39371 H 728.15015 Z"
       fill-rule="evenodd"
       id="path41" />
    <path
       stroke="#595959"
       stroke-width="1"
       stroke-linejoin="round"
       stroke-linecap="butt"
       d="m 728.15015,138.07611 h 139.30707 v 38.39371 H 728.15015 Z"
       fill-rule="evenodd"
       id="path43" />
    <path
       fill="#000000"
       d="m 755.5966,155.13297 q -2.1875,-1.1875 -3.5625,-3.5625 -1.375,2.25 -3.1875,3.5625 z m 2.9375,1.3125 q -1.0625,-0.25 -2.8125,-1.25 v 1.3125 h -7.0625 v -1.25 q -1.6875,1.1875 -3.1875,1.625 l -0.5625,-1.5 q 4.375,-1.1875 6.5,-5.125 l 1.3125,0.1875 q 0.5,0.0625 0.0625,0.375 2,3 6.375,4.125 z m -1.375,7.9375 q -0.5,-0.6875 -1.1875,-1.3125 l -9.0625,1 q -0.3125,0.3125 -0.5625,0.125 l -0.4375,-1.5625 2.5625,-0.125 1.75,-3.1875 h -4.5 v -1.375 h 12.8125 v 1.375 h -6.75 l -1.875,3.125 5.125,-0.375 q -0.8125,-0.75 -1.8125,-1.5 l 1.125,-0.75 q 3,2.25 4.125,3.75 z m 7.6875,-11.375 h 1.3125 l 0.25,-0.25 0.9375,0.9375 -0.4375,0.3125 q -0.75,1.4375 -2.0625,3.0625 1.5625,0.5 2.75,1.3125 l -0.6875,1.375 q -1.0625,-0.875 -2.0625,-1.4375 v 6.1875 h -1.25 v -6.1875 q -1.125,1 -2.3125,1.6875 l -0.5625,-1.25 q 3,-1.625 4.6875,-4.5625 h -4.125 v -1.1875 h 2.3125 v -2.6875 h 1.1875 q 0.5,0.0625 0.0625,0.375 z m 6.8125,-2.3125 q 0.625,0.125 0.0625,0.5 v 3.3125 h 2.875 v 1.375 h -2.875 v 6.5 h 3.4375 v 1.375 h -8.5625 v -1.375 h 3.6875 v -6.5 h -2.6875 v -1.375 h 2.6875 v -3.8125 z m 17.4375,8.5625 h -4.0625 v 4.75 h -1.25 v -4.75 h -3.75 q -0.125,3.25 -1.9375,5.1875 l -1,-1 q 1.6875,-1.875 1.6875,-4.375 v -8 h 11.5625 v 11.9375 q 0,1 -1,1 h -1.75 l -0.3125,-1.375 h 1.5625 q 0.25,0 0.25,-0.25 z m -9.0625,-3.5 v 2.3125 h 3.75 v -2.3125 z m 0,-3.5 v 2.3125 h 3.75 v -2.3125 z m 5,3.5 v 2.3125 h 4.0625 v -2.3125 z m 0,-3.5 v 2.3125 h 4.0625 v -2.3125 z m 17.25,0.625 q -1.3125,3.625 -2.9375,5.75 -2.0625,2.6875 -4.9375,4.5 l -1.5,-1.1875 q 2.8125,-1.4375 4.75,-3.75 2,-2.375 3.125,-6.5625 l 1.6875,0.75 q 0.4375,0.25 -0.1875,0.5 z m 1.9375,5.125 v -1.375 h 13.9375 v 1.375 z m 18.0625,-2.375 q 3.0625,0.875 6.1875,2.375 l -0.75,1.4375 q -3.3125,-1.6875 -5.4375,-2.25 v 6.5 h -1.4375 v -12.5 h 1.25 q 0.75,0.0625 0.1875,0.5 z"
       fill-rule="nonzero"
       id="path45" />
    <path
       fill="#000000"
       d="m 830.456,163.13297 v -11.45313 h 4.32813 q 1.14062,0 1.73437,0.10938 0.84375,0.14062 1.40625,0.53125 0.57813,0.39062 0.92188,1.10937 0.35937,0.70313 0.35937,1.5625 0,1.45313 -0.9375,2.46875 -0.92187,1.01563 -3.35937,1.01563 h -2.9375 v 4.65625 z m 1.51563,-6.01563 h 2.96875 q 1.46875,0 2.07812,-0.54687 0.625,-0.54688 0.625,-1.53125 0,-0.71875 -0.375,-1.23438 -0.35937,-0.51562 -0.95312,-0.67187 -0.375,-0.10938 -1.40625,-0.10938 h -2.9375 z m 17.32812,2 1.51563,0.375 q -0.46875,1.875 -1.71875,2.85938 -1.23438,0.98437 -3.01563,0.98437 -1.85937,0 -3.01562,-0.75 -1.15625,-0.76562 -1.76563,-2.1875 -0.60937,-1.4375 -0.60937,-3.07812 0,-1.79688 0.6875,-3.125 0.6875,-1.32813 1.9375,-2.01563 1.26562,-0.70312 2.78125,-0.70312 1.71875,0 2.89062,0.875 1.17188,0.875 1.64063,2.46875 l -1.5,0.34375 q -0.39063,-1.25 -1.15625,-1.8125 -0.75,-0.57813 -1.90625,-0.57813 -1.3125,0 -2.20313,0.64063 -0.89062,0.625 -1.25,1.70312 -0.35937,1.0625 -0.35937,2.1875 0,1.46875 0.42187,2.5625 0.4375,1.07813 1.32813,1.625 0.90625,0.53125 1.95312,0.53125 1.26563,0 2.14063,-0.73437 0.89062,-0.73438 1.20312,-2.17188 z"
       fill-rule="nonzero"
       id="path47" />
    <path
       fill="#ffffff"
       d="m 582.75116,389.19684 h 152.28351 v 38.39371 H 582.75116 Z"
       fill-rule="evenodd"
       id="path49" />
    <path
       stroke="#595959"
       stroke-width="1"
       stroke-linejoin="round"
       stroke-linecap="butt"
       d="m 582.75116,389.19684 h 152.28351 v 38.39371 H 582.75116 Z"
       fill-rule="evenodd"
       id="path51" />
    <path
       fill="#000000"
       d="m 618.70544,415.1912 v -0.4375 h -7.1875 v 0.6875 h -1.0625 v -13.375 h 9.3125 v 13.125 z m -9.5,0.3125 h -1.25 v -7.6875 q -0.5,0.875 -1.1875,1.625 l -0.8125,-1.0625 q 2.125,-2.5 2.875,-7.125 l 1.3125,0.5 q 0.25,0.25 -0.1875,0.3125 -0.25,1.4375 -0.9375,3.5 0.75,0.0625 0.1875,0.4375 z m 4.5625,-6.625 v 2 h 2.8125 v -2 z m -2.25,-5.625 v 10.3125 h 7.1875 v -10.3125 z m 4.1875,2.0625 h 2.375 v 1.1875 h -2.375 v 1.375 h 1.9375 v 4.5 h -1.0625 v -0.5 h -2.8125 v 0.75 h -1.0625 v -4.75 h 1.75 v -1.375 h -2.3125 v -1.1875 h 2.3125 v -1.625 h 1.1875 q 0.5,0.0625 0.0625,0.375 z m 12.8125,-3.375 h 1.375 q 0.625,0.125 0.0625,0.5 v 2.5625 q 0.4375,6 6.375,8.5625 l -0.75,1.5625 q -4.3125,-1.875 -6.125,-6.8125 -1.3125,4.6875 -5.9375,6.8125 l -0.9375,-1.375 q 5.9375,-2.3125 5.9375,-8.5625 z m 21.8125,8.4375 h -4.0625 v 4.75 h -1.25 v -4.75 h -3.75 q -0.125,3.25 -1.9375,5.1875 l -1,-1 q 1.6875,-1.875 1.6875,-4.375 v -8 h 11.5625 v 11.9375 q 0,1 -1,1 h -1.75 l -0.3125,-1.375 h 1.5625 q 0.25,0 0.25,-0.25 z m -9.0625,-3.5 v 2.3125 h 3.75 v -2.3125 z m 0,-3.5 v 2.3125 h 3.75 v -2.3125 z m 5,3.5 v 2.3125 h 4.0625 v -2.3125 z m 0,-3.5 v 2.3125 h 4.0625 v -2.3125 z m 14.3125,4.625 h -6.25 v -1.375 h 12.8125 v 1.375 h -5.125 v 0.8125 q 0,3.9375 -2.8125,6.5 l -1.25,-0.9375 q 2.625,-2.0625 2.625,-5.5625 z m -4,-3.8125 v -1.375 h 7.6875 v 1.375 z m 8.5,-2.5625 q 0.8125,0.8125 1.75,2.1875 l -0.875,0.625 q -0.875,-1.25 -1.75,-2.25 z m 1.5,-0.8125 q 0.8125,0.875 1.75,2.125 l -0.875,0.625 q -1,-1.375 -1.75,-2.125 z m 12.9375,3.6875 q 3.125,3.9375 4.4375,8.3125 l -1.6875,0.5625 q -1.5625,-4.9375 -4.0625,-7.875 z m -4.75,1.4375 q 0.5,0.3125 -0.125,0.5625 -1.125,3.9375 -3.625,7.1875 l -1.4375,-0.9375 q 2.75,-3.3125 3.6875,-7.5 z m 7.5,-4.875 q 0.8125,0.6875 2,1.9375 l -0.8125,0.75 q -1.125,-1.25 -2,-2 z m -1.5,0.9375 q 0.9375,0.875 2,2.125 l -0.9375,0.6875 q -0.9375,-1.25 -1.9375,-2.125 z m 4.9375,7.6875 q 6.5625,-2.75 9.9375,-7.75 l 1.1875,1 q 0.5,0.375 -0.4375,0.5625 -1.1875,1.5625 -3.0625,3.1875 v 8.5 h -1.4375 v -7.3125 q -2.1875,1.6875 -5.125,3.0625 z m 20.625,-1.125 q 2.6875,2.0625 5.31244,4.75 l -1.24994,1.0625 q -2.625,-2.75 -5.0625,-4.625 -2.4375,2.625 -5.5625,4.6875 l -1.1875,-1.0625 q 6.625,-4.3125 8.5,-8.625 l -6.8125,0.4375 -0.1875,-1.5 7.25,-0.3125 0.75,-0.1875 1,1 q 0.4375,0.4375 -0.25,0.5625 -1.1875,2.0625 -2.5,3.8125 z"
       fill-rule="nonzero"
       id="path53" />
    <path
       fill="#ffffff"
       d="M 381.27875,286.24408 H 533.5622 v 38.39371 H 381.27875 Z"
       fill-rule="evenodd"
       id="path55" />
    <path
       stroke="#595959"
       stroke-width="1"
       stroke-linejoin="round"
       stroke-linecap="butt"
       d="M 381.27875,286.24408 H 533.5622 v 38.39371 H 381.27875 Z"
       fill-rule="evenodd"
       id="path57" />
    <path
       fill="#000000"
       d="m 414.02594,305.05093 h -6.25 v -1.375 h 12.8125 v 1.375 h -5.125 v 0.8125 q 0,3.9375 -2.8125,6.5 l -1.25,-0.9375 q 2.625,-2.0625 2.625,-5.5625 z m -4,-3.8125 v -1.375 h 7.6875 v 1.375 z m 8.5,-2.5625 q 0.8125,0.8125 1.75,2.1875 l -0.875,0.625 q -0.875,-1.25 -1.75,-2.25 z m 1.5,-0.8125 q 0.8125,0.875 1.75,2.125 l -0.875,0.625 q -1,-1.375 -1.75,-2.125 z m 10.5625,7.75 q 2.6875,2.0625 5.3125,4.75 l -1.25,1.0625 q -2.625,-2.75 -5.0625,-4.625 -2.4375,2.625 -5.5625,4.6875 l -1.1875,-1.0625 q 6.625,-4.3125 8.5,-8.625 l -6.8125,0.4375 -0.1875,-1.5 7.25,-0.3125 0.75,-0.1875 1,1 q 0.4375,0.4375 -0.25,0.5625 -1.1875,2.0625 -2.5,3.8125 z m 17.6875,-2.875 q -1.1875,6.8125 -7.8125,9.75 l -1.125,-1.1875 q 6.125,-2.5 7.375,-8.625 h -5 q -1.4375,2.375 -3,3.8125 l -1.25,-0.8125 q 3.25,-2.9375 4.1875,-6.875 l 1.4375,0.5 q 0.375,0.1875 -0.125,0.375 -0.25,0.8125 -0.6875,1.625 h 4.5 l 0.5625,-0.3125 1.125,1.125 q 0.4375,0.4375 -0.1875,0.625 z m 4.6875,1.0625 q 3.0625,0.875 6.1875,2.375 l -0.75,1.4375 q -3.3125,-1.6875 -5.4375,-2.25 v 6.5 h -1.4375 v -12.5 h 1.25 q 0.75,0.0625 0.1875,0.5 z m 17.6875,-0.125 q -0.4375,4.0625 -2.25,5.875 -1.8125,1.8125 -4.75,2.875 l -0.8125,-1.1875 q 2.875,-0.9375 4.5,-2.5625 1.75,-1.75 2,-5.9375 l 1.3125,0.4375 q 0.5625,0.1875 0,0.5 z m -5.3125,2.25 q -0.75,-1.6875 -1.5,-2.8125 l 1.1875,-0.625 q 0.9375,1.1875 1.625,2.8125 z m -3.1875,0.9375 q -0.75,-1.75 -1.5625,-2.9375 l 1.25,-0.625 q 0.875,1.1875 1.5625,2.875 z m 21.5,-6.3125 q 0.5,0 0.8125,-0.3125 0.3125,-0.3125 0.3125,-0.8125 0,-0.5 -0.3125,-0.8125 -0.3125,-0.3125 -0.8125,-0.3125 -0.5,0 -0.8125,0.3125 -0.3125,0.3125 -0.3125,0.8125 0,0.5 0.3125,0.8125 0.3125,0.3125 0.8125,0.3125 z m 0,0.625 q -0.75,0 -1.25,-0.5 -0.5,-0.5 -0.5,-1.25 0,-0.75 0.5,-1.25 0.5,-0.5 1.25,-0.5 0.75,0 1.25,0.5 0.5,0.5 0.5,1.25 0,0.75 -0.5,1.25 -0.5,0.5 -1.25,0.5 z m -11.1875,0.8125 v -1.375 h 9.25 l 1.625,1.1875 q -0.3125,7.5625 -8.5625,9.875 l -1.125,-1.375 q 7.8125,-1.8125 8.1875,-8.3125 z"
       fill-rule="nonzero"
       id="path59" />
    <path
       fill="#000000"
       d="M 487.0103,311.30093 V 299.8478 h 4.32812 q 1.14063,0 1.73438,0.10938 0.84375,0.14062 1.40625,0.53125 0.57812,0.39062 0.92187,1.10937 0.35938,0.70313 0.35938,1.5625 0,1.45313 -0.9375,2.46875 -0.92188,1.01563 -3.35938,1.01563 h -2.9375 v 4.65625 z m 1.51562,-6.01563 h 2.96875 q 1.46875,0 2.07813,-0.54687 0.625,-0.54688 0.625,-1.53125 0,-0.71875 -0.375,-1.23438 -0.35938,-0.51562 -0.95313,-0.67187 -0.375,-0.10938 -1.40625,-0.10938 h -2.9375 z m 17.32813,2 1.51562,0.375 q -0.46875,1.875 -1.71875,2.85938 -1.23437,0.98437 -3.01562,0.98437 -1.85938,0 -3.01563,-0.75 -1.15625,-0.76562 -1.76562,-2.1875 -0.60938,-1.4375 -0.60938,-3.07812 0,-1.79688 0.6875,-3.125 0.6875,-1.32813 1.9375,-2.01563 1.26563,-0.70312 2.78125,-0.70312 1.71875,0 2.89063,0.875 1.17187,0.875 1.64062,2.46875 l -1.5,0.34375 q -0.39062,-1.25 -1.15625,-1.8125 -0.75,-0.57813 -1.90625,-0.57813 -1.3125,0 -2.20312,0.64063 -0.89063,0.625 -1.25,1.70312 -0.35938,1.0625 -0.35938,2.1875 0,1.46875 0.42188,2.5625 0.4375,1.07813 1.32812,1.625 0.90625,0.53125 1.95313,0.53125 1.26562,0 2.14062,-0.73437 0.89063,-0.73438 1.20313,-2.17188 z"
       fill-rule="nonzero"
       id="path61" />
    <path
       fill="#000000"
       fill-opacity="0"
       d="M 595.1213,157.27328 H 728.16067"
       fill-rule="evenodd"
       id="path63" />
    <path
       stroke="#595959"
       stroke-width="1"
       stroke-linejoin="round"
       stroke-linecap="butt"
       d="M 595.1213,157.27328 H 728.16067"
       fill-rule="evenodd"
       id="path65" />
    <path
       fill="#000000"
       fill-opacity="0"
       d="m 574.8789,116.95801 h 68 v 32.31496 h -68 z"
       fill-rule="evenodd"
       id="path67" />
    <path
       fill="#000000"
       d="m 598.37573,136.198 -2.09375,-5.53125 h 0.98437 l 1.1875,3.3125 q 0.1875,0.53125 0.35938,1.10937 0.10937,-0.4375 0.34375,-1.04687 l 1.21875,-3.375 h 0.96875 l -2.09375,5.53125 z m 3.78125,0 v -7.625 h 0.9375 v 7.625 z m 5.99249,-0.6875 q -0.53125,0.45312 -1.01562,0.64062 -0.46875,0.17188 -1.01563,0.17188 -0.92187,0 -1.40625,-0.4375 -0.48437,-0.45313 -0.48437,-1.14063 0,-0.40625 0.17187,-0.73437 0.1875,-0.34375 0.48438,-0.54688 0.3125,-0.20312 0.6875,-0.3125 0.26562,-0.0625 0.82812,-0.14062 1.125,-0.125 1.67188,-0.3125 0,-0.20313 0,-0.25 0,-0.57813 -0.26563,-0.8125 -0.35937,-0.3125 -1.0625,-0.3125 -0.65625,0 -0.98437,0.23437 -0.3125,0.23438 -0.45313,0.8125 l -0.92187,-0.125 q 0.125,-0.57812 0.40625,-0.9375 0.29687,-0.375 0.82812,-0.5625 0.54688,-0.20312 1.25,-0.20312 0.71875,0 1.15625,0.17187 0.4375,0.17188 0.64063,0.42188 0.21875,0.25 0.29687,0.64062 0.0469,0.23438 0.0469,0.85938 v 1.25 q 0,1.29687 0.0625,1.65625 0.0625,0.34375 0.23437,0.65625 h -0.96875 q -0.15625,-0.29688 -0.1875,-0.6875 z m -0.0781,-2.07813 q -0.51563,0.20313 -1.53125,0.34375 -0.57813,0.0781 -0.82813,0.1875 -0.23437,0.10938 -0.35937,0.3125 -0.125,0.1875 -0.125,0.4375 0,0.375 0.28125,0.625 0.28125,0.25 0.82812,0.25 0.53125,0 0.95313,-0.23437 0.42187,-0.23438 0.625,-0.65625 0.15625,-0.3125 0.15625,-0.9375 z m 2.39526,2.76563 v -5.53125 h 0.84375 v 0.79687 q 0.60938,-0.92187 1.75,-0.92187 0.5,0 0.92188,0.1875 0.42187,0.17187 0.625,0.46875 0.21875,0.29687 0.29687,0.6875 0.0469,0.26562 0.0469,0.92187 v 3.39063 h -0.9375 v -3.35938 q 0,-0.57812 -0.10938,-0.85937 -0.10937,-0.28125 -0.39062,-0.45313 -0.26563,-0.17187 -0.64063,-0.17187 -0.59375,0 -1.03125,0.39062 -0.4375,0.375 -0.4375,1.4375 v 3.01563 z m 10.58277,-0.90625 v 0.90625 h -5.03125 q -0.0156,-0.34375 0.10937,-0.65625 0.1875,-0.51563 0.60938,-1.01563 0.42187,-0.5 1.23437,-1.14062 1.23438,-1.03125 1.67188,-1.625 0.4375,-0.59375 0.4375,-1.125 0,-0.5625 -0.40625,-0.9375 -0.39063,-0.39063 -1.03125,-0.39063 -0.67188,0 -1.07813,0.40625 -0.40625,0.40625 -0.40625,1.125 l -0.96875,-0.0937 q 0.0937,-1.07812 0.73438,-1.64062 0.65625,-0.5625 1.73437,-0.5625 1.10938,0 1.75,0.60937 0.64063,0.60938 0.64063,1.5 0,0.46875 -0.1875,0.90625 -0.1875,0.4375 -0.625,0.9375 -0.4375,0.48438 -1.45313,1.32813 -0.82812,0.71875 -1.07812,0.96875 -0.23438,0.25 -0.39063,0.5 z"
       fill-rule="nonzero"
       id="path69" />
    <path
       fill="#000000"
       fill-opacity="0"
       d="m 465.56396,168.21523 h 68 v 32.31496 h -68 z"
       fill-rule="evenodd"
       id="path71" />
    <path
       fill="#000000"
       d="m 489.0608,187.45522 -2.09375,-5.53125 h 0.98437 l 1.1875,3.3125 q 0.1875,0.53125 0.35938,1.10937 0.10937,-0.4375 0.34375,-1.04687 l 1.21875,-3.375 h 0.96875 l -2.09375,5.53125 z m 3.78125,0 v -7.625 h 0.9375 v 7.625 z m 5.99249,-0.6875 q -0.53125,0.45312 -1.01562,0.64062 -0.46875,0.17188 -1.01563,0.17188 -0.92187,0 -1.40625,-0.4375 -0.48437,-0.45313 -0.48437,-1.14063 0,-0.40625 0.17187,-0.73437 0.1875,-0.34375 0.48438,-0.54688 0.3125,-0.20312 0.6875,-0.3125 0.26562,-0.0625 0.82812,-0.14062 1.125,-0.125 1.67188,-0.3125 0,-0.20313 0,-0.25 0,-0.57813 -0.26563,-0.8125 -0.35937,-0.3125 -1.0625,-0.3125 -0.65625,0 -0.98437,0.23437 -0.3125,0.23438 -0.45313,0.8125 l -0.92187,-0.125 q 0.125,-0.57812 0.40625,-0.9375 0.29687,-0.375 0.82812,-0.5625 0.54688,-0.20312 1.25,-0.20312 0.71875,0 1.15625,0.17187 0.4375,0.17188 0.64063,0.42188 0.21875,0.25 0.29687,0.64062 0.0469,0.23438 0.0469,0.85938 v 1.25 q 0,1.29687 0.0625,1.65625 0.0625,0.34375 0.23437,0.65625 h -0.96875 q -0.15625,-0.29688 -0.1875,-0.6875 z m -0.0781,-2.07813 q -0.51563,0.20313 -1.53125,0.34375 -0.57813,0.0781 -0.82813,0.1875 -0.23437,0.10938 -0.35937,0.3125 -0.125,0.1875 -0.125,0.4375 0,0.375 0.28125,0.625 0.28125,0.25 0.82812,0.25 0.53125,0 0.95313,-0.23437 0.42187,-0.23438 0.625,-0.65625 0.15625,-0.3125 0.15625,-0.9375 z m 2.39523,2.76563 v -5.53125 h 0.84375 v 0.79687 q 0.60938,-0.92187 1.75,-0.92187 0.5,0 0.92188,0.1875 0.42187,0.17187 0.625,0.46875 0.21875,0.29687 0.29687,0.6875 0.0469,0.26562 0.0469,0.92187 v 3.39063 h -0.9375 v -3.35938 q 0,-0.57812 -0.10938,-0.85937 -0.10937,-0.28125 -0.39062,-0.45313 -0.26563,-0.17187 -0.64063,-0.17187 -0.59375,0 -1.03125,0.39062 -0.4375,0.375 -0.4375,1.4375 v 3.01563 z m 9.19214,0 h -0.9375 v -5.96875 q -0.34375,0.32812 -0.89063,0.65625 -0.54687,0.3125 -0.98437,0.46875 v -0.90625 q 0.79687,-0.35938 1.375,-0.89063 0.59375,-0.53125 0.82812,-1.01562 h 0.60938 z"
       fill-rule="nonzero"
       id="path73" />
    <path
       fill="#ffffff"
       d="m 582.75116,286.24408 h 152.28351 v 38.39371 H 582.75116 Z"
       fill-rule="evenodd"
       id="path75" />
    <path
       stroke="#595959"
       stroke-width="1"
       stroke-linejoin="round"
       stroke-linecap="butt"
       d="m 582.75116,286.24408 h 152.28351 v 38.39371 H 582.75116 Z"
       fill-rule="evenodd"
       id="path77" />
    <path
       fill="#000000"
       d="m 645.84607,312.17593 q -0.9375,-1.375 -2.3125,-2.875 l 1,-0.6875 q 1.1875,0.9375 2.4375,2.6875 z m -9.125,-12 h 9.5625 v 1.1875 h -1.3125 v 2.1875 h 2.1875 v 1.1875 h -2.1875 v 2.1875 h 2 v 1.1875 h -13.4375 v -1.1875 h 2.4375 v -2.1875 h -2.625 v -1.1875 h 2.625 v -2.125 q -0.875,1.25 -1.6875,1.75 l -0.75,-1.0625 q 1.8125,-1.4375 2.6875,-3.75 l 1.25,0.375 q 0.25,0.25 -0.1875,0.3125 z m 5,12 q -0.5,-2 -0.9375,-3.1875 l 1.25,-0.375 q 0.5,1.1875 1.0625,3.125 z m -4.875,-3 q 0.25,0.25 -0.1875,0.3125 -1.0625,1.9375 -2.0625,2.9375 l -1,-0.875 q 1.3125,-1.5 2.0625,-3 z m 5.5625,-7.8125 v 2.1875 h 1.3125 v -2.1875 z m -2.625,0 v 2.1875 h 1.375 v -2.1875 z m -2.5625,2.1875 h 1.3125 v -2.1875 h -1.3125 z m 5.1875,3.375 h 1.3125 v -2.1875 h -1.3125 z m -2.625,-2.1875 v 2.1875 h 1.375 v -2.1875 z m -2.5625,0 v 2.1875 h 1.3125 v -2.1875 z m 2,4 q 0.375,1.8125 0.3125,3.5625 l -1.375,0.125 q 0,-1.9375 -0.25,-3.625 z m 20.125,-8.8125 h 3 v 5.5 h -2.75 v 0.75 q 0,0.4375 0.6875,1.5625 l 1.9375,-1.9375 0.875,1 q 0.0625,0.3125 -0.3125,0.1875 l -1.9375,1.5 q 1,1.3125 2.6875,2.375 l -0.6875,1.25 q -1.9375,-1.25 -3.25,-3.5625 v 3.125 q 0,0.9375 -0.75,0.9375 h -1.1875 l -0.25,-1 h 0.875 q 0.25,0 0.25,-0.25 v -5.9375 h -1.375 -1.3125 v -5.5 h 2.375 l 0.375,-1.6875 1.3125,0.25 q 0.5,0.1875 -0.0625,0.375 z m -1.25,7.0625 -0.125,0.3125 q -0.0625,3.5 -2.75,5 l -0.8125,-0.9375 q 2.25,-1.375 2.375,-3.625 h -1.625 v -1 h 1.8125 l 0.1875,-0.1875 z m -5.25,-7.625 q -1.3125,2.125 -1.75,2.75 l 0.8125,0.6875 1.6875,-2.625 1,0.6875 q 0.25,0.25 -0.1875,0.3125 -1.6875,2.5 -2.75,3.75 l 2.0625,-0.1875 -0.4375,-0.875 0.9375,-0.5 q 0.9375,1.1875 1.375,2.5625 l -1.125,0.5 -0.3125,-0.6875 -1.3125,0.1875 v 6.875 h -1.25 v -6.75 l -2.0625,0.125 q -0.3125,0.375 -0.375,-0.25 l -0.125,-0.9375 h 1.25 l 0.875,-1.1875 -1.9375,-1.5625 0.625,-0.9375 0.3125,0.1875 q 1.25,-1.9375 1.75,-3 l 1.125,0.5625 q 0.25,0.25 -0.1875,0.3125 z m -3.5,11.625 q 0.5,-2.375 0.5,-3.75 l 1.125,0.125 q 0.5,0.125 0.0625,0.3125 0,2.0625 -0.5,3.9375 z m 7.5625,-8.8125 h 4.375 v -1.25 h -4.375 z m 4.375,2.25 v -1.25 h -4.375 v 1.25 z m -6.875,2.75 q 0.4375,0.9375 0.625,2.625 l -1.1875,0.25 q -0.0625,-1.0625 -0.5,-2.625 z"
       fill-rule="nonzero"
       id="path79" />
    <path
       fill="#000000"
       d="m 664.1898,311.30093 4.40625,-11.45313 h 1.64062 l 4.6875,11.45313 h -1.73437 l -1.32813,-3.46875 h -4.79687 l -1.25,3.46875 z m 3.3125,-4.70313 h 3.89062 l -1.20312,-3.17187 q -0.54688,-1.45313 -0.8125,-2.375 -0.21875,1.09375 -0.60938,2.1875 z m 8.625,4.70313 V 299.8478 h 4.32812 q 1.14063,0 1.73438,0.10938 0.84375,0.14062 1.40625,0.53125 0.57812,0.39062 0.92187,1.10937 0.35938,0.70313 0.35938,1.5625 0,1.45313 -0.9375,2.46875 -0.92188,1.01563 -3.35938,1.01563 h -2.9375 v 4.65625 z m 1.51562,-6.01563 h 2.96875 q 1.46875,0 2.07813,-0.54687 0.625,-0.54688 0.625,-1.53125 0,-0.71875 -0.375,-1.23438 -0.35938,-0.51562 -0.95313,-0.67187 -0.375,-0.10938 -1.40625,-0.10938 h -2.9375 z"
       fill-rule="nonzero"
       id="path81" />
    <path
       fill="#000000"
       fill-opacity="0"
       d="M 551.92444,176.47014 457.40473,286.23392"
       fill-rule="evenodd"
       id="path83" />
    <path
       stroke="#595959"
       stroke-width="1"
       stroke-linejoin="round"
       stroke-linecap="butt"
       d="M 551.92444,176.47014 457.40473,286.23392"
       fill-rule="evenodd"
       id="path85" />
    <path
       fill="#000000"
       fill-opacity="0"
       d="M 551.92444,176.47014 658.88507,286.23392"
       fill-rule="evenodd"
       id="path87" />
    <path
       stroke="#595959"
       stroke-width="1"
       stroke-linejoin="round"
       stroke-linecap="butt"
       d="M 551.92444,176.47014 658.88507,286.23392"
       fill-rule="evenodd"
       id="path89" />
    <path
       fill="#000000"
       fill-opacity="0"
       d="m 658.89294,324.6378 v 64.56693"
       fill-rule="evenodd"
       id="path91" />
    <path
       stroke="#595959"
       stroke-width="1"
       stroke-linejoin="round"
       stroke-linecap="butt"
       d="m 658.89294,324.6378 v 64.56693"
       fill-rule="evenodd"
       id="path93" />
    <path
       fill="#000000"
       fill-opacity="0"
       d="m 683.8682,260.10367 h 183.59058 v 33.92127 H 683.8682 Z"
       fill-rule="evenodd"
       id="path95" />
    <path
       fill="#000000"
       d="m 726.9008,280.6237 v -8.59375 h 1.15625 l 4.51562,6.75 v -6.75 h 1.09375 v 8.59375 h -1.17187 l -4.51563,-6.75 v 6.75 z m 8.69727,0 v -8.59375 h 6.20312 v 1.01562 h -5.0625 v 2.625 h 4.75 v 1.01563 h -4.75 v 2.92187 h 5.26563 v 1.01563 z m 14.11328,-3.01563 1.125,0.29688 q -0.35938,1.39062 -1.28125,2.125 -0.92188,0.73437 -2.26563,0.73437 -1.39062,0 -2.26562,-0.5625 -0.875,-0.5625 -1.32813,-1.625 -0.45312,-1.07812 -0.45312,-2.3125 0,-1.34375 0.51562,-2.34375 0.51563,-1 1.45313,-1.51562 0.95312,-0.51563 2.09375,-0.51563 1.28125,0 2.15625,0.65625 0.89062,0.65625 1.23437,1.84375 l -1.125,0.26563 q -0.29687,-0.9375 -0.875,-1.35938 -0.5625,-0.4375 -1.42187,-0.4375 -0.98438,0 -1.65625,0.48438 -0.65625,0.46875 -0.9375,1.26562 -0.26563,0.79688 -0.26563,1.65625 0,1.09375 0.3125,1.90625 0.32813,0.8125 1,1.21875 0.67188,0.40625 1.46875,0.40625 0.95313,0 1.60938,-0.54687 0.67187,-0.54688 0.90625,-1.64063 z m 7.35937,3.01563 -2.28125,-8.59375 h 1.17188 l 1.3125,5.64062 q 0.20312,0.875 0.35937,1.75 0.32813,-1.375 0.39063,-1.59375 l 1.625,-5.79687 h 1.375 l 1.23437,4.34375 q 0.45313,1.625 0.67188,3.04687 0.15625,-0.8125 0.42187,-1.875 l 1.34375,-5.51562 h 1.14063 l -2.34375,8.59375 h -1.10938 l -1.79687,-6.54688 q -0.23438,-0.8125 -0.28125,-1 -0.125,0.57813 -0.25,1 l -1.8125,6.54688 z m 13.85742,-3.375 v -1 l 3.625,-0.0156 v 3.1875 q -0.82812,0.67188 -1.71875,1.01563 -0.89062,0.32812 -1.82812,0.32812 -1.26563,0 -2.3125,-0.53125 -1.03125,-0.54687 -1.5625,-1.5625 -0.51563,-1.03125 -0.51563,-2.29687 0,-1.26563 0.51563,-2.34375 0.53125,-1.09375 1.51562,-1.60938 0.98438,-0.53125 2.26563,-0.53125 0.9375,0 1.6875,0.29688 0.75,0.29687 1.17187,0.84375 0.4375,0.53125 0.65625,1.40625 l -1.01562,0.28125 q -0.20313,-0.65625 -0.5,-1.03125 -0.28125,-0.375 -0.8125,-0.59375 -0.53125,-0.23438 -1.17188,-0.23438 -0.78125,0 -1.35937,0.23438 -0.5625,0.23437 -0.92188,0.625 -0.34375,0.39062 -0.53125,0.85937 -0.32812,0.79688 -0.32812,1.71875 0,1.15625 0.39062,1.9375 0.40625,0.76563 1.15625,1.14063 0.75,0.375 1.60938,0.375 0.73437,0 1.4375,-0.28125 0.70312,-0.29688 1.0625,-0.60938 v -1.60937 z m 8.84961,3.375 h -1.04687 v -6.71875 q -0.39063,0.35937 -1.01563,0.73437 -0.60937,0.35938 -1.09375,0.53125 v -1.01562 q 0.875,-0.42188 1.53125,-1 0.67188,-0.59375 0.95313,-1.15625 h 0.67187 z m 2.86133,-1.98438 1.01563,-0.0937 q 0.125,0.71875 0.48437,1.04688 0.375,0.3125 0.9375,0.3125 0.48438,0 0.84375,-0.21875 0.375,-0.23438 0.60938,-0.59375 0.23437,-0.375 0.39062,-1 0.15625,-0.64063 0.15625,-1.29688 0,-0.0781 0,-0.21875 -0.3125,0.5 -0.85937,0.82813 -0.54688,0.3125 -1.1875,0.3125 -1.07813,0 -1.8125,-0.76563 -0.73438,-0.78125 -0.73438,-2.04687 0,-1.3125 0.76563,-2.10938 0.78125,-0.79687 1.9375,-0.79687 0.82812,0 1.51562,0.45312 0.70313,0.45313 1.0625,1.29688 0.35938,0.82812 0.35938,2.40625 0,1.64062 -0.35938,2.625 -0.34375,0.96875 -1.0625,1.48437 -0.70312,0.5 -1.64062,0.5 -1.01563,0 -1.65625,-0.54687 -0.64063,-0.5625 -0.76563,-1.57813 z m 4.3125,-3.79687 q 0,-0.90625 -0.48437,-1.4375 -0.46875,-0.53125 -1.15625,-0.53125 -0.70313,0 -1.23438,0.57812 -0.51562,0.5625 -0.51562,1.48438 0,0.8125 0.5,1.32812 0.5,0.51563 1.21875,0.51563 0.73437,0 1.20312,-0.51563 0.46875,-0.51562 0.46875,-1.42187 z m 2.20508,1.54687 q 0,-1.53125 0.3125,-2.45312 0.3125,-0.9375 0.92187,-1.4375 0.625,-0.5 1.5625,-0.5 0.6875,0 1.20313,0.28125 0.53125,0.28125 0.875,0.8125 0.34375,0.51562 0.53125,1.26562 0.1875,0.75 0.1875,2.03125 0,1.51563 -0.3125,2.4375 -0.29688,0.92188 -0.92188,1.4375 -0.60937,0.5 -1.5625,0.5 -1.23437,0 -1.95312,-0.89062 -0.84375,-1.0625 -0.84375,-3.48438 z m 1.07812,0 q 0,2.10938 0.5,2.8125 0.5,0.70313 1.21875,0.70313 0.73438,0 1.21875,-0.70313 0.5,-0.70312 0.5,-2.8125 0,-2.125 -0.5,-2.8125 -0.48437,-0.70312 -1.23437,-0.70312 -0.71875,0 -1.15625,0.60937 -0.54688,0.78125 -0.54688,2.90625 z m 5.59571,0 q 0,-1.53125 0.3125,-2.45312 0.3125,-0.9375 0.92187,-1.4375 0.625,-0.5 1.5625,-0.5 0.6875,0 1.20313,0.28125 0.53125,0.28125 0.875,0.8125 0.34375,0.51562 0.53125,1.26562 0.1875,0.75 0.1875,2.03125 0,1.51563 -0.3125,2.4375 -0.29688,0.92188 -0.92188,1.4375 -0.60937,0.5 -1.5625,0.5 -1.23437,0 -1.95312,-0.89062 -0.84375,-1.0625 -0.84375,-3.48438 z m 1.07812,0 q 0,2.10938 0.5,2.8125 0.5,0.70313 1.21875,0.70313 0.73438,0 1.21875,-0.70313 0.5,-0.70312 0.5,-2.8125 0,-2.125 -0.5,-2.8125 -0.48437,-0.70312 -1.23437,-0.70312 -0.71875,0 -1.15625,0.60937 -0.54688,0.78125 -0.54688,2.90625 z m 6.06446,4.23438 v -8.59375 h 1.125 v 3.53125 h 4.46875 v -3.53125 h 1.14062 v 8.59375 h -1.14062 v -4.04688 h -4.46875 v 4.04688 z m 8.61914,0 v -8.59375 h 3.25 q 0.84375,0 1.29687,0.0781 0.64063,0.10938 1.0625,0.40625 0.4375,0.29688 0.6875,0.82813 0.26563,0.53125 0.26563,1.17187 0,1.09375 -0.70313,1.85938 -0.6875,0.75 -2.51562,0.75 h -2.20313 v 3.5 z m 1.14062,-4.5 h 2.21875 q 1.10938,0 1.5625,-0.40625 0.46875,-0.42188 0.46875,-1.17188 0,-0.53125 -0.28125,-0.90625 -0.26562,-0.39062 -0.70312,-0.51562 -0.29688,-0.0781 -1.0625,-0.0781 h -2.20313 z m 11.98828,3.48437 v 1.01563 h -5.6875 q 0,-0.375 0.125,-0.73438 0.21875,-0.57812 0.6875,-1.14062 0.48438,-0.5625 1.39063,-1.29688 1.40625,-1.15625 1.89062,-1.82812 0.5,-0.67188 0.5,-1.26563 0,-0.625 -0.45312,-1.04687 -0.45313,-0.4375 -1.17188,-0.4375 -0.76562,0 -1.21875,0.45312 -0.45312,0.45313 -0.46875,1.26563 l -1.07812,-0.10938 q 0.10937,-1.21875 0.82812,-1.84375 0.73438,-0.64062 1.96875,-0.64062 1.23438,0 1.95313,0.6875 0.71875,0.6875 0.71875,1.70312 0,0.51563 -0.21875,1.01563 -0.20313,0.48437 -0.70313,1.04687 -0.48437,0.54688 -1.60937,1.5 -0.95313,0.79688 -1.23438,1.09375 -0.26562,0.28125 -0.4375,0.5625 z"
       fill-rule="nonzero"
       id="path97" />
  </g>
</svg>
